<svg xmlns="http://www.w3.org/2000/svg" width="34.8" height="36" viewBox="0 0 34.8 36">
  <g id="Grupo_3859" data-name="Grupo 3859" transform="translate(-842.496 -273)">
    <path id="Trazado_1645" data-name="Trazado 1645" d="M17.4,36a18.1,18.1,0,0,1-4.035-.454l-.621-.142-2.335-5.3-5.747.625-.433-.465A18.085,18.085,0,0,1,.186,23.277L0,22.669,3.418,18,0,13.33l.186-.608A18.089,18.089,0,0,1,4.229,5.731l.434-.465,5.747.625L12.744.6l.621-.142a18.216,18.216,0,0,1,8.07,0L22.056.6l2.335,5.3,5.747-.625.434.465a18.086,18.086,0,0,1,4.042,6.991l.186.608L31.382,18,34.8,22.669l-.186.608a18.084,18.084,0,0,1-4.042,6.991l-.434.465-5.747-.625-2.335,5.3-.621.142A18.1,18.1,0,0,1,17.4,36m-2.854-2.8a15.688,15.688,0,0,0,5.708,0l2.564-5.815,6.314.686a15.564,15.564,0,0,0,2.859-4.942L28.236,18l3.755-5.129a15.564,15.564,0,0,0-2.859-4.942l-6.314.687L20.254,2.8a15.672,15.672,0,0,0-5.708,0L11.982,8.615,5.668,7.928A15.563,15.563,0,0,0,2.809,12.87L6.564,18,2.809,23.129A15.563,15.563,0,0,0,5.668,28.07l6.314-.686Z" transform="translate(842.496 273)" fill="#17ef97"/>
    <path id="Trazado_1646" data-name="Trazado 1646" d="M83.7,96.176a7.763,7.763,0,1,1,7.763-7.763A7.772,7.772,0,0,1,83.7,96.176m0-12.988a5.225,5.225,0,1,0,5.225,5.225A5.231,5.231,0,0,0,83.7,83.188" transform="translate(776.2 202.586)" fill="#17ef97"/>
  </g>
</svg>
