<svg id="Grupo_3638" data-name="Grupo 3638" xmlns="http://www.w3.org/2000/svg" xmlns:xlink="http://www.w3.org/1999/xlink" width="374.415" height="109.815" viewBox="0 0 374.415 109.815">
  <defs>
    <clipPath id="clip-path">
      <rect id="Rectángulo_1592" data-name="Rectángulo 1592" width="374.415" height="109.815" fill="none"/>
    </clipPath>
    <clipPath id="clip-path-2">
      <rect id="Rectángulo_1593" data-name="Rectángulo 1593" width="61.551" height="70.344" transform="translate(21 22)" fill="none"/>
    </clipPath>
  </defs>
  <g id="Grupo_3633" data-name="Grupo 3633">
    <g id="Grupo_3632" data-name="Grupo 3632" clip-path="url(#clip-path)">
      <path id="Trazado_1480" data-name="Trazado 1480" d="M19,0H355.415a19,19,0,0,1,19,19V90.815a19,19,0,0,1-19,19H19a19,19,0,0,1-19-19V19A19,19,0,0,1,19,0" fill="#fff"/>
    </g>
  </g>
  <g id="Grupo_3635" data-name="Grupo 3635">
    <g id="Grupo_3634" data-name="Grupo 3634" clip-path="url(#clip-path-2)">
      <path id="Trazado_1481" data-name="Trazado 1481" d="M75.341,22H28.21A7.228,7.228,0,0,0,21,29.246V76.8a7.228,7.228,0,0,0,7.21,7.246H68.1L66.236,77.54l4.5,4.186,4.256,3.939,7.562,6.683v-63.1A7.228,7.228,0,0,0,75.343,22h0M61.765,67.935s-1.266-1.512-2.321-2.849A11.1,11.1,0,0,0,65.809,60.9a20.174,20.174,0,0,1-4.045,2.075,23.149,23.149,0,0,1-5.1,1.512,24.629,24.629,0,0,1-9.11-.035,29.534,29.534,0,0,1-5.17-1.512,20.741,20.741,0,0,1-2.568-1.2c-.106-.07-.211-.106-.316-.176a.471.471,0,0,1-.141-.106c-.633-.352-.985-.6-.985-.6a10.936,10.936,0,0,0,6.155,4.15c-1.055,1.337-2.357,2.919-2.357,2.919-7.773-.246-10.728-5.346-10.728-5.346a47.1,47.1,0,0,1,5.065-20.506,17.4,17.4,0,0,1,9.884-3.693l.352.422C40.415,40.641,37.5,43.42,37.5,43.42S38.27,43,39.571,42.4a26.416,26.416,0,0,1,7.984-2.216,3.459,3.459,0,0,1,.6-.07,29.743,29.743,0,0,1,7.1-.07,28.67,28.67,0,0,1,10.587,3.376s-2.779-2.638-8.758-4.467l.492-.563a17.391,17.391,0,0,1,9.883,3.693A47.1,47.1,0,0,1,72.524,62.59s-2.99,5.1-10.763,5.346M45.41,51.51a3.918,3.918,0,0,0,0,7.808,3.747,3.747,0,0,0,3.59-3.9v-.007a3.724,3.724,0,0,0-3.543-3.9l-.045,0m12.838,0a3.918,3.918,0,1,0,3.574,4.234c.009-.111.014-.222.014-.334a3.747,3.747,0,0,0-3.587-3.9h0" fill="#0c1133"/>
    </g>
  </g>
  <g id="Grupo_3637" data-name="Grupo 3637">
    <g id="Grupo_3636" data-name="Grupo 3636" clip-path="url(#clip-path)">
      <path id="Trazado_1482" data-name="Trazado 1482" d="M115.411,22.8v8.521a4.894,4.894,0,0,1-1.27,3.589,4.727,4.727,0,0,1-3.53,1.29,5.153,5.153,0,0,1-2.639-.6,3.179,3.179,0,0,1-1.42-1.69,4.789,4.789,0,0,1-.141-2.53l2.061-.38a3.9,3.9,0,0,0,.259,2.53,2.029,2.029,0,0,0,1.88.81,2.291,2.291,0,0,0,2.071-.87,4.685,4.685,0,0,0,.57-2.55V22.8Z" fill="#0c1133"/>
      <path id="Trazado_1483" data-name="Trazado 1483" d="M131.51,22.6a6.449,6.449,0,0,1,3.32.82,5.478,5.478,0,0,1,2.16,2.34,8.056,8.056,0,0,1,.76,3.64,8.053,8.053,0,0,1-.76,3.64,5.473,5.473,0,0,1-2.16,2.34,7.09,7.09,0,0,1-6.62,0,5.485,5.485,0,0,1-2.16-2.34,8.053,8.053,0,0,1-.76-3.64,8.056,8.056,0,0,1,.76-3.64,5.49,5.49,0,0,1,2.16-2.34,6.41,6.41,0,0,1,3.3-.82m0,1.86a3.815,3.815,0,0,0-2.13.58,3.718,3.718,0,0,0-1.37,1.68,6.708,6.708,0,0,0-.479,2.68,6.724,6.724,0,0,0,.479,2.67,3.709,3.709,0,0,0,1.37,1.69,4.238,4.238,0,0,0,4.28,0,3.717,3.717,0,0,0,1.371-1.69,6.724,6.724,0,0,0,.479-2.67,6.708,6.708,0,0,0-.479-2.68,3.726,3.726,0,0,0-1.371-1.68,3.848,3.848,0,0,0-2.15-.58" fill="#0c1133"/>
      <rect id="Rectángulo_1594" data-name="Rectángulo 1594" width="2.14" height="13.2" transform="translate(147.811 22.8)" fill="#0c1133"/>
      <path id="Trazado_1484" data-name="Trazado 1484" d="M171.57,22.8V36h-2.539l-5.1-8.32-1.28-2.34h-.019l.08,2.141V36h-1.96V22.8h2.519l5.08,8.3,1.3,2.381h.021l-.08-2.16V22.8Z" fill="#0c1133"/>
      <path id="Trazado_1485" data-name="Trazado 1485" d="M205.071,22.8v1.84H200.55V36h-2.139V24.64h-4.52V22.8Z" fill="#0c1133"/>
      <path id="Trazado_1486" data-name="Trazado 1486" d="M216.651,36H214.51V22.8h2.141Zm7.6-5.759h-8.66V28.4h8.66ZM225.331,36h-2.16V22.8h2.16Z" fill="#0c1133"/>
      <path id="Trazado_1487" data-name="Trazado 1487" d="M236.11,36V22.8h9.561v1.84h-7.42v3.8h5.8v1.8h-5.8v3.92h7.7V36Z" fill="#0c1133"/>
      <path id="Trazado_1488" data-name="Trazado 1488" d="M279.35,36h-2.26l-1.261-3.46h-5.54L269.03,36h-2.2l4.981-13.2h2.559Zm-8.46-5.2h4.34l-2.16-6.16Z" fill="#0c1133"/>
      <path id="Trazado_1489" data-name="Trazado 1489" d="M293.949,22.8a5.041,5.041,0,0,1,3.371,1.06,3.558,3.558,0,0,1,1.25,2.86,3.479,3.479,0,0,1-1.25,2.87,5.207,5.207,0,0,1-3.371,1.01l-.2.12h-3.06V36h-2.12V22.8Zm-.159,6.141a2.949,2.949,0,0,0,1.93-.531,2.01,2.01,0,0,0,.63-1.63,2.017,2.017,0,0,0-.63-1.62,2.914,2.914,0,0,0-1.93-.54h-3.1v4.321Zm1.26.439,4.3,6.62h-2.46l-3.68-5.78Z" fill="#0c1133"/>
      <path id="Trazado_1490" data-name="Trazado 1490" d="M322.39,22.8V36h-1.98V28.361l.16-3.641h-.02L316.53,36h-1.781L310.73,24.72h-.021l.16,3.641V36H308.89V22.8h3.18l2.66,7.641.92,3.139h.04l.94-3.139,2.64-7.641Z" fill="#0c1133"/>
      <path id="Trazado_1491" data-name="Trazado 1491" d="M342.99,22.8l-4.72,8.141V36h-2.14V30.941l-4.7-8.141h2.38l2.36,4.26,1.04,1.96,1.04-1.96,2.34-4.26Z" fill="#0c1133"/>
      <path id="Trazado_1492" data-name="Trazado 1492" d="M121.619,48.627H105.6v18l10.664,9.6V58.76h5.694c3.619,0,5.4,1.737,5.4,4.536V76.662c0,2.8-1.689,4.681-5.4,4.681H105.551V91.524h16.02c8.589.048,16.648-4.246,16.648-14.09V63.055c.048-10.037-8.01-14.428-16.6-14.428" fill="#0c1133"/>
      <path id="Trazado_1493" data-name="Trazado 1493" d="M205.58,77.434V62.669c0-5.308,9.554-6.514,12.449-1.206l8.83-3.571a15.886,15.886,0,0,0-15.051-9.844c-8.589,0-17.082,4.97-17.082,14.621V77.434c0,9.747,8.492,14.621,16.889,14.621a17.23,17.23,0,0,0,15.441-9.6L217.6,78.112c-2.319,5.933-12.018,4.485-12.018-.678" fill="#0c1133"/>
      <path id="Trazado_1494" data-name="Trazado 1494" d="M176.387,64.7c-3.329-.724-5.549-1.93-5.694-4,.193-4.97,7.865-5.163,12.353-.386l7.093-5.453A17.6,17.6,0,0,0,175.518,48c-7.865,0-15.489,4.439-15.489,12.836,0,8.155,6.273,12.546,13.173,13.607,3.523.482,7.431,1.882,7.335,4.295-.29,4.584-9.747,4.343-14.042-.869l-6.852,6.418c4,5.163,9.458,7.769,14.573,7.769,7.865,0,16.6-4.536,16.937-12.836.482-10.471-7.142-13.12-14.766-14.52" fill="#0c1133"/>
      <rect id="Rectángulo_1595" data-name="Rectángulo 1595" width="10.809" height="42.849" transform="translate(144.057 48.627)" fill="#0c1133"/>
      <path id="Trazado_1495" data-name="Trazado 1495" d="M326.31,48.627H310.293v18l10.664,9.6V58.76h5.694c3.619,0,5.4,1.737,5.4,4.536V76.662c0,2.8-1.689,4.681-5.4,4.681H310.245V91.524h16.068c8.589.048,16.647-4.246,16.647-14.09V63.055c0-10.037-8.058-14.428-16.647-14.428" fill="#0c1133"/>
      <path id="Trazado_1496" data-name="Trazado 1496" d="M247.706,48.048c-8.879,0-17.709,4.825-17.709,14.717V77.386c0,9.8,8.879,14.717,17.806,14.717,8.879,0,17.709-4.922,17.709-14.717V62.765c0-9.844-8.927-14.717-17.806-14.717m6.948,29.338c0,3.088-3.474,4.681-6.9,4.681-3.474,0-6.948-1.5-6.948-4.681V62.765c0-3.137,3.378-4.825,6.755-4.825,3.523,0,7.093,1.5,7.093,4.825Z" fill="#0c1133"/>
      <path id="Trazado_1497" data-name="Trazado 1497" d="M295.911,76.807c5.163-1.641,8.4-6.128,8.4-14.042-.241-10.037-7.093-14.09-15.924-14.09h-17.13V91.524H282.21V77.917h1.93l9.94,13.607h13.511Zm-7.334-8.251h-6.37v-9.8h6.37a4.9,4.9,0,0,1,0,9.8" fill="#0c1133"/>
    </g>
  </g>
</svg>
