<?xml version="1.0" encoding="UTF-8"?><svg id="Capa_2" xmlns="http://www.w3.org/2000/svg" viewBox="0 0 420 420"><defs><style>.cls-1{fill:#6c33cd;}.cls-2{fill:#f6f3c6;}.cls-3{opacity:.1;}.cls-4{fill:#f7f4c7;}</style></defs><g id="Capa_2-2"><g id="Capa_1-2"><rect class="cls-2" width="420" height="420"/></g><g class="cls-3"><path class="cls-1" d="m45.89,37.3c0,.81-.07,1.59-.22,2.35h0c-.25,1.35-.72,2.62-1.36,3.76h0c-.4.71-.87,1.37-1.4,1.97,0,0,0,0,0,0-1.93,2.19-4.64,3.55-7.65,3.55s-5.64-1.33-7.57-3.46c0,0,0,0,0,0-.55-.61-1.03-1.28-1.45-2,0,0,0,0,0,0-.46-.81-.84-1.68-1.11-2.61h0c-.18-.61-.31-1.24-.4-1.88h0c-.07-.55-.11-1.11-.11-1.68,0-.87.09-1.81.25-2.81.12-.73.28-1.48.48-2.24.32-1.2.73-2.43,1.23-3.62.36-.85.75-1.69,1.19-2.48,1.92-3.5,4.56-6.2,7.48-6.2,1.88,0,3.64,1.12,5.17,2.84.47.53.92,1.12,1.34,1.75.34.51.66,1.05.97,1.6h0c.43.79.83,1.62,1.19,2.47,1.17,2.79,1.88,5.8,1.96,8.23,0,.15,0,.3,0,.44Z"/><path class="cls-4" d="m45.54,34.02q.05.46.08.92v.33c.03,1.02-.06,1.82-.28,2.76-.02-.07-.04-.16-.06-.23-.32-1.31-.81-2.98-2.56-6.32,0,2.36-.19,4.13-1.16,6.74-1.11-1.6-2.27-3.18-3.33-4.81-.52,1.11-.63,1.34-1.29,2.5l-.38.63-.39.62c-.14.21-.43.66-.87,1.27-.02-.03-.06-.06-.08-.09-.5-.85-1.75-3.18-2.63-6.49-.03.06-.07.15-.11.21-1.19,2.38-2.12,4.06-3.31,6.18-.05-.1-.12-.23-.17-.33-.31-.61-1.12-2.24-1.49-4.51-.26.43-.6,1.01-.85,1.44-.41.73-.49.9-.82,1.57l-.22.49-.19.47-.16.45-.07.23c-.34-1.33-.35-2.31-.32-3.12l.02-.33c.02-.3.03-.37.07-.67-.07.47-.09.58-.14,1.06l-.03.35c-.13,1.87.07,3.48.64,5.19.04-.21.09-.5.14-.71l.15-.45.2-.46.24-.44.27-.39.3-.41.08-.11c.31,1.52.88,4.35,3.28,7.61.12-2.35,1.76-5.6,1.92-5.79q.06.03.93,1.36c.24.37.55.85.8,1.22.47.68.79,1.12,1.51,2.08.65-.86.99-1.31,1.54-2.08.25-.36.58-.85.82-1.22q.57-.88.93-1.4c.19.22,1.9,3.04,2.27,5.17,2.02-2.83,2.62-5.1,3.02-7,.02.03.05.08.08.11l.28.41q.23.36.46.83l.17.47.13.46c.04.22.09.51.11.73.09-.32.22-.74.3-1.06.35-1.57.43-2.78.28-4.47l-.04-.35c-.02-.19-.04-.36-.09-.62"/></g><g class="cls-3"><path class="cls-1" d="m115.72,37.3c0,.81-.07,1.59-.22,2.35h0c-.25,1.35-.72,2.62-1.36,3.76h0c-.4.71-.87,1.37-1.4,1.97,0,0,0,0,0,0-1.93,2.19-4.64,3.55-7.65,3.55s-5.64-1.33-7.57-3.46c0,0,0,0,0,0-.55-.61-1.03-1.28-1.45-2,0,0,0,0,0,0-.46-.81-.84-1.68-1.11-2.61h0c-.18-.61-.31-1.24-.4-1.88h0c-.07-.55-.11-1.11-.11-1.68,0-.87.09-1.81.25-2.81.12-.73.28-1.48.48-2.24.32-1.2.73-2.43,1.23-3.62.36-.85.75-1.69,1.19-2.48,1.92-3.5,4.56-6.2,7.48-6.2,1.88,0,3.64,1.12,5.17,2.84.47.53.92,1.12,1.34,1.75.34.51.66,1.05.97,1.6h0c.43.79.83,1.62,1.19,2.47,1.17,2.79,1.88,5.8,1.96,8.23,0,.15,0,.3,0,.44Z"/><path class="cls-4" d="m115.37,34.02q.05.46.08.92v.33c.03,1.02-.06,1.82-.28,2.76-.02-.07-.04-.16-.06-.23-.32-1.31-.81-2.98-2.56-6.32,0,2.36-.19,4.13-1.16,6.74-1.11-1.6-2.27-3.18-3.33-4.81-.52,1.11-.63,1.34-1.29,2.5l-.38.63-.39.62c-.14.21-.43.66-.87,1.27-.02-.03-.06-.06-.08-.09-.5-.85-1.75-3.18-2.63-6.49-.03.06-.07.15-.11.21-1.19,2.38-2.12,4.06-3.31,6.18-.05-.1-.12-.23-.17-.33-.31-.61-1.12-2.24-1.49-4.51-.26.43-.6,1.01-.85,1.44-.41.73-.49.9-.82,1.57l-.22.49-.19.47-.16.45-.07.23c-.34-1.33-.35-2.31-.32-3.12l.02-.33c.02-.3.03-.37.07-.67-.07.47-.09.58-.14,1.06l-.03.35c-.13,1.87.07,3.48.64,5.19.04-.21.09-.5.14-.71l.15-.45.2-.46.24-.44.27-.39.3-.41.08-.11c.31,1.52.88,4.35,3.28,7.61.12-2.35,1.76-5.6,1.92-5.79q.06.03.93,1.36c.24.37.55.85.8,1.22.47.68.79,1.12,1.51,2.08.65-.86.99-1.31,1.54-2.08.25-.36.58-.85.82-1.22q.57-.88.93-1.4c.19.22,1.9,3.04,2.27,5.17,2.02-2.83,2.62-5.1,3.02-7,.02.03.05.08.08.11l.28.41q.23.36.46.83l.17.47.13.46c.04.22.09.51.11.73.09-.32.22-.74.3-1.06.35-1.57.43-2.78.28-4.47l-.04-.35c-.02-.19-.04-.36-.09-.62"/></g><g class="cls-3"><path class="cls-1" d="m185.55,37.3c0,.81-.07,1.59-.22,2.35h0c-.25,1.35-.72,2.62-1.36,3.76h0c-.4.71-.87,1.37-1.4,1.97,0,0,0,0,0,0-1.93,2.19-4.64,3.55-7.65,3.55s-5.64-1.33-7.57-3.46c0,0,0,0,0,0-.55-.61-1.03-1.28-1.45-2,0,0,0,0,0,0-.46-.81-.84-1.68-1.11-2.61h0c-.18-.61-.31-1.24-.4-1.88h0c-.07-.55-.11-1.11-.11-1.68,0-.87.09-1.81.25-2.81.12-.73.28-1.48.48-2.24.32-1.2.73-2.43,1.23-3.62.36-.85.75-1.69,1.19-2.48,1.92-3.5,4.56-6.2,7.48-6.2,1.88,0,3.64,1.12,5.17,2.84.47.53.92,1.12,1.34,1.75.34.51.66,1.05.97,1.6h0c.43.79.83,1.62,1.19,2.47,1.17,2.79,1.88,5.8,1.96,8.23,0,.15,0,.3,0,.44Z"/><path class="cls-4" d="m185.2,34.02q.05.46.08.92v.33c.03,1.02-.06,1.82-.28,2.76-.02-.07-.04-.16-.06-.23-.32-1.31-.81-2.98-2.56-6.32,0,2.36-.19,4.13-1.16,6.74-1.11-1.6-2.27-3.18-3.33-4.81-.52,1.11-.63,1.34-1.29,2.5l-.38.63-.39.62c-.14.21-.43.66-.87,1.27-.02-.03-.06-.06-.08-.09-.5-.85-1.75-3.18-2.63-6.49-.03.06-.07.15-.11.21-1.19,2.38-2.12,4.06-3.31,6.18-.05-.1-.12-.23-.17-.33-.31-.61-1.12-2.24-1.49-4.51-.26.43-.6,1.01-.85,1.44-.41.73-.49.9-.82,1.57l-.22.49-.19.47-.16.45-.07.23c-.34-1.33-.35-2.31-.32-3.12l.02-.33c.02-.3.03-.37.07-.67-.07.47-.09.58-.14,1.06l-.03.35c-.13,1.87.07,3.48.64,5.19.04-.21.09-.5.14-.71l.15-.45.2-.46.24-.44.27-.39.3-.41.08-.11c.31,1.52.88,4.35,3.28,7.61.12-2.35,1.76-5.6,1.92-5.79q.06.03.93,1.36c.24.37.55.85.8,1.22.47.68.79,1.12,1.51,2.08.65-.86.99-1.31,1.54-2.08.25-.36.58-.85.82-1.22q.57-.88.93-1.4c.19.22,1.9,3.04,2.27,5.17,2.02-2.83,2.62-5.1,3.02-7,.02.03.05.08.08.11l.28.41q.23.36.46.83l.17.47.13.46c.04.22.09.51.11.73.09-.32.22-.74.3-1.06.35-1.57.43-2.78.28-4.47l-.04-.35c-.02-.19-.04-.36-.09-.62"/></g><g class="cls-3"><path class="cls-1" d="m255.39,37.3c0,.81-.07,1.59-.22,2.35h0c-.25,1.35-.72,2.62-1.36,3.76h0c-.4.71-.87,1.37-1.4,1.97,0,0,0,0,0,0-1.93,2.19-4.64,3.55-7.65,3.55s-5.64-1.33-7.57-3.46c0,0,0,0,0,0-.55-.61-1.03-1.28-1.45-2,0,0,0,0,0,0-.46-.81-.84-1.68-1.11-2.61h0c-.18-.61-.31-1.24-.4-1.88h0c-.07-.55-.11-1.11-.11-1.68,0-.87.09-1.81.25-2.81.12-.73.28-1.48.48-2.24.32-1.2.73-2.43,1.23-3.62.36-.85.75-1.69,1.19-2.48,1.92-3.5,4.56-6.2,7.48-6.2,1.88,0,3.64,1.12,5.17,2.84.47.53.92,1.12,1.34,1.75.34.51.66,1.05.97,1.6h0c.43.79.83,1.62,1.19,2.47,1.17,2.79,1.88,5.8,1.96,8.23,0,.15,0,.3,0,.44Z"/><path class="cls-4" d="m255.04,34.02q.05.46.08.92v.33c.03,1.02-.06,1.82-.28,2.76-.02-.07-.04-.16-.06-.23-.32-1.31-.81-2.98-2.56-6.32,0,2.36-.19,4.13-1.16,6.74-1.11-1.6-2.27-3.18-3.33-4.81-.52,1.11-.63,1.34-1.29,2.5l-.38.63-.39.62c-.14.21-.43.66-.87,1.27-.02-.03-.06-.06-.08-.09-.5-.85-1.75-3.18-2.63-6.49-.03.06-.07.15-.11.21-1.19,2.38-2.12,4.06-3.31,6.18-.05-.1-.12-.23-.17-.33-.31-.61-1.12-2.24-1.49-4.51-.26.43-.6,1.01-.85,1.44-.41.73-.49.9-.82,1.57l-.22.49-.19.47-.16.45-.07.23c-.34-1.33-.35-2.31-.32-3.12l.02-.33c.02-.3.03-.37.07-.67-.07.47-.09.58-.14,1.06l-.03.35c-.13,1.87.07,3.48.64,5.19.04-.21.09-.5.14-.71l.15-.45.2-.46.24-.44.27-.39.3-.41.08-.11c.31,1.52.88,4.35,3.28,7.61.12-2.35,1.76-5.6,1.92-5.79q.06.03.93,1.36c.24.37.55.85.8,1.22.47.68.79,1.12,1.51,2.08.65-.86.99-1.31,1.54-2.08.25-.36.58-.85.82-1.22q.57-.88.93-1.4c.19.22,1.9,3.04,2.27,5.17,2.02-2.83,2.62-5.1,3.02-7,.02.03.05.08.08.11l.28.41q.23.36.46.83l.17.47.13.46c.04.22.09.51.11.73.09-.32.22-.74.3-1.06.35-1.57.43-2.78.28-4.47l-.04-.35c-.02-.19-.04-.36-.09-.62"/></g><g class="cls-3"><path class="cls-1" d="m325.22,37.3c0,.81-.07,1.59-.22,2.35h0c-.25,1.35-.72,2.62-1.36,3.76h0c-.4.71-.87,1.37-1.4,1.97,0,0,0,0,0,0-1.93,2.19-4.64,3.55-7.65,3.55s-5.64-1.33-7.57-3.46c0,0,0,0,0,0-.55-.61-1.03-1.28-1.45-2,0,0,0,0,0,0-.46-.81-.84-1.68-1.11-2.61h0c-.18-.61-.31-1.24-.4-1.88h0c-.07-.55-.11-1.11-.11-1.68,0-.87.09-1.81.25-2.81.12-.73.28-1.48.48-2.24.32-1.2.73-2.43,1.23-3.62.36-.85.75-1.69,1.19-2.48,1.92-3.5,4.56-6.2,7.48-6.2,1.88,0,3.64,1.12,5.17,2.84.47.53.92,1.12,1.34,1.75.34.51.66,1.05.97,1.6h0c.43.79.83,1.62,1.19,2.47,1.17,2.79,1.88,5.8,1.96,8.23,0,.15,0,.3,0,.44Z"/><path class="cls-4" d="m324.87,34.02q.05.46.08.92v.33c.03,1.02-.06,1.82-.28,2.76-.02-.07-.04-.16-.06-.23-.32-1.31-.81-2.98-2.56-6.32,0,2.36-.19,4.13-1.16,6.74-1.11-1.6-2.27-3.18-3.33-4.81-.52,1.11-.63,1.34-1.29,2.5l-.38.63-.39.62c-.14.21-.43.66-.87,1.27-.02-.03-.06-.06-.08-.09-.5-.85-1.75-3.18-2.63-6.49-.03.06-.07.15-.11.21-1.19,2.38-2.12,4.06-3.31,6.18-.05-.1-.12-.23-.17-.33-.31-.61-1.12-2.24-1.49-4.51-.26.43-.6,1.01-.85,1.44-.41.73-.49.9-.82,1.57l-.22.49-.19.47-.16.45-.07.23c-.34-1.33-.35-2.31-.32-3.12l.02-.33c.02-.3.03-.37.07-.67-.07.47-.09.58-.14,1.06l-.03.35c-.13,1.87.07,3.48.64,5.19.04-.21.09-.5.14-.71l.15-.45.2-.46.24-.44.27-.39.3-.41.08-.11c.31,1.52.88,4.35,3.28,7.61.12-2.35,1.76-5.6,1.92-5.79q.06.03.93,1.36c.24.37.55.85.8,1.22.47.68.79,1.12,1.51,2.08.65-.86.99-1.31,1.54-2.08.25-.36.58-.85.82-1.22q.57-.88.93-1.4c.19.22,1.9,3.04,2.27,5.17,2.02-2.83,2.62-5.1,3.02-7,.02.03.05.08.08.11l.28.41q.23.36.46.83l.17.47.13.46c.04.22.09.51.11.73.09-.32.22-.74.3-1.06.35-1.57.43-2.78.28-4.47l-.04-.35c-.02-.19-.04-.36-.09-.62"/></g><g class="cls-3"><path class="cls-1" d="m395.06,37.3c0,.81-.07,1.59-.22,2.35h0c-.25,1.35-.72,2.62-1.36,3.76h0c-.4.71-.87,1.37-1.4,1.97,0,0,0,0,0,0-1.93,2.19-4.64,3.55-7.65,3.55s-5.64-1.33-7.57-3.46c0,0,0,0,0,0-.55-.61-1.03-1.28-1.45-2,0,0,0,0,0,0-.46-.81-.84-1.68-1.11-2.61h0c-.18-.61-.31-1.24-.4-1.88h0c-.07-.55-.11-1.11-.11-1.68,0-.87.09-1.81.25-2.81.12-.73.28-1.48.48-2.24.32-1.2.73-2.43,1.23-3.62.36-.85.75-1.69,1.19-2.48,1.92-3.5,4.56-6.2,7.48-6.2,1.88,0,3.64,1.12,5.17,2.84.47.53.92,1.12,1.34,1.75.34.51.66,1.05.97,1.6h0c.43.79.83,1.62,1.19,2.47,1.17,2.79,1.88,5.8,1.96,8.23,0,.15,0,.3,0,.44Z"/><path class="cls-4" d="m394.71,34.02q.05.46.08.92v.33c.03,1.02-.06,1.82-.28,2.76-.02-.07-.04-.16-.06-.23-.32-1.31-.81-2.98-2.56-6.32,0,2.36-.19,4.13-1.16,6.74-1.11-1.6-2.27-3.18-3.33-4.81-.52,1.11-.63,1.34-1.29,2.5l-.38.63-.39.62c-.14.21-.43.66-.87,1.27-.02-.03-.06-.06-.08-.09-.5-.85-1.75-3.18-2.63-6.49-.03.06-.07.15-.11.21-1.19,2.38-2.12,4.06-3.31,6.18-.05-.1-.12-.23-.17-.33-.31-.61-1.12-2.24-1.49-4.51-.26.43-.6,1.01-.85,1.44-.41.73-.49.9-.82,1.57l-.22.49-.19.47-.16.45-.07.23c-.34-1.33-.35-2.31-.32-3.12l.02-.33c.02-.3.03-.37.07-.67-.07.47-.09.58-.14,1.06l-.03.35c-.13,1.87.07,3.48.64,5.19.04-.21.09-.5.14-.71l.15-.45.2-.46.24-.44.27-.39.3-.41.08-.11c.31,1.52.88,4.35,3.28,7.61.12-2.35,1.76-5.6,1.92-5.79q.06.03.93,1.36c.24.37.55.85.8,1.22.47.68.79,1.12,1.51,2.08.65-.86.99-1.31,1.54-2.08.25-.36.58-.85.82-1.22q.57-.88.93-1.4c.19.22,1.9,3.04,2.27,5.17,2.02-2.83,2.62-5.1,3.02-7,.02.03.05.08.08.11l.28.41q.23.36.46.83l.17.47.13.46c.04.22.09.51.11.73.09-.32.22-.74.3-1.06.35-1.57.43-2.78.28-4.47l-.04-.35c-.02-.19-.04-.36-.09-.62"/></g><g class="cls-3"><path class="cls-1" d="m45.89,107.53c0,.81-.07,1.59-.22,2.35h0c-.25,1.35-.72,2.62-1.36,3.76h0c-.4.71-.87,1.37-1.4,1.97,0,0,0,0,0,0-1.93,2.19-4.64,3.55-7.65,3.55s-5.64-1.33-7.57-3.46c0,0,0,0,0,0-.55-.61-1.03-1.28-1.45-2,0,0,0,0,0,0-.46-.81-.84-1.68-1.11-2.61h0c-.18-.61-.31-1.24-.4-1.88h0c-.07-.55-.11-1.11-.11-1.68,0-.87.09-1.81.25-2.81.12-.73.28-1.48.48-2.24.32-1.2.73-2.43,1.23-3.62.36-.85.75-1.69,1.19-2.48,1.92-3.5,4.56-6.2,7.48-6.2,1.88,0,3.64,1.12,5.17,2.84.47.53.92,1.12,1.34,1.75.34.51.66,1.05.97,1.6h0c.43.79.83,1.62,1.19,2.47,1.17,2.79,1.88,5.8,1.96,8.23,0,.15,0,.3,0,.44Z"/><path class="cls-4" d="m45.54,104.25q.05.46.08.92v.33c.03,1.02-.06,1.82-.28,2.76-.02-.07-.04-.16-.06-.23-.32-1.31-.81-2.98-2.56-6.32,0,2.36-.19,4.13-1.16,6.74-1.11-1.6-2.27-3.18-3.33-4.81-.52,1.11-.63,1.34-1.29,2.5l-.38.63-.39.62c-.14.21-.43.66-.87,1.27-.02-.03-.06-.06-.08-.09-.5-.85-1.75-3.18-2.63-6.49-.03.06-.07.15-.11.21-1.19,2.38-2.12,4.06-3.31,6.18-.05-.1-.12-.23-.17-.33-.31-.61-1.12-2.24-1.49-4.51-.26.43-.6,1.01-.85,1.44-.41.73-.49.9-.82,1.57l-.22.49-.19.47-.16.45-.07.23c-.34-1.33-.35-2.31-.32-3.12l.02-.33c.02-.3.03-.37.07-.67-.07.47-.09.58-.14,1.06l-.03.35c-.13,1.87.07,3.48.64,5.19.04-.21.09-.5.14-.71l.15-.45.2-.46.24-.44.27-.39.3-.41.08-.11c.31,1.52.88,4.35,3.28,7.61.12-2.35,1.76-5.6,1.92-5.79q.06.03.93,1.36c.24.37.55.85.8,1.22.47.68.79,1.12,1.51,2.08.65-.86.99-1.31,1.54-2.08.25-.36.58-.85.82-1.22q.57-.88.93-1.4c.19.22,1.9,3.04,2.27,5.17,2.02-2.83,2.62-5.1,3.02-7,.02.03.05.08.08.11l.28.41q.23.36.46.83l.17.47.13.46c.04.22.09.51.11.73.09-.32.22-.74.3-1.06.35-1.57.43-2.78.28-4.47l-.04-.35c-.02-.19-.04-.36-.09-.62"/></g><g class="cls-3"><path class="cls-1" d="m115.72,107.53c0,.81-.07,1.59-.22,2.35h0c-.25,1.35-.72,2.62-1.36,3.76h0c-.4.71-.87,1.37-1.4,1.97,0,0,0,0,0,0-1.93,2.19-4.64,3.55-7.65,3.55s-5.64-1.33-7.57-3.46c0,0,0,0,0,0-.55-.61-1.03-1.28-1.45-2,0,0,0,0,0,0-.46-.81-.84-1.68-1.11-2.61h0c-.18-.61-.31-1.24-.4-1.88h0c-.07-.55-.11-1.11-.11-1.68,0-.87.09-1.81.25-2.81.12-.73.28-1.48.48-2.24.32-1.2.73-2.43,1.23-3.62.36-.85.75-1.69,1.19-2.48,1.92-3.5,4.56-6.2,7.48-6.2,1.88,0,3.64,1.12,5.17,2.84.47.53.92,1.12,1.34,1.75.34.51.66,1.05.97,1.6h0c.43.79.83,1.62,1.19,2.47,1.17,2.79,1.88,5.8,1.96,8.23,0,.15,0,.3,0,.44Z"/><path class="cls-4" d="m115.37,104.25q.05.46.08.92v.33c.03,1.02-.06,1.82-.28,2.76-.02-.07-.04-.16-.06-.23-.32-1.31-.81-2.98-2.56-6.32,0,2.36-.19,4.13-1.16,6.74-1.11-1.6-2.27-3.18-3.33-4.81-.52,1.11-.63,1.34-1.29,2.5l-.38.63-.39.62c-.14.21-.43.66-.87,1.27-.02-.03-.06-.06-.08-.09-.5-.85-1.75-3.18-2.63-6.49-.03.06-.07.15-.11.21-1.19,2.38-2.12,4.06-3.31,6.18-.05-.1-.12-.23-.17-.33-.31-.61-1.12-2.24-1.49-4.51-.26.43-.6,1.01-.85,1.44-.41.73-.49.9-.82,1.57l-.22.49-.19.47-.16.45-.07.23c-.34-1.33-.35-2.31-.32-3.12l.02-.33c.02-.3.03-.37.07-.67-.07.47-.09.58-.14,1.06l-.03.35c-.13,1.87.07,3.48.64,5.19.04-.21.09-.5.14-.71l.15-.45.2-.46.24-.44.27-.39.3-.41.08-.11c.31,1.52.88,4.35,3.28,7.61.12-2.35,1.76-5.6,1.92-5.79q.06.03.93,1.36c.24.37.55.85.8,1.22.47.68.79,1.12,1.51,2.08.65-.86.99-1.31,1.54-2.08.25-.36.58-.85.82-1.22q.57-.88.93-1.4c.19.22,1.9,3.04,2.27,5.17,2.02-2.83,2.62-5.1,3.02-7,.02.03.05.08.08.11l.28.41q.23.36.46.83l.17.47.13.46c.04.22.09.51.11.73.09-.32.22-.74.3-1.06.35-1.57.43-2.78.28-4.47l-.04-.35c-.02-.19-.04-.36-.09-.62"/></g><g class="cls-3"><path class="cls-1" d="m185.55,107.53c0,.81-.07,1.59-.22,2.35h0c-.25,1.35-.72,2.62-1.36,3.76h0c-.4.71-.87,1.37-1.4,1.97,0,0,0,0,0,0-1.93,2.19-4.64,3.55-7.65,3.55s-5.64-1.33-7.57-3.46c0,0,0,0,0,0-.55-.61-1.03-1.28-1.45-2,0,0,0,0,0,0-.46-.81-.84-1.68-1.11-2.61h0c-.18-.61-.31-1.24-.4-1.88h0c-.07-.55-.11-1.11-.11-1.68,0-.87.09-1.81.25-2.81.12-.73.28-1.48.48-2.24.32-1.2.73-2.43,1.23-3.62.36-.85.75-1.69,1.19-2.48,1.92-3.5,4.56-6.2,7.48-6.2,1.88,0,3.64,1.12,5.17,2.84.47.53.92,1.12,1.34,1.75.34.51.66,1.05.97,1.6h0c.43.79.83,1.62,1.19,2.47,1.17,2.79,1.88,5.8,1.96,8.23,0,.15,0,.3,0,.44Z"/><path class="cls-4" d="m185.2,104.25q.05.46.08.92v.33c.03,1.02-.06,1.82-.28,2.76-.02-.07-.04-.16-.06-.23-.32-1.31-.81-2.98-2.56-6.32,0,2.36-.19,4.13-1.16,6.74-1.11-1.6-2.27-3.18-3.33-4.81-.52,1.11-.63,1.34-1.29,2.5l-.38.63-.39.62c-.14.21-.43.66-.87,1.27-.02-.03-.06-.06-.08-.09-.5-.85-1.75-3.18-2.63-6.49-.03.06-.07.15-.11.21-1.19,2.38-2.12,4.06-3.31,6.18-.05-.1-.12-.23-.17-.33-.31-.61-1.12-2.24-1.49-4.51-.26.43-.6,1.01-.85,1.44-.41.73-.49.9-.82,1.57l-.22.49-.19.47-.16.45-.07.23c-.34-1.33-.35-2.31-.32-3.12l.02-.33c.02-.3.03-.37.07-.67-.07.47-.09.58-.14,1.06l-.03.35c-.13,1.87.07,3.48.64,5.19.04-.21.09-.5.14-.71l.15-.45.2-.46.24-.44.27-.39.3-.41.08-.11c.31,1.52.88,4.35,3.28,7.61.12-2.35,1.76-5.6,1.92-5.79q.06.03.93,1.36c.24.37.55.85.8,1.22.47.68.79,1.12,1.51,2.08.65-.86.99-1.31,1.54-2.08.25-.36.58-.85.82-1.22q.57-.88.93-1.4c.19.22,1.9,3.04,2.27,5.17,2.02-2.83,2.62-5.1,3.02-7,.02.03.05.08.08.11l.28.41q.23.36.46.83l.17.47.13.46c.04.22.09.51.11.73.09-.32.22-.74.3-1.06.35-1.57.43-2.78.28-4.47l-.04-.35c-.02-.19-.04-.36-.09-.62"/></g><g class="cls-3"><path class="cls-1" d="m255.39,107.53c0,.81-.07,1.59-.22,2.35h0c-.25,1.35-.72,2.62-1.36,3.76h0c-.4.71-.87,1.37-1.4,1.97,0,0,0,0,0,0-1.93,2.19-4.64,3.55-7.65,3.55s-5.64-1.33-7.57-3.46c0,0,0,0,0,0-.55-.61-1.03-1.28-1.45-2,0,0,0,0,0,0-.46-.81-.84-1.68-1.11-2.61h0c-.18-.61-.31-1.24-.4-1.88h0c-.07-.55-.11-1.11-.11-1.68,0-.87.09-1.81.25-2.81.12-.73.28-1.48.48-2.24.32-1.2.73-2.43,1.23-3.62.36-.85.75-1.69,1.19-2.48,1.92-3.5,4.56-6.2,7.48-6.2,1.88,0,3.64,1.12,5.17,2.84.47.53.92,1.12,1.34,1.75.34.51.66,1.05.97,1.6h0c.43.79.83,1.62,1.19,2.47,1.17,2.79,1.88,5.8,1.96,8.23,0,.15,0,.3,0,.44Z"/><path class="cls-4" d="m255.04,104.25q.05.46.08.92v.33c.03,1.02-.06,1.82-.28,2.76-.02-.07-.04-.16-.06-.23-.32-1.31-.81-2.98-2.56-6.32,0,2.36-.19,4.13-1.16,6.74-1.11-1.6-2.27-3.18-3.33-4.81-.52,1.11-.63,1.34-1.29,2.5l-.38.63-.39.62c-.14.21-.43.66-.87,1.27-.02-.03-.06-.06-.08-.09-.5-.85-1.75-3.18-2.63-6.49-.03.06-.07.15-.11.21-1.19,2.38-2.12,4.06-3.31,6.18-.05-.1-.12-.23-.17-.33-.31-.61-1.12-2.24-1.49-4.51-.26.43-.6,1.01-.85,1.44-.41.73-.49.9-.82,1.57l-.22.49-.19.47-.16.45-.07.23c-.34-1.33-.35-2.31-.32-3.12l.02-.33c.02-.3.03-.37.07-.67-.07.47-.09.58-.14,1.06l-.03.35c-.13,1.87.07,3.48.64,5.19.04-.21.09-.5.14-.71l.15-.45.2-.46.24-.44.27-.39.3-.41.08-.11c.31,1.52.88,4.35,3.28,7.61.12-2.35,1.76-5.6,1.92-5.79q.06.03.93,1.36c.24.37.55.85.8,1.22.47.68.79,1.12,1.51,2.08.65-.86.99-1.31,1.54-2.08.25-.36.58-.85.82-1.22q.57-.88.93-1.4c.19.22,1.9,3.04,2.27,5.17,2.02-2.83,2.62-5.1,3.02-7,.02.03.05.08.08.11l.28.41q.23.36.46.83l.17.47.13.46c.04.22.09.51.11.73.09-.32.22-.74.3-1.06.35-1.57.43-2.78.28-4.47l-.04-.35c-.02-.19-.04-.36-.09-.62"/></g><g class="cls-3"><path class="cls-1" d="m325.22,107.53c0,.81-.07,1.59-.22,2.35h0c-.25,1.35-.72,2.62-1.36,3.76h0c-.4.71-.87,1.37-1.4,1.97,0,0,0,0,0,0-1.93,2.19-4.64,3.55-7.65,3.55s-5.64-1.33-7.57-3.46c0,0,0,0,0,0-.55-.61-1.03-1.28-1.45-2,0,0,0,0,0,0-.46-.81-.84-1.68-1.11-2.61h0c-.18-.61-.31-1.24-.4-1.88h0c-.07-.55-.11-1.11-.11-1.68,0-.87.09-1.81.25-2.81.12-.73.28-1.48.48-2.24.32-1.2.73-2.43,1.23-3.62.36-.85.75-1.69,1.19-2.48,1.92-3.5,4.56-6.2,7.48-6.2,1.88,0,3.64,1.12,5.17,2.84.47.53.92,1.12,1.34,1.75.34.51.66,1.05.97,1.6h0c.43.79.83,1.62,1.19,2.47,1.17,2.79,1.88,5.8,1.96,8.23,0,.15,0,.3,0,.44Z"/><path class="cls-4" d="m324.87,104.25q.05.46.08.92v.33c.03,1.02-.06,1.82-.28,2.76-.02-.07-.04-.16-.06-.23-.32-1.31-.81-2.98-2.56-6.32,0,2.36-.19,4.13-1.16,6.74-1.11-1.6-2.27-3.18-3.33-4.81-.52,1.11-.63,1.34-1.29,2.5l-.38.63-.39.62c-.14.21-.43.66-.87,1.27-.02-.03-.06-.06-.08-.09-.5-.85-1.75-3.18-2.63-6.49-.03.06-.07.15-.11.21-1.19,2.38-2.12,4.06-3.31,6.18-.05-.1-.12-.23-.17-.33-.31-.61-1.12-2.24-1.49-4.51-.26.43-.6,1.01-.85,1.44-.41.73-.49.9-.82,1.57l-.22.49-.19.47-.16.45-.07.23c-.34-1.33-.35-2.31-.32-3.12l.02-.33c.02-.3.03-.37.07-.67-.07.47-.09.58-.14,1.06l-.03.35c-.13,1.87.07,3.48.64,5.19.04-.21.09-.5.14-.71l.15-.45.2-.46.24-.44.27-.39.3-.41.08-.11c.31,1.52.88,4.35,3.28,7.61.12-2.35,1.76-5.6,1.92-5.79q.06.03.93,1.36c.24.37.55.85.8,1.22.47.68.79,1.12,1.51,2.08.65-.86.99-1.31,1.54-2.08.25-.36.58-.85.82-1.22q.57-.88.93-1.4c.19.22,1.9,3.04,2.27,5.17,2.02-2.83,2.62-5.1,3.02-7,.02.03.05.08.08.11l.28.41q.23.36.46.83l.17.47.13.46c.04.22.09.51.11.73.09-.32.22-.74.3-1.06.35-1.57.43-2.78.28-4.47l-.04-.35c-.02-.19-.04-.36-.09-.62"/></g><g class="cls-3"><path class="cls-1" d="m395.06,107.53c0,.81-.07,1.59-.22,2.35h0c-.25,1.35-.72,2.62-1.36,3.76h0c-.4.71-.87,1.37-1.4,1.97,0,0,0,0,0,0-1.93,2.19-4.64,3.55-7.65,3.55s-5.64-1.33-7.57-3.46c0,0,0,0,0,0-.55-.61-1.03-1.28-1.45-2,0,0,0,0,0,0-.46-.81-.84-1.68-1.11-2.61h0c-.18-.61-.31-1.24-.4-1.88h0c-.07-.55-.11-1.11-.11-1.68,0-.87.09-1.81.25-2.81.12-.73.28-1.48.48-2.24.32-1.2.73-2.43,1.23-3.62.36-.85.75-1.69,1.19-2.48,1.92-3.5,4.56-6.2,7.48-6.2,1.88,0,3.64,1.12,5.17,2.84.47.53.92,1.12,1.34,1.75.34.51.66,1.05.97,1.6h0c.43.79.83,1.62,1.19,2.47,1.17,2.79,1.88,5.8,1.96,8.23,0,.15,0,.3,0,.44Z"/><path class="cls-4" d="m394.71,104.25q.05.46.08.92v.33c.03,1.02-.06,1.82-.28,2.76-.02-.07-.04-.16-.06-.23-.32-1.31-.81-2.98-2.56-6.32,0,2.36-.19,4.13-1.16,6.74-1.11-1.6-2.27-3.18-3.33-4.81-.52,1.11-.63,1.34-1.29,2.5l-.38.63-.39.62c-.14.21-.43.66-.87,1.27-.02-.03-.06-.06-.08-.09-.5-.85-1.75-3.18-2.63-6.49-.03.06-.07.15-.11.21-1.19,2.38-2.12,4.06-3.31,6.18-.05-.1-.12-.23-.17-.33-.31-.61-1.12-2.24-1.49-4.51-.26.43-.6,1.01-.85,1.44-.41.73-.49.9-.82,1.57l-.22.49-.19.47-.16.45-.07.23c-.34-1.33-.35-2.31-.32-3.12l.02-.33c.02-.3.03-.37.07-.67-.07.47-.09.58-.14,1.06l-.03.35c-.13,1.87.07,3.48.64,5.19.04-.21.09-.5.14-.71l.15-.45.2-.46.24-.44.27-.39.3-.41.08-.11c.31,1.52.88,4.35,3.28,7.61.12-2.35,1.76-5.6,1.92-5.79q.06.03.93,1.36c.24.37.55.85.8,1.22.47.68.79,1.12,1.51,2.08.65-.86.99-1.31,1.54-2.08.25-.36.58-.85.82-1.22q.57-.88.93-1.4c.19.22,1.9,3.04,2.27,5.17,2.02-2.83,2.62-5.1,3.02-7,.02.03.05.08.08.11l.28.41q.23.36.46.83l.17.47.13.46c.04.22.09.51.11.73.09-.32.22-.74.3-1.06.35-1.57.43-2.78.28-4.47l-.04-.35c-.02-.19-.04-.36-.09-.62"/></g><g class="cls-3"><path class="cls-1" d="m45.89,177.76c0,.81-.07,1.59-.22,2.35h0c-.25,1.35-.72,2.62-1.36,3.76h0c-.4.71-.87,1.37-1.4,1.97,0,0,0,0,0,0-1.93,2.19-4.64,3.55-7.65,3.55s-5.64-1.33-7.57-3.46c0,0,0,0,0,0-.55-.61-1.03-1.28-1.45-2,0,0,0,0,0,0-.46-.81-.84-1.68-1.11-2.61h0c-.18-.61-.31-1.24-.4-1.88h0c-.07-.55-.11-1.11-.11-1.68,0-.87.09-1.81.25-2.81.12-.73.28-1.48.48-2.24.32-1.2.73-2.43,1.23-3.62.36-.85.75-1.69,1.19-2.48,1.92-3.5,4.56-6.2,7.48-6.2,1.88,0,3.64,1.12,5.17,2.84.47.53.92,1.12,1.34,1.75.34.51.66,1.05.97,1.6h0c.43.79.83,1.62,1.19,2.47,1.17,2.79,1.88,5.8,1.96,8.23,0,.15,0,.3,0,.44Z"/><path class="cls-4" d="m45.54,174.48q.05.46.08.92v.33c.03,1.02-.06,1.82-.28,2.76-.02-.07-.04-.16-.06-.23-.32-1.31-.81-2.98-2.56-6.32,0,2.36-.19,4.13-1.16,6.74-1.11-1.6-2.27-3.18-3.33-4.81-.52,1.11-.63,1.34-1.29,2.5l-.38.63-.39.62c-.14.21-.43.66-.87,1.27-.02-.03-.06-.06-.08-.09-.5-.85-1.75-3.18-2.63-6.49-.03.06-.07.15-.11.21-1.19,2.38-2.12,4.06-3.31,6.18-.05-.1-.12-.23-.17-.33-.31-.61-1.12-2.24-1.49-4.51-.26.43-.6,1.01-.85,1.44-.41.73-.49.9-.82,1.57l-.22.49-.19.47-.16.45-.07.23c-.34-1.33-.35-2.31-.32-3.12l.02-.33c.02-.3.03-.37.07-.67-.07.47-.09.58-.14,1.06l-.03.35c-.13,1.87.07,3.48.64,5.19.04-.21.09-.5.14-.71l.15-.45.2-.46.24-.44.27-.39.3-.41.08-.11c.31,1.52.88,4.35,3.28,7.61.12-2.35,1.76-5.6,1.92-5.79q.06.03.93,1.36c.24.37.55.85.8,1.22.47.68.79,1.12,1.51,2.08.65-.86.99-1.31,1.54-2.08.25-.36.58-.85.82-1.22q.57-.88.93-1.4c.19.22,1.9,3.04,2.27,5.17,2.02-2.83,2.62-5.1,3.02-7,.02.03.05.08.08.11l.28.41q.23.36.46.83l.17.47.13.46c.04.22.09.51.11.73.09-.32.22-.74.3-1.06.35-1.57.43-2.78.28-4.47l-.04-.35c-.02-.19-.04-.36-.09-.62"/></g><g class="cls-3"><path class="cls-1" d="m115.72,177.76c0,.81-.07,1.59-.22,2.35h0c-.25,1.35-.72,2.62-1.36,3.76h0c-.4.71-.87,1.37-1.4,1.97,0,0,0,0,0,0-1.93,2.19-4.64,3.55-7.65,3.55s-5.64-1.33-7.57-3.46c0,0,0,0,0,0-.55-.61-1.03-1.28-1.45-2,0,0,0,0,0,0-.46-.81-.84-1.68-1.11-2.61h0c-.18-.61-.31-1.24-.4-1.88h0c-.07-.55-.11-1.11-.11-1.68,0-.87.09-1.81.25-2.81.12-.73.28-1.48.48-2.24.32-1.2.73-2.43,1.23-3.62.36-.85.75-1.69,1.19-2.48,1.92-3.5,4.56-6.2,7.48-6.2,1.88,0,3.64,1.12,5.17,2.84.47.53.92,1.12,1.34,1.75.34.51.66,1.05.97,1.6h0c.43.79.83,1.62,1.19,2.47,1.17,2.79,1.88,5.8,1.96,8.23,0,.15,0,.3,0,.44Z"/><path class="cls-4" d="m115.37,174.48q.05.46.08.92v.33c.03,1.02-.06,1.82-.28,2.76-.02-.07-.04-.16-.06-.23-.32-1.31-.81-2.98-2.56-6.32,0,2.36-.19,4.13-1.16,6.74-1.11-1.6-2.27-3.18-3.33-4.81-.52,1.11-.63,1.34-1.29,2.5l-.38.63-.39.62c-.14.21-.43.66-.87,1.27-.02-.03-.06-.06-.08-.09-.5-.85-1.75-3.18-2.63-6.49-.03.06-.07.15-.11.21-1.19,2.38-2.12,4.06-3.31,6.18-.05-.1-.12-.23-.17-.33-.31-.61-1.12-2.24-1.49-4.51-.26.43-.6,1.01-.85,1.44-.41.73-.49.9-.82,1.57l-.22.49-.19.47-.16.45-.07.23c-.34-1.33-.35-2.31-.32-3.12l.02-.33c.02-.3.03-.37.07-.67-.07.47-.09.58-.14,1.06l-.03.35c-.13,1.87.07,3.48.64,5.19.04-.21.09-.5.14-.71l.15-.45.2-.46.24-.44.27-.39.3-.41.08-.11c.31,1.52.88,4.35,3.28,7.61.12-2.35,1.76-5.6,1.92-5.79q.06.03.93,1.36c.24.37.55.85.8,1.22.47.68.79,1.12,1.51,2.08.65-.86.99-1.31,1.54-2.08.25-.36.58-.85.82-1.22q.57-.88.93-1.4c.19.22,1.9,3.04,2.27,5.17,2.02-2.83,2.62-5.1,3.02-7,.02.03.05.08.08.11l.28.41q.23.36.46.83l.17.47.13.46c.04.22.09.51.11.73.09-.32.22-.74.3-1.06.35-1.57.43-2.78.28-4.47l-.04-.35c-.02-.19-.04-.36-.09-.62"/></g><g class="cls-3"><path class="cls-1" d="m185.55,177.76c0,.81-.07,1.59-.22,2.35h0c-.25,1.35-.72,2.62-1.36,3.76h0c-.4.71-.87,1.37-1.4,1.97,0,0,0,0,0,0-1.93,2.19-4.64,3.55-7.65,3.55s-5.64-1.33-7.57-3.46c0,0,0,0,0,0-.55-.61-1.03-1.28-1.45-2,0,0,0,0,0,0-.46-.81-.84-1.68-1.11-2.61h0c-.18-.61-.31-1.24-.4-1.88h0c-.07-.55-.11-1.11-.11-1.68,0-.87.09-1.81.25-2.81.12-.73.28-1.48.48-2.24.32-1.2.73-2.43,1.23-3.62.36-.85.75-1.69,1.19-2.48,1.92-3.5,4.56-6.2,7.48-6.2,1.88,0,3.64,1.12,5.17,2.84.47.53.92,1.12,1.34,1.75.34.51.66,1.05.97,1.6h0c.43.79.83,1.62,1.19,2.47,1.17,2.79,1.88,5.8,1.96,8.23,0,.15,0,.3,0,.44Z"/><path class="cls-4" d="m185.2,174.48q.05.46.08.92v.33c.03,1.02-.06,1.82-.28,2.76-.02-.07-.04-.16-.06-.23-.32-1.31-.81-2.98-2.56-6.32,0,2.36-.19,4.13-1.16,6.74-1.11-1.6-2.27-3.18-3.33-4.81-.52,1.11-.63,1.34-1.29,2.5l-.38.63-.39.62c-.14.21-.43.66-.87,1.27-.02-.03-.06-.06-.08-.09-.5-.85-1.75-3.18-2.63-6.49-.03.06-.07.15-.11.21-1.19,2.38-2.12,4.06-3.31,6.18-.05-.1-.12-.23-.17-.33-.31-.61-1.12-2.24-1.49-4.51-.26.43-.6,1.01-.85,1.44-.41.73-.49.9-.82,1.57l-.22.49-.19.47-.16.45-.07.23c-.34-1.33-.35-2.31-.32-3.12l.02-.33c.02-.3.03-.37.07-.67-.07.47-.09.58-.14,1.06l-.03.35c-.13,1.87.07,3.48.64,5.19.04-.21.09-.5.14-.71l.15-.45.2-.46.24-.44.27-.39.3-.41.08-.11c.31,1.52.88,4.35,3.28,7.61.12-2.35,1.76-5.6,1.92-5.79q.06.03.93,1.36c.24.37.55.85.8,1.22.47.68.79,1.12,1.51,2.08.65-.86.99-1.31,1.54-2.08.25-.36.58-.85.82-1.22q.57-.88.93-1.4c.19.22,1.9,3.04,2.27,5.17,2.02-2.83,2.62-5.1,3.02-7,.02.03.05.08.08.11l.28.41q.23.36.46.83l.17.47.13.46c.04.22.09.51.11.73.09-.32.22-.74.3-1.06.35-1.57.43-2.78.28-4.47l-.04-.35c-.02-.19-.04-.36-.09-.62"/></g><g class="cls-3"><path class="cls-1" d="m255.39,177.76c0,.81-.07,1.59-.22,2.35h0c-.25,1.35-.72,2.62-1.36,3.76h0c-.4.71-.87,1.37-1.4,1.97,0,0,0,0,0,0-1.93,2.19-4.64,3.55-7.65,3.55s-5.64-1.33-7.57-3.46c0,0,0,0,0,0-.55-.61-1.03-1.28-1.45-2,0,0,0,0,0,0-.46-.81-.84-1.68-1.11-2.61h0c-.18-.61-.31-1.24-.4-1.88h0c-.07-.55-.11-1.11-.11-1.68,0-.87.09-1.81.25-2.81.12-.73.28-1.48.48-2.24.32-1.2.73-2.43,1.23-3.62.36-.85.75-1.69,1.19-2.48,1.92-3.5,4.56-6.2,7.48-6.2,1.88,0,3.64,1.12,5.17,2.84.47.53.92,1.12,1.34,1.75.34.51.66,1.05.97,1.6h0c.43.79.83,1.62,1.19,2.47,1.17,2.79,1.88,5.8,1.96,8.23,0,.15,0,.3,0,.44Z"/><path class="cls-4" d="m255.04,174.48q.05.46.08.92v.33c.03,1.02-.06,1.82-.28,2.76-.02-.07-.04-.16-.06-.23-.32-1.31-.81-2.98-2.56-6.32,0,2.36-.19,4.13-1.16,6.74-1.11-1.6-2.27-3.18-3.33-4.81-.52,1.11-.63,1.34-1.29,2.5l-.38.63-.39.62c-.14.21-.43.66-.87,1.27-.02-.03-.06-.06-.08-.09-.5-.85-1.75-3.18-2.63-6.49-.03.06-.07.15-.11.21-1.19,2.38-2.12,4.06-3.31,6.18-.05-.1-.12-.23-.17-.33-.31-.61-1.12-2.24-1.49-4.51-.26.43-.6,1.01-.85,1.44-.41.73-.49.9-.82,1.57l-.22.49-.19.47-.16.45-.07.23c-.34-1.33-.35-2.31-.32-3.12l.02-.33c.02-.3.03-.37.07-.67-.07.47-.09.58-.14,1.06l-.03.35c-.13,1.87.07,3.48.64,5.19.04-.21.09-.5.14-.71l.15-.45.2-.46.24-.44.27-.39.3-.41.08-.11c.31,1.52.88,4.35,3.28,7.61.12-2.35,1.76-5.6,1.92-5.79q.06.03.93,1.36c.24.37.55.85.8,1.22.47.68.79,1.12,1.51,2.08.65-.86.99-1.31,1.54-2.08.25-.36.58-.85.82-1.22q.57-.88.93-1.4c.19.22,1.9,3.04,2.27,5.17,2.02-2.83,2.62-5.1,3.02-7,.02.03.05.08.08.11l.28.41q.23.36.46.83l.17.47.13.46c.04.22.09.51.11.73.09-.32.22-.74.3-1.06.35-1.57.43-2.78.28-4.47l-.04-.35c-.02-.19-.04-.36-.09-.62"/></g><g class="cls-3"><path class="cls-1" d="m325.22,177.76c0,.81-.07,1.59-.22,2.35h0c-.25,1.35-.72,2.62-1.36,3.76h0c-.4.71-.87,1.37-1.4,1.97,0,0,0,0,0,0-1.93,2.19-4.64,3.55-7.65,3.55s-5.64-1.33-7.57-3.46c0,0,0,0,0,0-.55-.61-1.03-1.28-1.45-2,0,0,0,0,0,0-.46-.81-.84-1.68-1.11-2.61h0c-.18-.61-.31-1.24-.4-1.88h0c-.07-.55-.11-1.11-.11-1.68,0-.87.09-1.81.25-2.81.12-.73.28-1.48.48-2.24.32-1.2.73-2.43,1.23-3.62.36-.85.75-1.69,1.19-2.48,1.92-3.5,4.56-6.2,7.48-6.2,1.88,0,3.64,1.12,5.17,2.84.47.53.92,1.12,1.34,1.75.34.51.66,1.05.97,1.6h0c.43.79.83,1.62,1.19,2.47,1.17,2.79,1.88,5.8,1.96,8.23,0,.15,0,.3,0,.44Z"/><path class="cls-4" d="m324.87,174.48q.05.46.08.92v.33c.03,1.02-.06,1.82-.28,2.76-.02-.07-.04-.16-.06-.23-.32-1.31-.81-2.98-2.56-6.32,0,2.36-.19,4.13-1.16,6.74-1.11-1.6-2.27-3.18-3.33-4.81-.52,1.11-.63,1.34-1.29,2.5l-.38.63-.39.62c-.14.21-.43.66-.87,1.27-.02-.03-.06-.06-.08-.09-.5-.85-1.75-3.18-2.63-6.49-.03.06-.07.15-.11.21-1.19,2.38-2.12,4.06-3.31,6.18-.05-.1-.12-.23-.17-.33-.31-.61-1.12-2.24-1.49-4.51-.26.43-.6,1.01-.85,1.44-.41.73-.49.9-.82,1.57l-.22.49-.19.47-.16.45-.07.23c-.34-1.33-.35-2.31-.32-3.12l.02-.33c.02-.3.03-.37.07-.67-.07.47-.09.58-.14,1.06l-.03.35c-.13,1.87.07,3.48.64,5.19.04-.21.09-.5.14-.71l.15-.45.2-.46.24-.44.27-.39.3-.41.08-.11c.31,1.52.88,4.35,3.28,7.61.12-2.35,1.76-5.6,1.92-5.79q.06.03.93,1.36c.24.37.55.85.8,1.22.47.68.79,1.12,1.51,2.08.65-.86.99-1.31,1.54-2.08.25-.36.58-.85.82-1.22q.57-.88.93-1.4c.19.22,1.9,3.04,2.27,5.17,2.02-2.83,2.62-5.1,3.02-7,.02.03.05.08.08.11l.28.41q.23.36.46.83l.17.47.13.46c.04.22.09.51.11.73.09-.32.22-.74.3-1.06.35-1.57.43-2.78.28-4.47l-.04-.35c-.02-.19-.04-.36-.09-.62"/></g><g class="cls-3"><path class="cls-1" d="m395.06,177.76c0,.81-.07,1.59-.22,2.35h0c-.25,1.35-.72,2.62-1.36,3.76h0c-.4.71-.87,1.37-1.4,1.97,0,0,0,0,0,0-1.93,2.19-4.64,3.55-7.65,3.55s-5.64-1.33-7.57-3.46c0,0,0,0,0,0-.55-.61-1.03-1.28-1.45-2,0,0,0,0,0,0-.46-.81-.84-1.68-1.11-2.61h0c-.18-.61-.31-1.24-.4-1.88h0c-.07-.55-.11-1.11-.11-1.68,0-.87.09-1.81.25-2.81.12-.73.28-1.48.48-2.24.32-1.2.73-2.43,1.23-3.62.36-.85.75-1.69,1.19-2.48,1.92-3.5,4.56-6.2,7.48-6.2,1.88,0,3.64,1.12,5.17,2.84.47.53.92,1.12,1.34,1.75.34.51.66,1.05.97,1.6h0c.43.79.83,1.62,1.19,2.47,1.17,2.79,1.88,5.8,1.96,8.23,0,.15,0,.3,0,.44Z"/><path class="cls-4" d="m394.71,174.48q.05.46.08.92v.33c.03,1.02-.06,1.82-.28,2.76-.02-.07-.04-.16-.06-.23-.32-1.31-.81-2.98-2.56-6.32,0,2.36-.19,4.13-1.16,6.74-1.11-1.6-2.27-3.18-3.33-4.81-.52,1.11-.63,1.34-1.29,2.5l-.38.63-.39.62c-.14.21-.43.66-.87,1.27-.02-.03-.06-.06-.08-.09-.5-.85-1.75-3.18-2.63-6.49-.03.06-.07.15-.11.21-1.19,2.38-2.12,4.06-3.31,6.18-.05-.1-.12-.23-.17-.33-.31-.61-1.12-2.24-1.49-4.51-.26.43-.6,1.01-.85,1.44-.41.73-.49.9-.82,1.57l-.22.49-.19.47-.16.45-.07.23c-.34-1.33-.35-2.31-.32-3.12l.02-.33c.02-.3.03-.37.07-.67-.07.47-.09.58-.14,1.06l-.03.35c-.13,1.87.07,3.48.64,5.19.04-.21.09-.5.14-.71l.15-.45.2-.46.24-.44.27-.39.3-.41.08-.11c.31,1.52.88,4.35,3.28,7.61.12-2.35,1.76-5.6,1.92-5.79q.06.03.93,1.36c.24.37.55.85.8,1.22.47.68.79,1.12,1.51,2.08.65-.86.99-1.31,1.54-2.08.25-.36.58-.85.82-1.22q.57-.88.93-1.4c.19.22,1.9,3.04,2.27,5.17,2.02-2.83,2.62-5.1,3.02-7,.02.03.05.08.08.11l.28.41q.23.36.46.83l.17.47.13.46c.04.22.09.51.11.73.09-.32.22-.74.3-1.06.35-1.57.43-2.78.28-4.47l-.04-.35c-.02-.19-.04-.36-.09-.62"/></g><g class="cls-3"><path class="cls-1" d="m45.89,247.98c0,.81-.07,1.59-.22,2.35h0c-.25,1.35-.72,2.62-1.36,3.76h0c-.4.71-.87,1.37-1.4,1.97,0,0,0,0,0,0-1.93,2.19-4.64,3.55-7.65,3.55s-5.64-1.33-7.57-3.46c0,0,0,0,0,0-.55-.61-1.03-1.28-1.45-2,0,0,0,0,0,0-.46-.81-.84-1.68-1.11-2.61h0c-.18-.61-.31-1.24-.4-1.88h0c-.07-.55-.11-1.11-.11-1.68,0-.87.09-1.81.25-2.81.12-.73.28-1.48.48-2.24.32-1.2.73-2.43,1.23-3.62.36-.85.75-1.69,1.19-2.48,1.92-3.5,4.56-6.2,7.48-6.2,1.88,0,3.64,1.12,5.17,2.84.47.53.92,1.12,1.34,1.75.34.51.66,1.05.97,1.6h0c.43.79.83,1.62,1.19,2.47,1.17,2.79,1.88,5.8,1.96,8.23,0,.15,0,.3,0,.44Z"/><path class="cls-4" d="m45.54,244.7q.05.46.08.92v.33c.03,1.02-.06,1.82-.28,2.76-.02-.07-.04-.16-.06-.23-.32-1.31-.81-2.98-2.56-6.32,0,2.36-.19,4.13-1.16,6.74-1.11-1.6-2.27-3.18-3.33-4.81-.52,1.11-.63,1.34-1.29,2.5l-.38.63-.39.62c-.14.21-.43.66-.87,1.27-.02-.03-.06-.06-.08-.09-.5-.85-1.75-3.18-2.63-6.49-.03.06-.07.15-.11.21-1.19,2.38-2.12,4.06-3.31,6.18-.05-.1-.12-.23-.17-.33-.31-.61-1.12-2.24-1.49-4.51-.26.43-.6,1.01-.85,1.44-.41.73-.49.9-.82,1.57l-.22.49-.19.47-.16.45-.07.23c-.34-1.33-.35-2.31-.32-3.12l.02-.33c.02-.3.03-.37.07-.67-.07.47-.09.58-.14,1.06l-.03.35c-.13,1.87.07,3.48.64,5.19.04-.21.09-.5.14-.71l.15-.45.2-.46.24-.44.27-.39.3-.41.08-.11c.31,1.52.88,4.35,3.28,7.61.12-2.35,1.76-5.6,1.92-5.79q.06.03.93,1.36c.24.37.55.85.8,1.22.47.68.79,1.12,1.51,2.08.65-.86.99-1.31,1.54-2.08.25-.36.58-.85.82-1.22q.57-.88.93-1.4c.19.22,1.9,3.04,2.27,5.17,2.02-2.83,2.62-5.1,3.02-7,.02.03.05.08.08.11l.28.41q.23.36.46.83l.17.47.13.46c.04.22.09.51.11.73.09-.32.22-.74.3-1.06.35-1.57.43-2.78.28-4.47l-.04-.35c-.02-.19-.04-.36-.09-.62"/></g><g class="cls-3"><path class="cls-1" d="m115.72,247.98c0,.81-.07,1.59-.22,2.35h0c-.25,1.35-.72,2.62-1.36,3.76h0c-.4.71-.87,1.37-1.4,1.97,0,0,0,0,0,0-1.93,2.19-4.64,3.55-7.65,3.55s-5.64-1.33-7.57-3.46c0,0,0,0,0,0-.55-.61-1.03-1.28-1.45-2,0,0,0,0,0,0-.46-.81-.84-1.68-1.11-2.61h0c-.18-.61-.31-1.24-.4-1.88h0c-.07-.55-.11-1.11-.11-1.68,0-.87.09-1.81.25-2.81.12-.73.28-1.48.48-2.24.32-1.2.73-2.43,1.23-3.62.36-.85.75-1.69,1.19-2.48,1.92-3.5,4.56-6.2,7.48-6.2,1.88,0,3.64,1.12,5.17,2.84.47.53.92,1.12,1.34,1.75.34.51.66,1.05.97,1.6h0c.43.79.83,1.62,1.19,2.47,1.17,2.79,1.88,5.8,1.96,8.23,0,.15,0,.3,0,.44Z"/><path class="cls-4" d="m115.37,244.7q.05.46.08.92v.33c.03,1.02-.06,1.82-.28,2.76-.02-.07-.04-.16-.06-.23-.32-1.31-.81-2.98-2.56-6.32,0,2.36-.19,4.13-1.16,6.74-1.11-1.6-2.27-3.18-3.33-4.81-.52,1.11-.63,1.34-1.29,2.5l-.38.63-.39.62c-.14.21-.43.66-.87,1.27-.02-.03-.06-.06-.08-.09-.5-.85-1.75-3.18-2.63-6.49-.03.06-.07.15-.11.21-1.19,2.38-2.12,4.06-3.31,6.18-.05-.1-.12-.23-.17-.33-.31-.61-1.12-2.24-1.49-4.51-.26.43-.6,1.01-.85,1.44-.41.73-.49.9-.82,1.57l-.22.49-.19.47-.16.45-.07.23c-.34-1.33-.35-2.31-.32-3.12l.02-.33c.02-.3.03-.37.07-.67-.07.47-.09.58-.14,1.06l-.03.35c-.13,1.87.07,3.48.64,5.19.04-.21.09-.5.14-.71l.15-.45.2-.46.24-.44.27-.39.3-.41.08-.11c.31,1.52.88,4.35,3.28,7.61.12-2.35,1.76-5.6,1.92-5.79q.06.03.93,1.36c.24.37.55.85.8,1.22.47.68.79,1.12,1.51,2.08.65-.86.99-1.31,1.54-2.08.25-.36.58-.85.82-1.22q.57-.88.93-1.4c.19.22,1.9,3.04,2.27,5.17,2.02-2.83,2.62-5.1,3.02-7,.02.03.05.08.08.11l.28.41q.23.36.46.83l.17.47.13.46c.04.22.09.51.11.73.09-.32.22-.74.3-1.06.35-1.57.43-2.78.28-4.47l-.04-.35c-.02-.19-.04-.36-.09-.62"/></g><g class="cls-3"><path class="cls-1" d="m185.55,247.98c0,.81-.07,1.59-.22,2.35h0c-.25,1.35-.72,2.62-1.36,3.76h0c-.4.71-.87,1.37-1.4,1.97,0,0,0,0,0,0-1.93,2.19-4.64,3.55-7.65,3.55s-5.64-1.33-7.57-3.46c0,0,0,0,0,0-.55-.61-1.03-1.28-1.45-2,0,0,0,0,0,0-.46-.81-.84-1.68-1.11-2.61h0c-.18-.61-.31-1.24-.4-1.88h0c-.07-.55-.11-1.11-.11-1.68,0-.87.09-1.81.25-2.81.12-.73.28-1.48.48-2.24.32-1.2.73-2.43,1.23-3.62.36-.85.75-1.69,1.19-2.48,1.92-3.5,4.56-6.2,7.48-6.2,1.88,0,3.64,1.12,5.17,2.84.47.53.92,1.12,1.34,1.75.34.51.66,1.05.97,1.6h0c.43.79.83,1.62,1.19,2.47,1.17,2.79,1.88,5.8,1.96,8.23,0,.15,0,.3,0,.44Z"/><path class="cls-4" d="m185.2,244.7q.05.46.08.92v.33c.03,1.02-.06,1.82-.28,2.76-.02-.07-.04-.16-.06-.23-.32-1.31-.81-2.98-2.56-6.32,0,2.36-.19,4.13-1.16,6.74-1.11-1.6-2.27-3.18-3.33-4.81-.52,1.11-.63,1.34-1.29,2.5l-.38.63-.39.62c-.14.21-.43.66-.87,1.27-.02-.03-.06-.06-.08-.09-.5-.85-1.75-3.18-2.63-6.49-.03.06-.07.15-.11.21-1.19,2.38-2.12,4.06-3.31,6.18-.05-.1-.12-.23-.17-.33-.31-.61-1.12-2.24-1.49-4.51-.26.43-.6,1.01-.85,1.44-.41.73-.49.9-.82,1.57l-.22.49-.19.47-.16.45-.07.23c-.34-1.33-.35-2.31-.32-3.12l.02-.33c.02-.3.03-.37.07-.67-.07.47-.09.58-.14,1.06l-.03.35c-.13,1.87.07,3.48.64,5.19.04-.21.09-.5.14-.71l.15-.45.2-.46.24-.44.27-.39.3-.41.08-.11c.31,1.52.88,4.35,3.28,7.61.12-2.35,1.76-5.6,1.92-5.79q.06.03.93,1.36c.24.37.55.85.8,1.22.47.68.79,1.12,1.51,2.08.65-.86.99-1.31,1.54-2.08.25-.36.58-.85.82-1.22q.57-.88.93-1.4c.19.22,1.9,3.04,2.27,5.17,2.02-2.83,2.62-5.1,3.02-7,.02.03.05.08.08.11l.28.41q.23.36.46.83l.17.47.13.46c.04.22.09.51.11.73.09-.32.22-.74.3-1.06.35-1.57.43-2.78.28-4.47l-.04-.35c-.02-.19-.04-.36-.09-.62"/></g><g class="cls-3"><path class="cls-1" d="m255.39,247.98c0,.81-.07,1.59-.22,2.35h0c-.25,1.35-.72,2.62-1.36,3.76h0c-.4.71-.87,1.37-1.4,1.97,0,0,0,0,0,0-1.93,2.19-4.64,3.55-7.65,3.55s-5.64-1.33-7.57-3.46c0,0,0,0,0,0-.55-.61-1.03-1.28-1.45-2,0,0,0,0,0,0-.46-.81-.84-1.68-1.11-2.61h0c-.18-.61-.31-1.24-.4-1.88h0c-.07-.55-.11-1.11-.11-1.68,0-.87.09-1.81.25-2.81.12-.73.28-1.48.48-2.24.32-1.2.73-2.43,1.23-3.62.36-.85.75-1.69,1.19-2.48,1.92-3.5,4.56-6.2,7.48-6.2,1.88,0,3.64,1.12,5.17,2.84.47.53.92,1.12,1.34,1.75.34.51.66,1.05.97,1.6h0c.43.79.83,1.62,1.19,2.47,1.17,2.79,1.88,5.8,1.96,8.23,0,.15,0,.3,0,.44Z"/><path class="cls-4" d="m255.04,244.7q.05.46.08.92v.33c.03,1.02-.06,1.82-.28,2.76-.02-.07-.04-.16-.06-.23-.32-1.31-.81-2.98-2.56-6.32,0,2.36-.19,4.13-1.16,6.74-1.11-1.6-2.27-3.18-3.33-4.81-.52,1.11-.63,1.34-1.29,2.5l-.38.63-.39.62c-.14.21-.43.66-.87,1.27-.02-.03-.06-.06-.08-.09-.5-.85-1.75-3.18-2.63-6.49-.03.06-.07.15-.11.21-1.19,2.38-2.12,4.06-3.31,6.18-.05-.1-.12-.23-.17-.33-.31-.61-1.12-2.24-1.49-4.51-.26.43-.6,1.01-.85,1.44-.41.73-.49.9-.82,1.57l-.22.49-.19.47-.16.45-.07.23c-.34-1.33-.35-2.31-.32-3.12l.02-.33c.02-.3.03-.37.07-.67-.07.47-.09.58-.14,1.06l-.03.35c-.13,1.87.07,3.48.64,5.19.04-.21.09-.5.14-.71l.15-.45.2-.46.24-.44.27-.39.3-.41.08-.11c.31,1.52.88,4.35,3.28,7.61.12-2.35,1.76-5.6,1.92-5.79q.06.03.93,1.36c.24.37.55.85.8,1.22.47.68.79,1.12,1.51,2.08.65-.86.99-1.31,1.54-2.08.25-.36.58-.85.82-1.22q.57-.88.93-1.4c.19.22,1.9,3.04,2.27,5.17,2.02-2.83,2.62-5.1,3.02-7,.02.03.05.08.08.11l.28.41q.23.36.46.83l.17.47.13.46c.04.22.09.51.11.73.09-.32.22-.74.3-1.06.35-1.57.43-2.78.28-4.47l-.04-.35c-.02-.19-.04-.36-.09-.62"/></g><g class="cls-3"><path class="cls-1" d="m325.22,247.98c0,.81-.07,1.59-.22,2.35h0c-.25,1.35-.72,2.62-1.36,3.76h0c-.4.71-.87,1.37-1.4,1.97,0,0,0,0,0,0-1.93,2.19-4.64,3.55-7.65,3.55s-5.64-1.33-7.57-3.46c0,0,0,0,0,0-.55-.61-1.03-1.28-1.45-2,0,0,0,0,0,0-.46-.81-.84-1.68-1.11-2.61h0c-.18-.61-.31-1.24-.4-1.88h0c-.07-.55-.11-1.11-.11-1.68,0-.87.09-1.81.25-2.81.12-.73.28-1.48.48-2.24.32-1.2.73-2.43,1.23-3.62.36-.85.75-1.69,1.19-2.48,1.92-3.5,4.56-6.2,7.48-6.2,1.88,0,3.64,1.12,5.17,2.84.47.53.92,1.12,1.34,1.75.34.51.66,1.05.97,1.6h0c.43.79.83,1.62,1.19,2.47,1.17,2.79,1.88,5.8,1.96,8.23,0,.15,0,.3,0,.44Z"/><path class="cls-4" d="m324.87,244.7q.05.46.08.92v.33c.03,1.02-.06,1.82-.28,2.76-.02-.07-.04-.16-.06-.23-.32-1.31-.81-2.98-2.56-6.32,0,2.36-.19,4.13-1.16,6.74-1.11-1.6-2.27-3.18-3.33-4.81-.52,1.11-.63,1.34-1.29,2.5l-.38.63-.39.62c-.14.21-.43.66-.87,1.27-.02-.03-.06-.06-.08-.09-.5-.85-1.75-3.18-2.63-6.49-.03.06-.07.15-.11.21-1.19,2.38-2.12,4.06-3.31,6.18-.05-.1-.12-.23-.17-.33-.31-.61-1.12-2.24-1.49-4.51-.26.43-.6,1.01-.85,1.44-.41.73-.49.9-.82,1.57l-.22.49-.19.47-.16.45-.07.23c-.34-1.33-.35-2.31-.32-3.12l.02-.33c.02-.3.03-.37.07-.67-.07.47-.09.58-.14,1.06l-.03.35c-.13,1.87.07,3.48.64,5.19.04-.21.09-.5.14-.71l.15-.45.2-.46.24-.44.27-.39.3-.41.08-.11c.31,1.52.88,4.35,3.28,7.61.12-2.35,1.76-5.6,1.92-5.79q.06.03.93,1.36c.24.37.55.85.8,1.22.47.68.79,1.12,1.51,2.08.65-.86.99-1.31,1.54-2.08.25-.36.58-.85.82-1.22q.57-.88.93-1.4c.19.22,1.9,3.04,2.27,5.17,2.02-2.83,2.62-5.1,3.02-7,.02.03.05.08.08.11l.28.41q.23.36.46.83l.17.47.13.46c.04.22.09.51.11.73.09-.32.22-.74.3-1.06.35-1.57.43-2.78.28-4.47l-.04-.35c-.02-.19-.04-.36-.09-.62"/></g><g class="cls-3"><path class="cls-1" d="m395.06,247.98c0,.81-.07,1.59-.22,2.35h0c-.25,1.35-.72,2.62-1.36,3.76h0c-.4.71-.87,1.37-1.4,1.97,0,0,0,0,0,0-1.93,2.19-4.64,3.55-7.65,3.55s-5.64-1.33-7.57-3.46c0,0,0,0,0,0-.55-.61-1.03-1.28-1.45-2,0,0,0,0,0,0-.46-.81-.84-1.68-1.11-2.61h0c-.18-.61-.31-1.24-.4-1.88h0c-.07-.55-.11-1.11-.11-1.68,0-.87.09-1.81.25-2.81.12-.73.28-1.48.48-2.24.32-1.2.73-2.43,1.23-3.62.36-.85.75-1.69,1.19-2.48,1.92-3.5,4.56-6.2,7.48-6.2,1.88,0,3.64,1.12,5.17,2.84.47.53.92,1.12,1.34,1.75.34.51.66,1.05.97,1.6h0c.43.79.83,1.62,1.19,2.47,1.17,2.79,1.88,5.8,1.96,8.23,0,.15,0,.3,0,.44Z"/><path class="cls-4" d="m394.71,244.7q.05.46.08.92v.33c.03,1.02-.06,1.82-.28,2.76-.02-.07-.04-.16-.06-.23-.32-1.31-.81-2.98-2.56-6.32,0,2.36-.19,4.13-1.16,6.74-1.11-1.6-2.27-3.18-3.33-4.81-.52,1.11-.63,1.34-1.29,2.5l-.38.63-.39.62c-.14.21-.43.66-.87,1.27-.02-.03-.06-.06-.08-.09-.5-.85-1.75-3.18-2.63-6.49-.03.06-.07.15-.11.21-1.19,2.38-2.12,4.06-3.31,6.18-.05-.1-.12-.23-.17-.33-.31-.61-1.12-2.24-1.49-4.51-.26.43-.6,1.01-.85,1.44-.41.73-.49.9-.82,1.57l-.22.49-.19.47-.16.45-.07.23c-.34-1.33-.35-2.31-.32-3.12l.02-.33c.02-.3.03-.37.07-.67-.07.47-.09.58-.14,1.06l-.03.35c-.13,1.87.07,3.48.64,5.19.04-.21.09-.5.14-.71l.15-.45.2-.46.24-.44.27-.39.3-.41.08-.11c.31,1.52.88,4.35,3.28,7.61.12-2.35,1.76-5.6,1.92-5.79q.06.03.93,1.36c.24.37.55.85.8,1.22.47.68.79,1.12,1.51,2.08.65-.86.99-1.31,1.54-2.08.25-.36.58-.85.82-1.22q.57-.88.93-1.4c.19.22,1.9,3.04,2.27,5.17,2.02-2.83,2.62-5.1,3.02-7,.02.03.05.08.08.11l.28.41q.23.36.46.83l.17.47.13.46c.04.22.09.51.11.73.09-.32.22-.74.3-1.06.35-1.57.43-2.78.28-4.47l-.04-.35c-.02-.19-.04-.36-.09-.62"/></g><g class="cls-3"><path class="cls-1" d="m45.89,318.21c0,.81-.07,1.59-.22,2.35h0c-.25,1.35-.72,2.62-1.36,3.76h0c-.4.71-.87,1.37-1.4,1.97,0,0,0,0,0,0-1.93,2.19-4.64,3.55-7.65,3.55s-5.64-1.33-7.57-3.46c0,0,0,0,0,0-.55-.61-1.03-1.28-1.45-2,0,0,0,0,0,0-.46-.81-.84-1.68-1.11-2.61h0c-.18-.61-.31-1.24-.4-1.88h0c-.07-.55-.11-1.11-.11-1.68,0-.87.09-1.81.25-2.81.12-.73.28-1.48.48-2.24.32-1.2.73-2.43,1.23-3.62.36-.85.75-1.69,1.19-2.48,1.92-3.5,4.56-6.2,7.48-6.2,1.88,0,3.64,1.12,5.17,2.84.47.53.92,1.12,1.34,1.75.34.51.66,1.05.97,1.6h0c.43.79.83,1.62,1.19,2.47,1.17,2.79,1.88,5.8,1.96,8.23,0,.15,0,.3,0,.44Z"/><path class="cls-4" d="m45.54,314.93q.05.46.08.92v.33c.03,1.02-.06,1.82-.28,2.76-.02-.07-.04-.16-.06-.23-.32-1.31-.81-2.98-2.56-6.32,0,2.36-.19,4.13-1.16,6.74-1.11-1.6-2.27-3.18-3.33-4.81-.52,1.11-.63,1.34-1.29,2.5l-.38.63-.39.62c-.14.21-.43.66-.87,1.27-.02-.03-.06-.06-.08-.09-.5-.85-1.75-3.18-2.63-6.49-.03.06-.07.15-.11.21-1.19,2.38-2.12,4.06-3.31,6.18-.05-.1-.12-.23-.17-.33-.31-.61-1.12-2.24-1.49-4.51-.26.43-.6,1.01-.85,1.44-.41.73-.49.9-.82,1.57l-.22.49-.19.47-.16.45-.07.23c-.34-1.33-.35-2.31-.32-3.12l.02-.33c.02-.3.03-.37.07-.67-.07.47-.09.58-.14,1.06l-.03.35c-.13,1.87.07,3.48.64,5.19.04-.21.09-.5.14-.71l.15-.45.2-.46.24-.44.27-.39.3-.41.08-.11c.31,1.52.88,4.35,3.28,7.61.12-2.35,1.76-5.6,1.92-5.79q.06.03.93,1.36c.24.37.55.85.8,1.22.47.68.79,1.12,1.51,2.08.65-.86.99-1.31,1.54-2.08.25-.36.58-.85.82-1.22q.57-.88.93-1.4c.19.22,1.9,3.04,2.27,5.17,2.02-2.83,2.62-5.1,3.02-7,.02.03.05.08.08.11l.28.41q.23.36.46.83l.17.47.13.46c.04.22.09.51.11.73.09-.32.22-.74.3-1.06.35-1.57.43-2.78.28-4.47l-.04-.35c-.02-.19-.04-.36-.09-.62"/></g><g class="cls-3"><path class="cls-1" d="m115.72,318.21c0,.81-.07,1.59-.22,2.35h0c-.25,1.35-.72,2.62-1.36,3.76h0c-.4.71-.87,1.37-1.4,1.97,0,0,0,0,0,0-1.93,2.19-4.64,3.55-7.65,3.55s-5.64-1.33-7.57-3.46c0,0,0,0,0,0-.55-.61-1.03-1.28-1.45-2,0,0,0,0,0,0-.46-.81-.84-1.68-1.11-2.61h0c-.18-.61-.31-1.24-.4-1.88h0c-.07-.55-.11-1.11-.11-1.68,0-.87.09-1.81.25-2.81.12-.73.28-1.48.48-2.24.32-1.2.73-2.43,1.23-3.62.36-.85.75-1.69,1.19-2.48,1.92-3.5,4.56-6.2,7.48-6.2,1.88,0,3.64,1.12,5.17,2.84.47.53.92,1.12,1.34,1.75.34.51.66,1.05.97,1.6h0c.43.79.83,1.62,1.19,2.47,1.17,2.79,1.88,5.8,1.96,8.23,0,.15,0,.3,0,.44Z"/><path class="cls-4" d="m115.37,314.93q.05.46.08.92v.33c.03,1.02-.06,1.82-.28,2.76-.02-.07-.04-.16-.06-.23-.32-1.31-.81-2.98-2.56-6.32,0,2.36-.19,4.13-1.16,6.74-1.11-1.6-2.27-3.18-3.33-4.81-.52,1.11-.63,1.34-1.29,2.5l-.38.63-.39.62c-.14.21-.43.66-.87,1.27-.02-.03-.06-.06-.08-.09-.5-.85-1.75-3.18-2.63-6.49-.03.06-.07.15-.11.21-1.19,2.38-2.12,4.06-3.31,6.18-.05-.1-.12-.23-.17-.33-.31-.61-1.12-2.24-1.49-4.51-.26.43-.6,1.01-.85,1.44-.41.73-.49.9-.82,1.57l-.22.49-.19.47-.16.45-.07.23c-.34-1.33-.35-2.31-.32-3.12l.02-.33c.02-.3.03-.37.07-.67-.07.47-.09.58-.14,1.06l-.03.35c-.13,1.87.07,3.48.64,5.19.04-.21.09-.5.14-.71l.15-.45.2-.46.24-.44.27-.39.3-.41.08-.11c.31,1.52.88,4.35,3.28,7.61.12-2.35,1.76-5.6,1.92-5.79q.06.03.93,1.36c.24.37.55.85.8,1.22.47.68.79,1.12,1.51,2.08.65-.86.99-1.31,1.54-2.08.25-.36.58-.85.82-1.22q.57-.88.93-1.4c.19.22,1.9,3.04,2.27,5.17,2.02-2.83,2.62-5.1,3.02-7,.02.03.05.08.08.11l.28.41q.23.36.46.83l.17.47.13.46c.04.22.09.51.11.73.09-.32.22-.74.3-1.06.35-1.57.43-2.78.28-4.47l-.04-.35c-.02-.19-.04-.36-.09-.62"/></g><g class="cls-3"><path class="cls-1" d="m185.55,318.21c0,.81-.07,1.59-.22,2.35h0c-.25,1.35-.72,2.62-1.36,3.76h0c-.4.71-.87,1.37-1.4,1.97,0,0,0,0,0,0-1.93,2.19-4.64,3.55-7.65,3.55s-5.64-1.33-7.57-3.46c0,0,0,0,0,0-.55-.61-1.03-1.28-1.45-2,0,0,0,0,0,0-.46-.81-.84-1.68-1.11-2.61h0c-.18-.61-.31-1.24-.4-1.88h0c-.07-.55-.11-1.11-.11-1.68,0-.87.09-1.81.25-2.81.12-.73.28-1.48.48-2.24.32-1.2.73-2.43,1.23-3.62.36-.85.75-1.69,1.19-2.48,1.92-3.5,4.56-6.2,7.48-6.2,1.88,0,3.64,1.12,5.17,2.84.47.53.92,1.12,1.34,1.75.34.51.66,1.05.97,1.6h0c.43.79.83,1.62,1.19,2.47,1.17,2.79,1.88,5.8,1.96,8.23,0,.15,0,.3,0,.44Z"/><path class="cls-4" d="m185.2,314.93q.05.46.08.92v.33c.03,1.02-.06,1.82-.28,2.76-.02-.07-.04-.16-.06-.23-.32-1.31-.81-2.98-2.56-6.32,0,2.36-.19,4.13-1.16,6.74-1.11-1.6-2.27-3.18-3.33-4.81-.52,1.11-.63,1.34-1.29,2.5l-.38.63-.39.62c-.14.21-.43.66-.87,1.27-.02-.03-.06-.06-.08-.09-.5-.85-1.75-3.18-2.63-6.49-.03.06-.07.15-.11.21-1.19,2.38-2.12,4.06-3.31,6.18-.05-.1-.12-.23-.17-.33-.31-.61-1.12-2.24-1.49-4.51-.26.43-.6,1.01-.85,1.44-.41.73-.49.9-.82,1.57l-.22.49-.19.47-.16.45-.07.23c-.34-1.33-.35-2.31-.32-3.12l.02-.33c.02-.3.03-.37.07-.67-.07.47-.09.58-.14,1.06l-.03.35c-.13,1.87.07,3.48.64,5.19.04-.21.09-.5.14-.71l.15-.45.2-.46.24-.44.27-.39.3-.41.08-.11c.31,1.52.88,4.35,3.28,7.61.12-2.35,1.76-5.6,1.92-5.79q.06.03.93,1.36c.24.37.55.85.8,1.22.47.68.79,1.12,1.51,2.08.65-.86.99-1.31,1.54-2.08.25-.36.58-.85.82-1.22q.57-.88.93-1.4c.19.22,1.9,3.04,2.27,5.17,2.02-2.83,2.62-5.1,3.02-7,.02.03.05.08.08.11l.28.41q.23.36.46.83l.17.47.13.46c.04.22.09.51.11.73.09-.32.22-.74.3-1.06.35-1.57.43-2.78.28-4.47l-.04-.35c-.02-.19-.04-.36-.09-.62"/></g><g class="cls-3"><path class="cls-1" d="m255.39,318.21c0,.81-.07,1.59-.22,2.35h0c-.25,1.35-.72,2.62-1.36,3.76h0c-.4.71-.87,1.37-1.4,1.97,0,0,0,0,0,0-1.93,2.19-4.64,3.55-7.65,3.55s-5.64-1.33-7.57-3.46c0,0,0,0,0,0-.55-.61-1.03-1.28-1.45-2,0,0,0,0,0,0-.46-.81-.84-1.68-1.11-2.61h0c-.18-.61-.31-1.24-.4-1.88h0c-.07-.55-.11-1.11-.11-1.68,0-.87.09-1.81.25-2.81.12-.73.28-1.48.48-2.24.32-1.2.73-2.43,1.23-3.62.36-.85.75-1.69,1.19-2.48,1.92-3.5,4.56-6.2,7.48-6.2,1.88,0,3.64,1.12,5.17,2.84.47.53.92,1.12,1.34,1.75.34.51.66,1.05.97,1.6h0c.43.79.83,1.62,1.19,2.47,1.17,2.79,1.88,5.8,1.96,8.23,0,.15,0,.3,0,.44Z"/><path class="cls-4" d="m255.04,314.93q.05.46.08.92v.33c.03,1.02-.06,1.82-.28,2.76-.02-.07-.04-.16-.06-.23-.32-1.31-.81-2.98-2.56-6.32,0,2.36-.19,4.13-1.16,6.74-1.11-1.6-2.27-3.18-3.33-4.81-.52,1.11-.63,1.34-1.29,2.5l-.38.63-.39.62c-.14.21-.43.66-.87,1.27-.02-.03-.06-.06-.08-.09-.5-.85-1.75-3.18-2.63-6.49-.03.06-.07.15-.11.21-1.19,2.38-2.12,4.06-3.31,6.18-.05-.1-.12-.23-.17-.33-.31-.61-1.12-2.24-1.49-4.51-.26.43-.6,1.01-.85,1.44-.41.73-.49.9-.82,1.57l-.22.49-.19.47-.16.45-.07.23c-.34-1.33-.35-2.31-.32-3.12l.02-.33c.02-.3.03-.37.07-.67-.07.47-.09.58-.14,1.06l-.03.35c-.13,1.87.07,3.48.64,5.19.04-.21.09-.5.14-.71l.15-.45.2-.46.24-.44.27-.39.3-.41.08-.11c.31,1.52.88,4.35,3.28,7.61.12-2.35,1.76-5.6,1.92-5.79q.06.03.93,1.36c.24.37.55.85.8,1.22.47.68.79,1.12,1.51,2.08.65-.86.99-1.31,1.54-2.08.25-.36.58-.85.82-1.22q.57-.88.93-1.4c.19.22,1.9,3.04,2.27,5.17,2.02-2.83,2.62-5.1,3.02-7,.02.03.05.08.08.11l.28.41q.23.36.46.83l.17.47.13.46c.04.22.09.51.11.73.09-.32.22-.74.3-1.06.35-1.57.43-2.78.28-4.47l-.04-.35c-.02-.19-.04-.36-.09-.62"/></g><g class="cls-3"><path class="cls-1" d="m325.22,318.21c0,.81-.07,1.59-.22,2.35h0c-.25,1.35-.72,2.62-1.36,3.76h0c-.4.71-.87,1.37-1.4,1.97,0,0,0,0,0,0-1.93,2.19-4.64,3.55-7.65,3.55s-5.64-1.33-7.57-3.46c0,0,0,0,0,0-.55-.61-1.03-1.28-1.45-2,0,0,0,0,0,0-.46-.81-.84-1.68-1.11-2.61h0c-.18-.61-.31-1.24-.4-1.88h0c-.07-.55-.11-1.11-.11-1.68,0-.87.09-1.81.25-2.81.12-.73.28-1.48.48-2.24.32-1.2.73-2.43,1.23-3.62.36-.85.75-1.69,1.19-2.48,1.92-3.5,4.56-6.2,7.48-6.2,1.88,0,3.64,1.12,5.17,2.84.47.53.92,1.12,1.34,1.75.34.51.66,1.05.97,1.6h0c.43.79.83,1.62,1.19,2.47,1.17,2.79,1.88,5.8,1.96,8.23,0,.15,0,.3,0,.44Z"/><path class="cls-4" d="m324.87,314.93q.05.46.08.92v.33c.03,1.02-.06,1.82-.28,2.76-.02-.07-.04-.16-.06-.23-.32-1.31-.81-2.98-2.56-6.32,0,2.36-.19,4.13-1.16,6.74-1.11-1.6-2.27-3.18-3.33-4.81-.52,1.11-.63,1.34-1.29,2.5l-.38.63-.39.62c-.14.21-.43.66-.87,1.27-.02-.03-.06-.06-.08-.09-.5-.85-1.75-3.18-2.63-6.49-.03.06-.07.15-.11.21-1.19,2.38-2.12,4.06-3.31,6.18-.05-.1-.12-.23-.17-.33-.31-.61-1.12-2.24-1.49-4.51-.26.43-.6,1.01-.85,1.44-.41.73-.49.9-.82,1.57l-.22.49-.19.47-.16.45-.07.23c-.34-1.33-.35-2.31-.32-3.12l.02-.33c.02-.3.03-.37.07-.67-.07.47-.09.58-.14,1.06l-.03.35c-.13,1.87.07,3.48.64,5.19.04-.21.09-.5.14-.71l.15-.45.2-.46.24-.44.27-.39.3-.41.08-.11c.31,1.52.88,4.35,3.28,7.61.12-2.35,1.76-5.6,1.92-5.79q.06.03.93,1.36c.24.37.55.85.8,1.22.47.68.79,1.12,1.51,2.08.65-.86.99-1.31,1.54-2.08.25-.36.58-.85.82-1.22q.57-.88.93-1.4c.19.22,1.9,3.04,2.27,5.17,2.02-2.83,2.62-5.1,3.02-7,.02.03.05.08.08.11l.28.41q.23.36.46.83l.17.47.13.46c.04.22.09.51.11.73.09-.32.22-.74.3-1.06.35-1.57.43-2.78.28-4.47l-.04-.35c-.02-.19-.04-.36-.09-.62"/></g><g class="cls-3"><path class="cls-1" d="m395.06,318.21c0,.81-.07,1.59-.22,2.35h0c-.25,1.35-.72,2.62-1.36,3.76h0c-.4.71-.87,1.37-1.4,1.97,0,0,0,0,0,0-1.93,2.19-4.64,3.55-7.65,3.55s-5.64-1.33-7.57-3.46c0,0,0,0,0,0-.55-.61-1.03-1.28-1.45-2,0,0,0,0,0,0-.46-.81-.84-1.68-1.11-2.61h0c-.18-.61-.31-1.24-.4-1.88h0c-.07-.55-.11-1.11-.11-1.68,0-.87.09-1.81.25-2.81.12-.73.28-1.48.48-2.24.32-1.2.73-2.43,1.23-3.62.36-.85.75-1.69,1.19-2.48,1.92-3.5,4.56-6.2,7.48-6.2,1.88,0,3.64,1.12,5.17,2.84.47.53.92,1.12,1.34,1.75.34.51.66,1.05.97,1.6h0c.43.79.83,1.62,1.19,2.47,1.17,2.79,1.88,5.8,1.96,8.23,0,.15,0,.3,0,.44Z"/><path class="cls-4" d="m394.71,314.93q.05.46.08.92v.33c.03,1.02-.06,1.82-.28,2.76-.02-.07-.04-.16-.06-.23-.32-1.31-.81-2.98-2.56-6.32,0,2.36-.19,4.13-1.16,6.74-1.11-1.6-2.27-3.18-3.33-4.81-.52,1.11-.63,1.34-1.29,2.5l-.38.63-.39.62c-.14.21-.43.66-.87,1.27-.02-.03-.06-.06-.08-.09-.5-.85-1.75-3.18-2.63-6.49-.03.06-.07.15-.11.21-1.19,2.38-2.12,4.06-3.31,6.18-.05-.1-.12-.23-.17-.33-.31-.61-1.12-2.24-1.49-4.51-.26.43-.6,1.01-.85,1.44-.41.73-.49.9-.82,1.57l-.22.49-.19.47-.16.45-.07.23c-.34-1.33-.35-2.31-.32-3.12l.02-.33c.02-.3.03-.37.07-.67-.07.47-.09.58-.14,1.06l-.03.35c-.13,1.87.07,3.48.64,5.19.04-.21.09-.5.14-.71l.15-.45.2-.46.24-.44.27-.39.3-.41.08-.11c.31,1.52.88,4.35,3.28,7.61.12-2.35,1.76-5.6,1.92-5.79q.06.03.93,1.36c.24.37.55.85.8,1.22.47.68.79,1.12,1.51,2.08.65-.86.99-1.31,1.54-2.08.25-.36.58-.85.82-1.22q.57-.88.93-1.4c.19.22,1.9,3.04,2.27,5.17,2.02-2.83,2.62-5.1,3.02-7,.02.03.05.08.08.11l.28.41q.23.36.46.83l.17.47.13.46c.04.22.09.51.11.73.09-.32.22-.74.3-1.06.35-1.57.43-2.78.28-4.47l-.04-.35c-.02-.19-.04-.36-.09-.62"/></g><g class="cls-3"><path class="cls-1" d="m45.89,388.44c0,.81-.07,1.59-.22,2.35h0c-.25,1.35-.72,2.62-1.36,3.76h0c-.4.71-.87,1.37-1.4,1.97,0,0,0,0,0,0-1.93,2.19-4.64,3.55-7.65,3.55s-5.64-1.33-7.57-3.46c0,0,0,0,0,0-.55-.61-1.03-1.28-1.45-2,0,0,0,0,0,0-.46-.81-.84-1.68-1.11-2.61h0c-.18-.61-.31-1.24-.4-1.88h0c-.07-.55-.11-1.11-.11-1.68,0-.87.09-1.81.25-2.81.12-.73.28-1.48.48-2.24.32-1.2.73-2.43,1.23-3.62.36-.85.75-1.69,1.19-2.48,1.92-3.5,4.56-6.2,7.48-6.2,1.88,0,3.64,1.12,5.17,2.84.47.53.92,1.12,1.34,1.75.34.51.66,1.05.97,1.6h0c.43.79.83,1.62,1.19,2.47,1.17,2.79,1.88,5.8,1.96,8.23,0,.15,0,.3,0,.44Z"/><path class="cls-4" d="m45.54,385.16q.05.46.08.92v.33c.03,1.02-.06,1.82-.28,2.76-.02-.07-.04-.16-.06-.23-.32-1.31-.81-2.98-2.56-6.32,0,2.36-.19,4.13-1.16,6.74-1.11-1.6-2.27-3.18-3.33-4.81-.52,1.11-.63,1.34-1.29,2.5l-.38.63-.39.62c-.14.21-.43.66-.87,1.27-.02-.03-.06-.06-.08-.09-.5-.85-1.75-3.18-2.63-6.49-.03.06-.07.15-.11.21-1.19,2.38-2.12,4.06-3.31,6.18-.05-.1-.12-.23-.17-.33-.31-.61-1.12-2.24-1.49-4.51-.26.43-.6,1.01-.85,1.44-.41.73-.49.9-.82,1.57l-.22.49-.19.47-.16.45-.07.23c-.34-1.33-.35-2.31-.32-3.12l.02-.33c.02-.3.03-.37.07-.67-.07.47-.09.58-.14,1.06l-.03.35c-.13,1.87.07,3.48.64,5.19.04-.21.09-.5.14-.71l.15-.45.2-.46.24-.44.27-.39.3-.41.08-.11c.31,1.52.88,4.35,3.28,7.61.12-2.35,1.76-5.6,1.92-5.79q.06.03.93,1.36c.24.37.55.85.8,1.22.47.68.79,1.12,1.51,2.08.65-.86.99-1.31,1.54-2.08.25-.36.58-.85.82-1.22q.57-.88.93-1.4c.19.22,1.9,3.04,2.27,5.17,2.02-2.83,2.62-5.1,3.02-7,.02.03.05.08.08.11l.28.41q.23.36.46.83l.17.47.13.46c.04.22.09.51.11.73.09-.32.22-.74.3-1.06.35-1.57.43-2.78.28-4.47l-.04-.35c-.02-.19-.04-.36-.09-.62"/></g><g class="cls-3"><path class="cls-1" d="m115.72,388.44c0,.81-.07,1.59-.22,2.35h0c-.25,1.35-.72,2.62-1.36,3.76h0c-.4.71-.87,1.37-1.4,1.97,0,0,0,0,0,0-1.93,2.19-4.64,3.55-7.65,3.55s-5.64-1.33-7.57-3.46c0,0,0,0,0,0-.55-.61-1.03-1.28-1.45-2,0,0,0,0,0,0-.46-.81-.84-1.68-1.11-2.61h0c-.18-.61-.31-1.24-.4-1.88h0c-.07-.55-.11-1.11-.11-1.68,0-.87.09-1.81.25-2.81.12-.73.28-1.48.48-2.24.32-1.2.73-2.43,1.23-3.62.36-.85.75-1.69,1.19-2.48,1.92-3.5,4.56-6.2,7.48-6.2,1.88,0,3.64,1.12,5.17,2.84.47.53.92,1.12,1.34,1.75.34.51.66,1.05.97,1.6h0c.43.79.83,1.62,1.19,2.47,1.17,2.79,1.88,5.8,1.96,8.23,0,.15,0,.3,0,.44Z"/><path class="cls-4" d="m115.37,385.16q.05.46.08.92v.33c.03,1.02-.06,1.82-.28,2.76-.02-.07-.04-.16-.06-.23-.32-1.31-.81-2.98-2.56-6.32,0,2.36-.19,4.13-1.16,6.74-1.11-1.6-2.27-3.18-3.33-4.81-.52,1.11-.63,1.34-1.29,2.5l-.38.63-.39.62c-.14.21-.43.66-.87,1.27-.02-.03-.06-.06-.08-.09-.5-.85-1.75-3.18-2.63-6.49-.03.06-.07.15-.11.21-1.19,2.38-2.12,4.06-3.31,6.18-.05-.1-.12-.23-.17-.33-.31-.61-1.12-2.24-1.49-4.51-.26.43-.6,1.01-.85,1.44-.41.73-.49.9-.82,1.57l-.22.49-.19.47-.16.45-.07.23c-.34-1.33-.35-2.31-.32-3.12l.02-.33c.02-.3.03-.37.07-.67-.07.47-.09.58-.14,1.06l-.03.35c-.13,1.87.07,3.48.64,5.19.04-.21.09-.5.14-.71l.15-.45.2-.46.24-.44.27-.39.3-.41.08-.11c.31,1.52.88,4.35,3.28,7.61.12-2.35,1.76-5.6,1.92-5.79q.06.03.93,1.36c.24.37.55.85.8,1.22.47.68.79,1.12,1.51,2.08.65-.86.99-1.31,1.54-2.08.25-.36.58-.85.82-1.22q.57-.88.93-1.4c.19.22,1.9,3.04,2.27,5.17,2.02-2.83,2.62-5.1,3.02-7,.02.03.05.08.08.11l.28.41q.23.36.46.83l.17.47.13.46c.04.22.09.51.11.73.09-.32.22-.74.3-1.06.35-1.57.43-2.78.28-4.47l-.04-.35c-.02-.19-.04-.36-.09-.62"/></g><g class="cls-3"><path class="cls-1" d="m185.55,388.44c0,.81-.07,1.59-.22,2.35h0c-.25,1.35-.72,2.62-1.36,3.76h0c-.4.71-.87,1.37-1.4,1.97,0,0,0,0,0,0-1.93,2.19-4.64,3.55-7.65,3.55s-5.64-1.33-7.57-3.46c0,0,0,0,0,0-.55-.61-1.03-1.28-1.45-2,0,0,0,0,0,0-.46-.81-.84-1.68-1.11-2.61h0c-.18-.61-.31-1.24-.4-1.88h0c-.07-.55-.11-1.11-.11-1.68,0-.87.09-1.81.25-2.81.12-.73.28-1.48.48-2.24.32-1.2.73-2.43,1.23-3.62.36-.85.75-1.69,1.19-2.48,1.92-3.5,4.56-6.2,7.48-6.2,1.88,0,3.64,1.12,5.17,2.84.47.53.92,1.12,1.34,1.75.34.51.66,1.05.97,1.6h0c.43.79.83,1.62,1.19,2.47,1.17,2.79,1.88,5.8,1.96,8.23,0,.15,0,.3,0,.44Z"/><path class="cls-4" d="m185.2,385.16q.05.46.08.92v.33c.03,1.02-.06,1.82-.28,2.76-.02-.07-.04-.16-.06-.23-.32-1.31-.81-2.98-2.56-6.32,0,2.36-.19,4.13-1.16,6.74-1.11-1.6-2.27-3.18-3.33-4.81-.52,1.11-.63,1.34-1.29,2.5l-.38.63-.39.62c-.14.21-.43.66-.87,1.27-.02-.03-.06-.06-.08-.09-.5-.85-1.75-3.18-2.63-6.49-.03.06-.07.15-.11.21-1.19,2.38-2.12,4.06-3.31,6.18-.05-.1-.12-.23-.17-.33-.31-.61-1.12-2.24-1.49-4.51-.26.43-.6,1.01-.85,1.44-.41.73-.49.9-.82,1.57l-.22.49-.19.47-.16.45-.07.23c-.34-1.33-.35-2.31-.32-3.12l.02-.33c.02-.3.03-.37.07-.67-.07.47-.09.58-.14,1.06l-.03.35c-.13,1.87.07,3.48.64,5.19.04-.21.09-.5.14-.71l.15-.45.2-.46.24-.44.27-.39.3-.41.08-.11c.31,1.52.88,4.35,3.28,7.61.12-2.35,1.76-5.6,1.92-5.79q.06.03.93,1.36c.24.37.55.85.8,1.22.47.68.79,1.12,1.51,2.08.65-.86.99-1.31,1.54-2.08.25-.36.58-.85.82-1.22q.57-.88.93-1.4c.19.22,1.9,3.04,2.27,5.17,2.02-2.83,2.62-5.1,3.02-7,.02.03.05.08.08.11l.28.41q.23.36.46.83l.17.47.13.46c.04.22.09.51.11.73.09-.32.22-.74.3-1.06.35-1.57.43-2.78.28-4.47l-.04-.35c-.02-.19-.04-.36-.09-.62"/></g><g class="cls-3"><path class="cls-1" d="m255.39,388.44c0,.81-.07,1.59-.22,2.35h0c-.25,1.35-.72,2.62-1.36,3.76h0c-.4.71-.87,1.37-1.4,1.97,0,0,0,0,0,0-1.93,2.19-4.64,3.55-7.65,3.55s-5.64-1.33-7.57-3.46c0,0,0,0,0,0-.55-.61-1.03-1.28-1.45-2,0,0,0,0,0,0-.46-.81-.84-1.68-1.11-2.61h0c-.18-.61-.31-1.24-.4-1.88h0c-.07-.55-.11-1.11-.11-1.68,0-.87.09-1.81.25-2.81.12-.73.28-1.48.48-2.24.32-1.2.73-2.43,1.23-3.62.36-.85.75-1.69,1.19-2.48,1.92-3.5,4.56-6.2,7.48-6.2,1.88,0,3.64,1.12,5.17,2.84.47.53.92,1.12,1.34,1.75.34.51.66,1.05.97,1.6h0c.43.79.83,1.62,1.19,2.47,1.17,2.79,1.88,5.8,1.96,8.23,0,.15,0,.3,0,.44Z"/><path class="cls-4" d="m255.04,385.16q.05.46.08.92v.33c.03,1.02-.06,1.82-.28,2.76-.02-.07-.04-.16-.06-.23-.32-1.31-.81-2.98-2.56-6.32,0,2.36-.19,4.13-1.16,6.74-1.11-1.6-2.27-3.18-3.33-4.81-.52,1.11-.63,1.34-1.29,2.5l-.38.63-.39.62c-.14.21-.43.66-.87,1.27-.02-.03-.06-.06-.08-.09-.5-.85-1.75-3.18-2.63-6.49-.03.06-.07.15-.11.21-1.19,2.38-2.12,4.06-3.31,6.18-.05-.1-.12-.23-.17-.33-.31-.61-1.12-2.24-1.49-4.51-.26.43-.6,1.01-.85,1.44-.41.73-.49.9-.82,1.57l-.22.49-.19.47-.16.45-.07.23c-.34-1.33-.35-2.31-.32-3.12l.02-.33c.02-.3.03-.37.07-.67-.07.47-.09.58-.14,1.06l-.03.35c-.13,1.87.07,3.48.64,5.19.04-.21.09-.5.14-.71l.15-.45.2-.46.24-.44.27-.39.3-.41.08-.11c.31,1.52.88,4.35,3.28,7.61.12-2.35,1.76-5.6,1.92-5.79q.06.03.93,1.36c.24.37.55.85.8,1.22.47.68.79,1.12,1.51,2.08.65-.86.99-1.31,1.54-2.08.25-.36.58-.85.82-1.22q.57-.88.93-1.4c.19.22,1.9,3.04,2.27,5.17,2.02-2.83,2.62-5.1,3.02-7,.02.03.05.08.08.11l.28.41q.23.36.46.83l.17.47.13.46c.04.22.09.51.11.73.09-.32.22-.74.3-1.06.35-1.57.43-2.78.28-4.47l-.04-.35c-.02-.19-.04-.36-.09-.62"/></g><g class="cls-3"><path class="cls-1" d="m325.22,388.44c0,.81-.07,1.59-.22,2.35h0c-.25,1.35-.72,2.62-1.36,3.76h0c-.4.71-.87,1.37-1.4,1.97,0,0,0,0,0,0-1.93,2.19-4.64,3.55-7.65,3.55s-5.64-1.33-7.57-3.46c0,0,0,0,0,0-.55-.61-1.03-1.28-1.45-2,0,0,0,0,0,0-.46-.81-.84-1.68-1.11-2.61h0c-.18-.61-.31-1.24-.4-1.88h0c-.07-.55-.11-1.11-.11-1.68,0-.87.09-1.81.25-2.81.12-.73.28-1.48.48-2.24.32-1.2.73-2.43,1.23-3.62.36-.85.75-1.69,1.19-2.48,1.92-3.5,4.56-6.2,7.48-6.2,1.88,0,3.64,1.12,5.17,2.84.47.53.92,1.12,1.34,1.75.34.51.66,1.05.97,1.6h0c.43.79.83,1.62,1.19,2.47,1.17,2.79,1.88,5.8,1.96,8.23,0,.15,0,.3,0,.44Z"/><path class="cls-4" d="m324.87,385.16q.05.46.08.92v.33c.03,1.02-.06,1.82-.28,2.76-.02-.07-.04-.16-.06-.23-.32-1.31-.81-2.98-2.56-6.32,0,2.36-.19,4.13-1.16,6.74-1.11-1.6-2.27-3.18-3.33-4.81-.52,1.11-.63,1.34-1.29,2.5l-.38.63-.39.62c-.14.21-.43.66-.87,1.27-.02-.03-.06-.06-.08-.09-.5-.85-1.75-3.18-2.63-6.49-.03.06-.07.15-.11.21-1.19,2.38-2.12,4.06-3.31,6.18-.05-.1-.12-.23-.17-.33-.31-.61-1.12-2.24-1.49-4.51-.26.43-.6,1.01-.85,1.44-.41.73-.49.9-.82,1.57l-.22.49-.19.47-.16.45-.07.23c-.34-1.33-.35-2.31-.32-3.12l.02-.33c.02-.3.03-.37.07-.67-.07.47-.09.58-.14,1.06l-.03.35c-.13,1.87.07,3.48.64,5.19.04-.21.09-.5.14-.71l.15-.45.2-.46.24-.44.27-.39.3-.41.08-.11c.31,1.52.88,4.35,3.28,7.61.12-2.35,1.76-5.6,1.92-5.79q.06.03.93,1.36c.24.37.55.85.8,1.22.47.68.79,1.12,1.51,2.08.65-.86.99-1.31,1.54-2.08.25-.36.58-.85.82-1.22q.57-.88.93-1.4c.19.22,1.9,3.04,2.27,5.17,2.02-2.83,2.62-5.1,3.02-7,.02.03.05.08.08.11l.28.41q.23.36.46.83l.17.47.13.46c.04.22.09.51.11.73.09-.32.22-.74.3-1.06.35-1.57.43-2.78.28-4.47l-.04-.35c-.02-.19-.04-.36-.09-.62"/></g><g class="cls-3"><path class="cls-1" d="m395.06,388.44c0,.81-.07,1.59-.22,2.35h0c-.25,1.35-.72,2.62-1.36,3.76h0c-.4.71-.87,1.37-1.4,1.97,0,0,0,0,0,0-1.93,2.19-4.64,3.55-7.65,3.55s-5.64-1.33-7.57-3.46c0,0,0,0,0,0-.55-.61-1.03-1.28-1.45-2,0,0,0,0,0,0-.46-.81-.84-1.68-1.11-2.61h0c-.18-.61-.31-1.24-.4-1.88h0c-.07-.55-.11-1.11-.11-1.68,0-.87.09-1.81.25-2.81.12-.73.28-1.48.48-2.24.32-1.2.73-2.43,1.23-3.62.36-.85.75-1.69,1.19-2.48,1.92-3.5,4.56-6.2,7.48-6.2,1.88,0,3.64,1.12,5.17,2.84.47.53.92,1.12,1.34,1.75.34.51.66,1.05.97,1.6h0c.43.79.83,1.62,1.19,2.47,1.17,2.79,1.88,5.8,1.96,8.23,0,.15,0,.3,0,.44Z"/><path class="cls-4" d="m394.71,385.16q.05.46.08.92v.33c.03,1.02-.06,1.82-.28,2.76-.02-.07-.04-.16-.06-.23-.32-1.31-.81-2.98-2.56-6.32,0,2.36-.19,4.13-1.16,6.74-1.11-1.6-2.27-3.18-3.33-4.81-.52,1.11-.63,1.34-1.29,2.5l-.38.63-.39.62c-.14.21-.43.66-.87,1.27-.02-.03-.06-.06-.08-.09-.5-.85-1.75-3.18-2.63-6.49-.03.06-.07.15-.11.21-1.19,2.38-2.12,4.06-3.31,6.18-.05-.1-.12-.23-.17-.33-.31-.61-1.12-2.24-1.49-4.51-.26.43-.6,1.01-.85,1.44-.41.73-.49.9-.82,1.57l-.22.49-.19.47-.16.45-.07.23c-.34-1.33-.35-2.31-.32-3.12l.02-.33c.02-.3.03-.37.07-.67-.07.47-.09.58-.14,1.06l-.03.35c-.13,1.87.07,3.48.64,5.19.04-.21.09-.5.14-.71l.15-.45.2-.46.24-.44.27-.39.3-.41.08-.11c.31,1.52.88,4.35,3.28,7.61.12-2.35,1.76-5.6,1.92-5.79q.06.03.93,1.36c.24.37.55.85.8,1.22.47.68.79,1.12,1.51,2.08.65-.86.99-1.31,1.54-2.08.25-.36.58-.85.82-1.22q.57-.88.93-1.4c.19.22,1.9,3.04,2.27,5.17,2.02-2.83,2.62-5.1,3.02-7,.02.03.05.08.08.11l.28.41q.23.36.46.83l.17.47.13.46c.04.22.09.51.11.73.09-.32.22-.74.3-1.06.35-1.57.43-2.78.28-4.47l-.04-.35c-.02-.19-.04-.36-.09-.62"/></g></g></svg>