<?xml version="1.0" encoding="UTF-8"?><svg id="Capa_2" xmlns="http://www.w3.org/2000/svg" viewBox="0 0 420 420"><defs><style>.cls-1{fill:#6c33cd;}.cls-2{fill:#f6f3c6;}.cls-3{opacity:.1;}.cls-4{fill:#f7f4c7;}</style></defs><g id="Capa_2-2"><g id="Capa_1-2"><rect class="cls-2" width="420" height="420"/></g><g class="cls-3"><path class="cls-1" d="m395.53,37.29c0,.81-.07,1.59-.22,2.35h0c-.25,1.35-.72,2.62-1.36,3.76h0c-.4.71-.87,1.37-1.4,1.97,0,0,0,0,0,0-1.93,2.19-4.64,3.55-7.65,3.55s-5.64-1.33-7.57-3.46c0,0,0,0,0,0-.55-.61-1.03-1.28-1.45-2,0,0,0,0,0,0-.46-.81-.84-1.68-1.11-2.61h0c-.18-.61-.31-1.24-.4-1.88h0c-.07-.55-.11-1.11-.11-1.68,0-.87.09-1.81.25-2.81.12-.73.28-1.48.48-2.24.32-1.2.73-2.43,1.23-3.62.36-.85.75-1.69,1.19-2.48,1.92-3.5,4.56-6.2,7.48-6.2,1.88,0,3.64,1.12,5.17,2.84.47.53.92,1.12,1.34,1.75.34.51.66,1.05.97,1.6h0c.43.79.83,1.62,1.19,2.47,1.17,2.79,1.88,5.8,1.96,8.23,0,.15,0,.3,0,.44Z"/><path class="cls-4" d="m374.78,40.85h0c-.18-.61-.31-1.24-.4-1.88,1.09,1.86,4.66,2.91,7.65,3.47-4.96-.21-6.67-1.05-7.25-1.59Z"/><path class="cls-4" d="m391.41,24.53c-.46.61-3.86.81-6.81.31,3.9-.25,5.61-1.19,5.46-2.06.47.53.92,1.12,1.34,1.75Z"/><path class="cls-4" d="m393.57,28.61c-.31.8-2.05,1.53-4.83,1.91-4.33.58-9.55.08-11.67-1.13-.44-.25-.71-.51-.83-.78.36-.85.75-1.69,1.19-2.48.08.25.32.49.74.73,1.83,1.04,6.32,1.47,10.04.97,2.47-.33,3.98-.99,4.18-1.7.43.79.83,1.62,1.19,2.47Z"/><path class="cls-4" d="m393.95,43.39c-.4.71-.87,1.37-1.4,1.97,0,0,0,0,0,0-.67.55-2.1,1.02-4.11,1.29-4.03.54-8.89.07-10.87-1.05-.09-.05-.17-.1-.24-.15,0,0,0,0,0,0-.55-.61-1.03-1.28-1.45-2,.13.11.3.22.49.33,2.3,1.31,7.97,1.85,12.66,1.22,2.49-.33,4.2-.93,4.92-1.62Z"/><path class="cls-4" d="m392.85,34.79c-6.43,2.5-16.86,1.53-18.33-.31.12-.73.28-1.48.48-2.24,1.11,2.9,12.36,3.96,17.85,2.56Z"/><path class="cls-4" d="m395.53,37.29c0,.81-.07,1.59-.22,2.35h0c-1.17.77-7.26,1.27-13.94-.43,7.27.61,13.1-.71,14.15-2.36,0,.15,0,.3,0,.44Z"/></g><g class="cls-3"><path class="cls-1" d="m325.57,37.29c0,.81-.07,1.59-.22,2.35h0c-.25,1.35-.72,2.62-1.36,3.76h0c-.4.71-.87,1.37-1.4,1.97,0,0,0,0,0,0-1.93,2.19-4.64,3.55-7.65,3.55s-5.64-1.33-7.57-3.46c0,0,0,0,0,0-.55-.61-1.03-1.28-1.45-2,0,0,0,0,0,0-.46-.81-.84-1.68-1.11-2.61h0c-.18-.61-.31-1.24-.4-1.88h0c-.07-.55-.11-1.11-.11-1.68,0-.87.09-1.81.25-2.81.12-.73.28-1.48.48-2.24.32-1.2.73-2.43,1.23-3.62.36-.85.75-1.69,1.19-2.48,1.92-3.5,4.56-6.2,7.48-6.2,1.88,0,3.64,1.12,5.17,2.84.47.53.92,1.12,1.34,1.75.34.51.66,1.05.97,1.6h0c.43.79.83,1.62,1.19,2.47,1.17,2.79,1.88,5.8,1.96,8.23,0,.15,0,.3,0,.44Z"/><path class="cls-4" d="m304.82,40.85h0c-.18-.61-.31-1.24-.4-1.88,1.09,1.86,4.66,2.91,7.65,3.47-4.96-.21-6.67-1.05-7.25-1.59Z"/><path class="cls-4" d="m321.45,24.53c-.46.61-3.86.81-6.81.31,3.9-.25,5.61-1.19,5.46-2.06.47.53.92,1.12,1.34,1.75Z"/><path class="cls-4" d="m323.61,28.61c-.31.8-2.05,1.53-4.83,1.91-4.33.58-9.55.08-11.67-1.13-.44-.25-.71-.51-.83-.78.36-.85.75-1.69,1.19-2.48.08.25.32.49.74.73,1.83,1.04,6.32,1.47,10.04.97,2.47-.33,3.98-.99,4.18-1.7.43.79.83,1.62,1.19,2.47Z"/><path class="cls-4" d="m323.99,43.39c-.4.71-.87,1.37-1.4,1.97,0,0,0,0,0,0-.67.55-2.1,1.02-4.11,1.29-4.03.54-8.89.07-10.87-1.05-.09-.05-.17-.1-.24-.15,0,0,0,0,0,0-.55-.61-1.03-1.28-1.45-2,.13.11.3.22.49.33,2.3,1.31,7.97,1.85,12.66,1.22,2.49-.33,4.2-.93,4.92-1.62Z"/><path class="cls-4" d="m322.89,34.79c-6.43,2.5-16.86,1.53-18.33-.31.12-.73.28-1.48.48-2.24,1.11,2.9,12.36,3.96,17.85,2.56Z"/><path class="cls-4" d="m325.57,37.29c0,.81-.07,1.59-.22,2.35h0c-1.17.77-7.26,1.27-13.94-.43,7.27.61,13.1-.71,14.15-2.36,0,.15,0,.3,0,.44Z"/></g><g class="cls-3"><path class="cls-1" d="m255.61,37.29c0,.81-.07,1.59-.22,2.35h0c-.25,1.35-.72,2.62-1.36,3.76h0c-.4.71-.87,1.37-1.4,1.97,0,0,0,0,0,0-1.93,2.19-4.64,3.55-7.65,3.55s-5.64-1.33-7.57-3.46c0,0,0,0,0,0-.55-.61-1.03-1.28-1.45-2,0,0,0,0,0,0-.46-.81-.84-1.68-1.11-2.61h0c-.18-.61-.31-1.24-.4-1.88h0c-.07-.55-.11-1.11-.11-1.68,0-.87.09-1.81.25-2.81.12-.73.28-1.48.48-2.24.32-1.2.73-2.43,1.23-3.62.36-.85.75-1.69,1.19-2.48,1.92-3.5,4.56-6.2,7.48-6.2,1.88,0,3.64,1.12,5.17,2.84.47.53.92,1.12,1.34,1.75.34.51.66,1.05.97,1.6h0c.43.79.83,1.62,1.19,2.47,1.17,2.79,1.88,5.8,1.96,8.23,0,.15,0,.3,0,.44Z"/><path class="cls-4" d="m234.86,40.85h0c-.18-.61-.31-1.24-.4-1.88,1.09,1.86,4.66,2.91,7.65,3.47-4.96-.21-6.67-1.05-7.25-1.59Z"/><path class="cls-4" d="m251.49,24.53c-.46.61-3.86.81-6.81.31,3.9-.25,5.61-1.19,5.46-2.06.47.53.92,1.12,1.34,1.75Z"/><path class="cls-4" d="m253.65,28.61c-.31.8-2.05,1.53-4.83,1.91-4.33.58-9.55.08-11.67-1.13-.44-.25-.71-.51-.83-.78.36-.85.75-1.69,1.19-2.48.08.25.32.49.74.73,1.83,1.04,6.32,1.47,10.04.97,2.47-.33,3.98-.99,4.18-1.7.43.79.83,1.62,1.19,2.47Z"/><path class="cls-4" d="m254.03,43.39c-.4.71-.87,1.37-1.4,1.97,0,0,0,0,0,0-.67.55-2.1,1.02-4.11,1.29-4.03.54-8.89.07-10.87-1.05-.09-.05-.17-.1-.24-.15,0,0,0,0,0,0-.55-.61-1.03-1.28-1.45-2,.13.11.3.22.49.33,2.3,1.31,7.97,1.85,12.66,1.22,2.49-.33,4.2-.93,4.92-1.62Z"/><path class="cls-4" d="m252.93,34.79c-6.43,2.5-16.86,1.53-18.33-.31.12-.73.28-1.48.48-2.24,1.11,2.9,12.36,3.96,17.85,2.56Z"/><path class="cls-4" d="m255.61,37.29c0,.81-.07,1.59-.22,2.35h0c-1.17.77-7.26,1.27-13.94-.43,7.27.61,13.1-.71,14.15-2.36,0,.15,0,.3,0,.44Z"/></g><g class="cls-3"><path class="cls-1" d="m185.65,37.29c0,.81-.07,1.59-.22,2.35h0c-.25,1.35-.72,2.62-1.36,3.76h0c-.4.71-.87,1.37-1.4,1.97,0,0,0,0,0,0-1.93,2.19-4.64,3.55-7.65,3.55s-5.64-1.33-7.57-3.46c0,0,0,0,0,0-.55-.61-1.03-1.28-1.45-2,0,0,0,0,0,0-.46-.81-.84-1.68-1.11-2.61h0c-.18-.61-.31-1.24-.4-1.88h0c-.07-.55-.11-1.11-.11-1.68,0-.87.09-1.81.25-2.81.12-.73.28-1.48.48-2.24.32-1.2.73-2.43,1.23-3.62.36-.85.75-1.69,1.19-2.48,1.92-3.5,4.56-6.2,7.48-6.2,1.88,0,3.64,1.12,5.17,2.84.47.53.92,1.12,1.34,1.75.34.51.66,1.05.97,1.6h0c.43.79.83,1.62,1.19,2.47,1.17,2.79,1.88,5.8,1.96,8.23,0,.15,0,.3,0,.44Z"/><path class="cls-4" d="m164.9,40.85h0c-.18-.61-.31-1.24-.4-1.88,1.09,1.86,4.66,2.91,7.65,3.47-4.96-.21-6.67-1.05-7.25-1.59Z"/><path class="cls-4" d="m181.53,24.53c-.46.61-3.86.81-6.81.31,3.9-.25,5.61-1.19,5.46-2.06.47.53.92,1.12,1.34,1.75Z"/><path class="cls-4" d="m183.69,28.61c-.31.8-2.05,1.53-4.83,1.91-4.33.58-9.55.08-11.67-1.13-.44-.25-.71-.51-.83-.78.36-.85.75-1.69,1.19-2.48.08.25.32.49.74.73,1.83,1.04,6.32,1.47,10.04.97,2.47-.33,3.98-.99,4.18-1.7.43.79.83,1.62,1.19,2.47Z"/><path class="cls-4" d="m184.07,43.39c-.4.71-.87,1.37-1.4,1.97,0,0,0,0,0,0-.67.55-2.1,1.02-4.11,1.29-4.03.54-8.89.07-10.87-1.05-.09-.05-.17-.1-.24-.15,0,0,0,0,0,0-.55-.61-1.03-1.28-1.45-2,.13.11.3.22.49.33,2.3,1.31,7.97,1.85,12.66,1.22,2.49-.33,4.2-.93,4.92-1.62Z"/><path class="cls-4" d="m182.97,34.79c-6.43,2.5-16.86,1.53-18.33-.31.12-.73.28-1.48.48-2.24,1.11,2.9,12.36,3.96,17.85,2.56Z"/><path class="cls-4" d="m185.65,37.29c0,.81-.07,1.59-.22,2.35h0c-1.17.77-7.26,1.27-13.94-.43,7.27.61,13.1-.71,14.15-2.36,0,.15,0,.3,0,.44Z"/></g><g class="cls-3"><path class="cls-1" d="m115.69,37.29c0,.81-.07,1.59-.22,2.35h0c-.25,1.35-.72,2.62-1.36,3.76h0c-.4.71-.87,1.37-1.4,1.97,0,0,0,0,0,0-1.93,2.19-4.64,3.55-7.65,3.55s-5.64-1.33-7.57-3.46c0,0,0,0,0,0-.55-.61-1.03-1.28-1.45-2,0,0,0,0,0,0-.46-.81-.84-1.68-1.11-2.61h0c-.18-.61-.31-1.24-.4-1.88h0c-.07-.55-.11-1.11-.11-1.68,0-.87.09-1.81.25-2.81.12-.73.28-1.48.48-2.24.32-1.2.73-2.43,1.23-3.62.36-.85.75-1.69,1.19-2.48,1.92-3.5,4.56-6.2,7.48-6.2,1.88,0,3.64,1.12,5.17,2.84.47.53.92,1.12,1.34,1.75.34.51.66,1.05.97,1.6h0c.43.79.83,1.62,1.19,2.47,1.17,2.79,1.88,5.8,1.96,8.23,0,.15,0,.3,0,.44Z"/><path class="cls-4" d="m94.93,40.85h0c-.18-.61-.31-1.24-.4-1.88,1.09,1.86,4.66,2.91,7.65,3.47-4.96-.21-6.67-1.05-7.25-1.59Z"/><path class="cls-4" d="m111.57,24.53c-.46.61-3.86.81-6.81.31,3.9-.25,5.61-1.19,5.46-2.06.47.53.92,1.12,1.34,1.75Z"/><path class="cls-4" d="m113.73,28.61c-.31.8-2.05,1.53-4.83,1.91-4.33.58-9.55.08-11.67-1.13-.44-.25-.71-.51-.83-.78.36-.85.75-1.69,1.19-2.48.08.25.32.49.74.73,1.83,1.04,6.32,1.47,10.04.97,2.47-.33,3.98-.99,4.18-1.7.43.79.83,1.62,1.19,2.47Z"/><path class="cls-4" d="m114.11,43.39c-.4.71-.87,1.37-1.4,1.97,0,0,0,0,0,0-.67.55-2.1,1.02-4.11,1.29-4.03.54-8.89.07-10.87-1.05-.09-.05-.17-.1-.24-.15,0,0,0,0,0,0-.55-.61-1.03-1.28-1.45-2,.13.11.3.22.49.33,2.3,1.31,7.97,1.85,12.66,1.22,2.49-.33,4.2-.93,4.92-1.62Z"/><path class="cls-4" d="m113.01,34.79c-6.43,2.5-16.86,1.53-18.33-.31.12-.73.28-1.48.48-2.24,1.11,2.9,12.36,3.96,17.85,2.56Z"/><path class="cls-4" d="m115.69,37.29c0,.81-.07,1.59-.22,2.35h0c-1.17.77-7.26,1.27-13.94-.43,7.27.61,13.1-.71,14.15-2.36,0,.15,0,.3,0,.44Z"/></g><g class="cls-3"><path class="cls-1" d="m45.73,37.29c0,.81-.07,1.59-.22,2.35h0c-.25,1.35-.72,2.62-1.36,3.76h0c-.4.71-.87,1.37-1.4,1.97,0,0,0,0,0,0-1.93,2.19-4.64,3.55-7.65,3.55s-5.64-1.33-7.57-3.46c0,0,0,0,0,0-.55-.61-1.03-1.28-1.45-2,0,0,0,0,0,0-.46-.81-.84-1.68-1.11-2.61h0c-.18-.61-.31-1.24-.4-1.88h0c-.07-.55-.11-1.11-.11-1.68,0-.87.09-1.81.25-2.81.12-.73.28-1.48.48-2.24.32-1.2.73-2.43,1.23-3.62.36-.85.75-1.69,1.19-2.48,1.92-3.5,4.56-6.2,7.48-6.2,1.88,0,3.64,1.12,5.17,2.84.47.53.92,1.12,1.34,1.75.34.51.66,1.05.97,1.6h0c.43.79.83,1.62,1.19,2.47,1.17,2.79,1.88,5.8,1.96,8.23,0,.15,0,.3,0,.44Z"/><path class="cls-4" d="m24.97,40.85h0c-.18-.61-.31-1.24-.4-1.88,1.09,1.86,4.66,2.91,7.65,3.47-4.96-.21-6.67-1.05-7.25-1.59Z"/><path class="cls-4" d="m41.61,24.53c-.46.61-3.86.81-6.81.31,3.9-.25,5.61-1.19,5.46-2.06.47.53.92,1.12,1.34,1.75Z"/><path class="cls-4" d="m43.76,28.61c-.31.8-2.05,1.53-4.83,1.91-4.33.58-9.55.08-11.67-1.13-.44-.25-.71-.51-.83-.78.36-.85.75-1.69,1.19-2.48.08.25.32.49.74.73,1.83,1.04,6.32,1.47,10.04.97,2.47-.33,3.98-.99,4.18-1.7.43.79.83,1.62,1.19,2.47Z"/><path class="cls-4" d="m44.15,43.39c-.4.71-.87,1.37-1.4,1.97,0,0,0,0,0,0-.67.55-2.1,1.02-4.11,1.29-4.03.54-8.89.07-10.87-1.05-.09-.05-.17-.1-.24-.15,0,0,0,0,0,0-.55-.61-1.03-1.28-1.45-2,.13.11.3.22.49.33,2.3,1.31,7.97,1.85,12.66,1.22,2.49-.33,4.2-.93,4.92-1.62Z"/><path class="cls-4" d="m43.05,34.79c-6.43,2.5-16.86,1.53-18.33-.31.12-.73.28-1.48.48-2.24,1.11,2.9,12.36,3.96,17.85,2.56Z"/><path class="cls-4" d="m45.73,37.29c0,.81-.07,1.59-.22,2.35h0c-1.17.77-7.26,1.27-13.94-.43,7.27.61,13.1-.71,14.15-2.36,0,.15,0,.3,0,.44Z"/></g><g class="cls-3"><path class="cls-1" d="m395.53,107.52c0,.81-.07,1.59-.22,2.35h0c-.25,1.35-.72,2.62-1.36,3.76h0c-.4.71-.87,1.37-1.4,1.97,0,0,0,0,0,0-1.93,2.19-4.64,3.55-7.65,3.55s-5.64-1.33-7.57-3.46c0,0,0,0,0,0-.55-.61-1.03-1.28-1.45-2,0,0,0,0,0,0-.46-.81-.84-1.68-1.11-2.61h0c-.18-.61-.31-1.24-.4-1.88h0c-.07-.55-.11-1.11-.11-1.68,0-.87.09-1.81.25-2.81.12-.73.28-1.48.48-2.24.32-1.2.73-2.43,1.23-3.62.36-.85.75-1.69,1.19-2.48,1.92-3.5,4.56-6.2,7.48-6.2,1.88,0,3.64,1.12,5.17,2.84.47.53.92,1.12,1.34,1.75.34.51.66,1.05.97,1.6h0c.43.79.83,1.62,1.19,2.47,1.17,2.79,1.88,5.8,1.96,8.23,0,.15,0,.3,0,.44Z"/><path class="cls-4" d="m374.78,111.08h0c-.18-.61-.31-1.24-.4-1.88,1.09,1.86,4.66,2.91,7.65,3.47-4.96-.21-6.67-1.05-7.25-1.59Z"/><path class="cls-4" d="m391.41,94.76c-.46.61-3.86.81-6.81.31,3.9-.25,5.61-1.19,5.46-2.06.47.53.92,1.12,1.34,1.75Z"/><path class="cls-4" d="m393.57,98.84c-.31.8-2.05,1.53-4.83,1.91-4.33.58-9.55.08-11.67-1.13-.44-.25-.71-.51-.83-.78.36-.85.75-1.69,1.19-2.48.08.25.32.49.74.73,1.83,1.04,6.32,1.47,10.04.97,2.47-.33,3.98-.99,4.18-1.7.43.79.83,1.62,1.19,2.47Z"/><path class="cls-4" d="m393.95,113.62c-.4.71-.87,1.37-1.4,1.97,0,0,0,0,0,0-.67.55-2.1,1.02-4.11,1.29-4.03.54-8.89.07-10.87-1.05-.09-.05-.17-.1-.24-.15,0,0,0,0,0,0-.55-.61-1.03-1.28-1.45-2,.13.11.3.22.49.33,2.3,1.31,7.97,1.85,12.66,1.22,2.49-.33,4.2-.93,4.92-1.62Z"/><path class="cls-4" d="m392.85,105.02c-6.43,2.5-16.86,1.53-18.33-.31.12-.73.28-1.48.48-2.24,1.11,2.9,12.36,3.96,17.85,2.56Z"/><path class="cls-4" d="m395.53,107.52c0,.81-.07,1.59-.22,2.35h0c-1.17.77-7.26,1.27-13.94-.43,7.27.61,13.1-.71,14.15-2.36,0,.15,0,.3,0,.44Z"/></g><g class="cls-3"><path class="cls-1" d="m325.57,107.52c0,.81-.07,1.59-.22,2.35h0c-.25,1.35-.72,2.62-1.36,3.76h0c-.4.71-.87,1.37-1.4,1.97,0,0,0,0,0,0-1.93,2.19-4.64,3.55-7.65,3.55s-5.64-1.33-7.57-3.46c0,0,0,0,0,0-.55-.61-1.03-1.28-1.45-2,0,0,0,0,0,0-.46-.81-.84-1.68-1.11-2.61h0c-.18-.61-.31-1.24-.4-1.88h0c-.07-.55-.11-1.11-.11-1.68,0-.87.09-1.81.25-2.81.12-.73.28-1.48.48-2.24.32-1.2.73-2.43,1.23-3.62.36-.85.75-1.69,1.19-2.48,1.92-3.5,4.56-6.2,7.48-6.2,1.88,0,3.64,1.12,5.17,2.84.47.53.92,1.12,1.34,1.75.34.51.66,1.05.97,1.6h0c.43.79.83,1.62,1.19,2.47,1.17,2.79,1.88,5.8,1.96,8.23,0,.15,0,.3,0,.44Z"/><path class="cls-4" d="m304.82,111.08h0c-.18-.61-.31-1.24-.4-1.88,1.09,1.86,4.66,2.91,7.65,3.47-4.96-.21-6.67-1.05-7.25-1.59Z"/><path class="cls-4" d="m321.45,94.76c-.46.61-3.86.81-6.81.31,3.9-.25,5.61-1.19,5.46-2.06.47.53.92,1.12,1.34,1.75Z"/><path class="cls-4" d="m323.61,98.84c-.31.8-2.05,1.53-4.83,1.91-4.33.58-9.55.08-11.67-1.13-.44-.25-.71-.51-.83-.78.36-.85.75-1.69,1.19-2.48.08.25.32.49.74.73,1.83,1.04,6.32,1.47,10.04.97,2.47-.33,3.98-.99,4.18-1.7.43.79.83,1.62,1.19,2.47Z"/><path class="cls-4" d="m323.99,113.62c-.4.71-.87,1.37-1.4,1.97,0,0,0,0,0,0-.67.55-2.1,1.02-4.11,1.29-4.03.54-8.89.07-10.87-1.05-.09-.05-.17-.1-.24-.15,0,0,0,0,0,0-.55-.61-1.03-1.28-1.45-2,.13.11.3.22.49.33,2.3,1.31,7.97,1.85,12.66,1.22,2.49-.33,4.2-.93,4.92-1.62Z"/><path class="cls-4" d="m322.89,105.02c-6.43,2.5-16.86,1.53-18.33-.31.12-.73.28-1.48.48-2.24,1.11,2.9,12.36,3.96,17.85,2.56Z"/><path class="cls-4" d="m325.57,107.52c0,.81-.07,1.59-.22,2.35h0c-1.17.77-7.26,1.27-13.94-.43,7.27.61,13.1-.71,14.15-2.36,0,.15,0,.3,0,.44Z"/></g><g class="cls-3"><path class="cls-1" d="m255.61,107.52c0,.81-.07,1.59-.22,2.35h0c-.25,1.35-.72,2.62-1.36,3.76h0c-.4.71-.87,1.37-1.4,1.97,0,0,0,0,0,0-1.93,2.19-4.64,3.55-7.65,3.55s-5.64-1.33-7.57-3.46c0,0,0,0,0,0-.55-.61-1.03-1.28-1.45-2,0,0,0,0,0,0-.46-.81-.84-1.68-1.11-2.61h0c-.18-.61-.31-1.24-.4-1.88h0c-.07-.55-.11-1.11-.11-1.68,0-.87.09-1.81.25-2.81.12-.73.28-1.48.48-2.24.32-1.2.73-2.43,1.23-3.62.36-.85.75-1.69,1.19-2.48,1.92-3.5,4.56-6.2,7.48-6.2,1.88,0,3.64,1.12,5.17,2.84.47.53.92,1.12,1.34,1.75.34.51.66,1.05.97,1.6h0c.43.79.83,1.62,1.19,2.47,1.17,2.79,1.88,5.8,1.96,8.23,0,.15,0,.3,0,.44Z"/><path class="cls-4" d="m234.86,111.08h0c-.18-.61-.31-1.24-.4-1.88,1.09,1.86,4.66,2.91,7.65,3.47-4.96-.21-6.67-1.05-7.25-1.59Z"/><path class="cls-4" d="m251.49,94.76c-.46.61-3.86.81-6.81.31,3.9-.25,5.61-1.19,5.46-2.06.47.53.92,1.12,1.34,1.75Z"/><path class="cls-4" d="m253.65,98.84c-.31.8-2.05,1.53-4.83,1.91-4.33.58-9.55.08-11.67-1.13-.44-.25-.71-.51-.83-.78.36-.85.75-1.69,1.19-2.48.08.25.32.49.74.73,1.83,1.04,6.32,1.47,10.04.97,2.47-.33,3.98-.99,4.18-1.7.43.79.83,1.62,1.19,2.47Z"/><path class="cls-4" d="m254.03,113.62c-.4.71-.87,1.37-1.4,1.97,0,0,0,0,0,0-.67.55-2.1,1.02-4.11,1.29-4.03.54-8.89.07-10.87-1.05-.09-.05-.17-.1-.24-.15,0,0,0,0,0,0-.55-.61-1.03-1.28-1.45-2,.13.11.3.22.49.33,2.3,1.31,7.97,1.85,12.66,1.22,2.49-.33,4.2-.93,4.92-1.62Z"/><path class="cls-4" d="m252.93,105.02c-6.43,2.5-16.86,1.53-18.33-.31.12-.73.28-1.48.48-2.24,1.11,2.9,12.36,3.96,17.85,2.56Z"/><path class="cls-4" d="m255.61,107.52c0,.81-.07,1.59-.22,2.35h0c-1.17.77-7.26,1.27-13.94-.43,7.27.61,13.1-.71,14.15-2.36,0,.15,0,.3,0,.44Z"/></g><g class="cls-3"><path class="cls-1" d="m185.65,107.52c0,.81-.07,1.59-.22,2.35h0c-.25,1.35-.72,2.62-1.36,3.76h0c-.4.71-.87,1.37-1.4,1.97,0,0,0,0,0,0-1.93,2.19-4.64,3.55-7.65,3.55s-5.64-1.33-7.57-3.46c0,0,0,0,0,0-.55-.61-1.03-1.28-1.45-2,0,0,0,0,0,0-.46-.81-.84-1.68-1.11-2.61h0c-.18-.61-.31-1.24-.4-1.88h0c-.07-.55-.11-1.11-.11-1.68,0-.87.09-1.81.25-2.81.12-.73.28-1.48.48-2.24.32-1.2.73-2.43,1.23-3.62.36-.85.75-1.69,1.19-2.48,1.92-3.5,4.56-6.2,7.48-6.2,1.88,0,3.64,1.12,5.17,2.84.47.53.92,1.12,1.34,1.75.34.51.66,1.05.97,1.6h0c.43.79.83,1.62,1.19,2.47,1.17,2.79,1.88,5.8,1.96,8.23,0,.15,0,.3,0,.44Z"/><path class="cls-4" d="m164.9,111.08h0c-.18-.61-.31-1.24-.4-1.88,1.09,1.86,4.66,2.91,7.65,3.47-4.96-.21-6.67-1.05-7.25-1.59Z"/><path class="cls-4" d="m181.53,94.76c-.46.61-3.86.81-6.81.31,3.9-.25,5.61-1.19,5.46-2.06.47.53.92,1.12,1.34,1.75Z"/><path class="cls-4" d="m183.69,98.84c-.31.8-2.05,1.53-4.83,1.91-4.33.58-9.55.08-11.67-1.13-.44-.25-.71-.51-.83-.78.36-.85.75-1.69,1.19-2.48.08.25.32.49.74.73,1.83,1.04,6.32,1.47,10.04.97,2.47-.33,3.98-.99,4.18-1.7.43.79.83,1.62,1.19,2.47Z"/><path class="cls-4" d="m184.07,113.62c-.4.71-.87,1.37-1.4,1.97,0,0,0,0,0,0-.67.55-2.1,1.02-4.11,1.29-4.03.54-8.89.07-10.87-1.05-.09-.05-.17-.1-.24-.15,0,0,0,0,0,0-.55-.61-1.03-1.28-1.45-2,.13.11.3.22.49.33,2.3,1.31,7.97,1.85,12.66,1.22,2.49-.33,4.2-.93,4.92-1.62Z"/><path class="cls-4" d="m182.97,105.02c-6.43,2.5-16.86,1.53-18.33-.31.12-.73.28-1.48.48-2.24,1.11,2.9,12.36,3.96,17.85,2.56Z"/><path class="cls-4" d="m185.65,107.52c0,.81-.07,1.59-.22,2.35h0c-1.17.77-7.26,1.27-13.94-.43,7.27.61,13.1-.71,14.15-2.36,0,.15,0,.3,0,.44Z"/></g><g class="cls-3"><path class="cls-1" d="m115.69,107.52c0,.81-.07,1.59-.22,2.35h0c-.25,1.35-.72,2.62-1.36,3.76h0c-.4.71-.87,1.37-1.4,1.97,0,0,0,0,0,0-1.93,2.19-4.64,3.55-7.65,3.55s-5.64-1.33-7.57-3.46c0,0,0,0,0,0-.55-.61-1.03-1.28-1.45-2,0,0,0,0,0,0-.46-.81-.84-1.68-1.11-2.61h0c-.18-.61-.31-1.24-.4-1.88h0c-.07-.55-.11-1.11-.11-1.68,0-.87.09-1.81.25-2.81.12-.73.28-1.48.48-2.24.32-1.2.73-2.43,1.23-3.62.36-.85.75-1.69,1.19-2.48,1.92-3.5,4.56-6.2,7.48-6.2,1.88,0,3.64,1.12,5.17,2.84.47.53.92,1.12,1.34,1.75.34.51.66,1.05.97,1.6h0c.43.79.83,1.62,1.19,2.47,1.17,2.79,1.88,5.8,1.96,8.23,0,.15,0,.3,0,.44Z"/><path class="cls-4" d="m94.93,111.08h0c-.18-.61-.31-1.24-.4-1.88,1.09,1.86,4.66,2.91,7.65,3.47-4.96-.21-6.67-1.05-7.25-1.59Z"/><path class="cls-4" d="m111.57,94.76c-.46.61-3.86.81-6.81.31,3.9-.25,5.61-1.19,5.46-2.06.47.53.92,1.12,1.34,1.75Z"/><path class="cls-4" d="m113.73,98.84c-.31.8-2.05,1.53-4.83,1.91-4.33.58-9.55.08-11.67-1.13-.44-.25-.71-.51-.83-.78.36-.85.75-1.69,1.19-2.48.08.25.32.49.74.73,1.83,1.04,6.32,1.47,10.04.97,2.47-.33,3.98-.99,4.18-1.7.43.79.83,1.62,1.19,2.47Z"/><path class="cls-4" d="m114.11,113.62c-.4.71-.87,1.37-1.4,1.97,0,0,0,0,0,0-.67.55-2.1,1.02-4.11,1.29-4.03.54-8.89.07-10.87-1.05-.09-.05-.17-.1-.24-.15,0,0,0,0,0,0-.55-.61-1.03-1.28-1.45-2,.13.11.3.22.49.33,2.3,1.31,7.97,1.85,12.66,1.22,2.49-.33,4.2-.93,4.92-1.62Z"/><path class="cls-4" d="m113.01,105.02c-6.43,2.5-16.86,1.53-18.33-.31.12-.73.28-1.48.48-2.24,1.11,2.9,12.36,3.96,17.85,2.56Z"/><path class="cls-4" d="m115.69,107.52c0,.81-.07,1.59-.22,2.35h0c-1.17.77-7.26,1.27-13.94-.43,7.27.61,13.1-.71,14.15-2.36,0,.15,0,.3,0,.44Z"/></g><g class="cls-3"><path class="cls-1" d="m45.73,107.52c0,.81-.07,1.59-.22,2.35h0c-.25,1.35-.72,2.62-1.36,3.76h0c-.4.71-.87,1.37-1.4,1.97,0,0,0,0,0,0-1.93,2.19-4.64,3.55-7.65,3.55s-5.64-1.33-7.57-3.46c0,0,0,0,0,0-.55-.61-1.03-1.28-1.45-2,0,0,0,0,0,0-.46-.81-.84-1.68-1.11-2.61h0c-.18-.61-.31-1.24-.4-1.88h0c-.07-.55-.11-1.11-.11-1.68,0-.87.09-1.81.25-2.81.12-.73.28-1.48.48-2.24.32-1.2.73-2.43,1.23-3.62.36-.85.75-1.69,1.19-2.48,1.92-3.5,4.56-6.2,7.48-6.2,1.88,0,3.64,1.12,5.17,2.84.47.53.92,1.12,1.34,1.75.34.51.66,1.05.97,1.6h0c.43.79.83,1.62,1.19,2.47,1.17,2.79,1.88,5.8,1.96,8.23,0,.15,0,.3,0,.44Z"/><path class="cls-4" d="m24.97,111.08h0c-.18-.61-.31-1.24-.4-1.88,1.09,1.86,4.66,2.91,7.65,3.47-4.96-.21-6.67-1.05-7.25-1.59Z"/><path class="cls-4" d="m41.61,94.76c-.46.61-3.86.81-6.81.31,3.9-.25,5.61-1.19,5.46-2.06.47.53.92,1.12,1.34,1.75Z"/><path class="cls-4" d="m43.76,98.84c-.31.8-2.05,1.53-4.83,1.91-4.33.58-9.55.08-11.67-1.13-.44-.25-.71-.51-.83-.78.36-.85.75-1.69,1.19-2.48.08.25.32.49.74.73,1.83,1.04,6.32,1.47,10.04.97,2.47-.33,3.98-.99,4.18-1.7.43.79.83,1.62,1.19,2.47Z"/><path class="cls-4" d="m44.15,113.62c-.4.71-.87,1.37-1.4,1.97,0,0,0,0,0,0-.67.55-2.1,1.02-4.11,1.29-4.03.54-8.89.07-10.87-1.05-.09-.05-.17-.1-.24-.15,0,0,0,0,0,0-.55-.61-1.03-1.28-1.45-2,.13.11.3.22.49.33,2.3,1.31,7.97,1.85,12.66,1.22,2.49-.33,4.2-.93,4.92-1.62Z"/><path class="cls-4" d="m43.05,105.02c-6.43,2.5-16.86,1.53-18.33-.31.12-.73.28-1.48.48-2.24,1.11,2.9,12.36,3.96,17.85,2.56Z"/><path class="cls-4" d="m45.73,107.52c0,.81-.07,1.59-.22,2.35h0c-1.17.77-7.26,1.27-13.94-.43,7.27.61,13.1-.71,14.15-2.36,0,.15,0,.3,0,.44Z"/></g><g class="cls-3"><path class="cls-1" d="m395.53,177.74c0,.81-.07,1.59-.22,2.35h0c-.25,1.35-.72,2.62-1.36,3.76h0c-.4.71-.87,1.37-1.4,1.97,0,0,0,0,0,0-1.93,2.19-4.64,3.55-7.65,3.55s-5.64-1.33-7.57-3.46c0,0,0,0,0,0-.55-.61-1.03-1.28-1.45-2,0,0,0,0,0,0-.46-.81-.84-1.68-1.11-2.61h0c-.18-.61-.31-1.24-.4-1.88h0c-.07-.55-.11-1.11-.11-1.68,0-.87.09-1.81.25-2.81.12-.73.28-1.48.48-2.24.32-1.2.73-2.43,1.23-3.62.36-.85.75-1.69,1.19-2.48,1.92-3.5,4.56-6.2,7.48-6.2,1.88,0,3.64,1.12,5.17,2.84.47.53.92,1.12,1.34,1.75.34.51.66,1.05.97,1.6h0c.43.79.83,1.62,1.19,2.47,1.17,2.79,1.88,5.8,1.96,8.23,0,.15,0,.3,0,.44Z"/><path class="cls-4" d="m374.78,181.3h0c-.18-.61-.31-1.24-.4-1.88,1.09,1.86,4.66,2.91,7.65,3.47-4.96-.21-6.67-1.05-7.25-1.59Z"/><path class="cls-4" d="m391.41,164.99c-.46.61-3.86.81-6.81.31,3.9-.25,5.61-1.19,5.46-2.06.47.53.92,1.12,1.34,1.75Z"/><path class="cls-4" d="m393.57,169.07c-.31.8-2.05,1.53-4.83,1.91-4.33.58-9.55.08-11.67-1.13-.44-.25-.71-.51-.83-.78.36-.85.75-1.69,1.19-2.48.08.25.32.49.74.73,1.83,1.04,6.32,1.47,10.04.97,2.47-.33,3.98-.99,4.18-1.7.43.79.83,1.62,1.19,2.47Z"/><path class="cls-4" d="m393.95,183.85c-.4.71-.87,1.37-1.4,1.97,0,0,0,0,0,0-.67.55-2.1,1.02-4.11,1.29-4.03.54-8.89.07-10.87-1.05-.09-.05-.17-.1-.24-.15,0,0,0,0,0,0-.55-.61-1.03-1.28-1.45-2,.13.11.3.22.49.33,2.3,1.31,7.97,1.85,12.66,1.22,2.49-.33,4.2-.93,4.92-1.62Z"/><path class="cls-4" d="m392.85,175.25c-6.43,2.5-16.86,1.53-18.33-.31.12-.73.28-1.48.48-2.24,1.11,2.9,12.36,3.96,17.85,2.56Z"/><path class="cls-4" d="m395.53,177.74c0,.81-.07,1.59-.22,2.35h0c-1.17.77-7.26,1.27-13.94-.43,7.27.61,13.1-.71,14.15-2.36,0,.15,0,.3,0,.44Z"/></g><g class="cls-3"><path class="cls-1" d="m325.57,177.74c0,.81-.07,1.59-.22,2.35h0c-.25,1.35-.72,2.62-1.36,3.76h0c-.4.71-.87,1.37-1.4,1.97,0,0,0,0,0,0-1.93,2.19-4.64,3.55-7.65,3.55s-5.64-1.33-7.57-3.46c0,0,0,0,0,0-.55-.61-1.03-1.28-1.45-2,0,0,0,0,0,0-.46-.81-.84-1.68-1.11-2.61h0c-.18-.61-.31-1.24-.4-1.88h0c-.07-.55-.11-1.11-.11-1.68,0-.87.09-1.81.25-2.81.12-.73.28-1.48.48-2.24.32-1.2.73-2.43,1.23-3.62.36-.85.75-1.69,1.19-2.48,1.92-3.5,4.56-6.2,7.48-6.2,1.88,0,3.64,1.12,5.17,2.84.47.53.92,1.12,1.34,1.75.34.51.66,1.05.97,1.6h0c.43.79.83,1.62,1.19,2.47,1.17,2.79,1.88,5.8,1.96,8.23,0,.15,0,.3,0,.44Z"/><path class="cls-4" d="m304.82,181.3h0c-.18-.61-.31-1.24-.4-1.88,1.09,1.86,4.66,2.91,7.65,3.47-4.96-.21-6.67-1.05-7.25-1.59Z"/><path class="cls-4" d="m321.45,164.99c-.46.61-3.86.81-6.81.31,3.9-.25,5.61-1.19,5.46-2.06.47.53.92,1.12,1.34,1.75Z"/><path class="cls-4" d="m323.61,169.07c-.31.8-2.05,1.53-4.83,1.91-4.33.58-9.55.08-11.67-1.13-.44-.25-.71-.51-.83-.78.36-.85.75-1.69,1.19-2.48.08.25.32.49.74.73,1.83,1.04,6.32,1.47,10.04.97,2.47-.33,3.98-.99,4.18-1.7.43.79.83,1.62,1.19,2.47Z"/><path class="cls-4" d="m323.99,183.85c-.4.71-.87,1.37-1.4,1.97,0,0,0,0,0,0-.67.55-2.1,1.02-4.11,1.29-4.03.54-8.89.07-10.87-1.05-.09-.05-.17-.1-.24-.15,0,0,0,0,0,0-.55-.61-1.03-1.28-1.45-2,.13.11.3.22.49.33,2.3,1.31,7.97,1.85,12.66,1.22,2.49-.33,4.2-.93,4.92-1.62Z"/><path class="cls-4" d="m322.89,175.25c-6.43,2.5-16.86,1.53-18.33-.31.12-.73.28-1.48.48-2.24,1.11,2.9,12.36,3.96,17.85,2.56Z"/><path class="cls-4" d="m325.57,177.74c0,.81-.07,1.59-.22,2.35h0c-1.17.77-7.26,1.27-13.94-.43,7.27.61,13.1-.71,14.15-2.36,0,.15,0,.3,0,.44Z"/></g><g class="cls-3"><path class="cls-1" d="m255.61,177.74c0,.81-.07,1.59-.22,2.35h0c-.25,1.35-.72,2.62-1.36,3.76h0c-.4.71-.87,1.37-1.4,1.97,0,0,0,0,0,0-1.93,2.19-4.64,3.55-7.65,3.55s-5.64-1.33-7.57-3.46c0,0,0,0,0,0-.55-.61-1.03-1.28-1.45-2,0,0,0,0,0,0-.46-.81-.84-1.68-1.11-2.61h0c-.18-.61-.31-1.24-.4-1.88h0c-.07-.55-.11-1.11-.11-1.68,0-.87.09-1.81.25-2.81.12-.73.28-1.48.48-2.24.32-1.2.73-2.43,1.23-3.62.36-.85.75-1.69,1.19-2.48,1.92-3.5,4.56-6.2,7.48-6.2,1.88,0,3.64,1.12,5.17,2.84.47.53.92,1.12,1.34,1.75.34.51.66,1.05.97,1.6h0c.43.79.83,1.62,1.19,2.47,1.17,2.79,1.88,5.8,1.96,8.23,0,.15,0,.3,0,.44Z"/><path class="cls-4" d="m234.86,181.3h0c-.18-.61-.31-1.24-.4-1.88,1.09,1.86,4.66,2.91,7.65,3.47-4.96-.21-6.67-1.05-7.25-1.59Z"/><path class="cls-4" d="m251.49,164.99c-.46.61-3.86.81-6.81.31,3.9-.25,5.61-1.19,5.46-2.06.47.53.92,1.12,1.34,1.75Z"/><path class="cls-4" d="m253.65,169.07c-.31.8-2.05,1.53-4.83,1.91-4.33.58-9.55.08-11.67-1.13-.44-.25-.71-.51-.83-.78.36-.85.75-1.69,1.19-2.48.08.25.32.49.74.73,1.83,1.04,6.32,1.47,10.04.97,2.47-.33,3.98-.99,4.18-1.7.43.79.83,1.62,1.19,2.47Z"/><path class="cls-4" d="m254.03,183.85c-.4.71-.87,1.37-1.4,1.97,0,0,0,0,0,0-.67.55-2.1,1.02-4.11,1.29-4.03.54-8.89.07-10.87-1.05-.09-.05-.17-.1-.24-.15,0,0,0,0,0,0-.55-.61-1.03-1.28-1.45-2,.13.11.3.22.49.33,2.3,1.31,7.97,1.85,12.66,1.22,2.49-.33,4.2-.93,4.92-1.62Z"/><path class="cls-4" d="m252.93,175.25c-6.43,2.5-16.86,1.53-18.33-.31.12-.73.28-1.48.48-2.24,1.11,2.9,12.36,3.96,17.85,2.56Z"/><path class="cls-4" d="m255.61,177.74c0,.81-.07,1.59-.22,2.35h0c-1.17.77-7.26,1.27-13.94-.43,7.27.61,13.1-.71,14.15-2.36,0,.15,0,.3,0,.44Z"/></g><g class="cls-3"><path class="cls-1" d="m185.65,177.74c0,.81-.07,1.59-.22,2.35h0c-.25,1.35-.72,2.62-1.36,3.76h0c-.4.71-.87,1.37-1.4,1.97,0,0,0,0,0,0-1.93,2.19-4.64,3.55-7.65,3.55s-5.64-1.33-7.57-3.46c0,0,0,0,0,0-.55-.61-1.03-1.28-1.45-2,0,0,0,0,0,0-.46-.81-.84-1.68-1.11-2.61h0c-.18-.61-.31-1.24-.4-1.88h0c-.07-.55-.11-1.11-.11-1.68,0-.87.09-1.81.25-2.81.12-.73.28-1.48.48-2.24.32-1.2.73-2.43,1.23-3.62.36-.85.75-1.69,1.19-2.48,1.92-3.5,4.56-6.2,7.48-6.2,1.88,0,3.64,1.12,5.17,2.84.47.53.92,1.12,1.34,1.75.34.51.66,1.05.97,1.6h0c.43.79.83,1.62,1.19,2.47,1.17,2.79,1.88,5.8,1.96,8.23,0,.15,0,.3,0,.44Z"/><path class="cls-4" d="m164.9,181.3h0c-.18-.61-.31-1.24-.4-1.88,1.09,1.86,4.66,2.91,7.65,3.47-4.96-.21-6.67-1.05-7.25-1.59Z"/><path class="cls-4" d="m181.53,164.99c-.46.61-3.86.81-6.81.31,3.9-.25,5.61-1.19,5.46-2.06.47.53.92,1.12,1.34,1.75Z"/><path class="cls-4" d="m183.69,169.07c-.31.8-2.05,1.53-4.83,1.91-4.33.58-9.55.08-11.67-1.13-.44-.25-.71-.51-.83-.78.36-.85.75-1.69,1.19-2.48.08.25.32.49.74.73,1.83,1.04,6.32,1.47,10.04.97,2.47-.33,3.98-.99,4.18-1.7.43.79.83,1.62,1.19,2.47Z"/><path class="cls-4" d="m184.07,183.85c-.4.71-.87,1.37-1.4,1.97,0,0,0,0,0,0-.67.55-2.1,1.02-4.11,1.29-4.03.54-8.89.07-10.87-1.05-.09-.05-.17-.1-.24-.15,0,0,0,0,0,0-.55-.61-1.03-1.28-1.45-2,.13.11.3.22.49.33,2.3,1.31,7.97,1.85,12.66,1.22,2.49-.33,4.2-.93,4.92-1.62Z"/><path class="cls-4" d="m182.97,175.25c-6.43,2.5-16.86,1.53-18.33-.31.12-.73.28-1.48.48-2.24,1.11,2.9,12.36,3.96,17.85,2.56Z"/><path class="cls-4" d="m185.65,177.74c0,.81-.07,1.59-.22,2.35h0c-1.17.77-7.26,1.27-13.94-.43,7.27.61,13.1-.71,14.15-2.36,0,.15,0,.3,0,.44Z"/></g><g class="cls-3"><path class="cls-1" d="m115.69,177.74c0,.81-.07,1.59-.22,2.35h0c-.25,1.35-.72,2.62-1.36,3.76h0c-.4.71-.87,1.37-1.4,1.97,0,0,0,0,0,0-1.93,2.19-4.64,3.55-7.65,3.55s-5.64-1.33-7.57-3.46c0,0,0,0,0,0-.55-.61-1.03-1.28-1.45-2,0,0,0,0,0,0-.46-.81-.84-1.68-1.11-2.61h0c-.18-.61-.31-1.24-.4-1.88h0c-.07-.55-.11-1.11-.11-1.68,0-.87.09-1.81.25-2.81.12-.73.28-1.48.48-2.24.32-1.2.73-2.43,1.23-3.62.36-.85.75-1.69,1.19-2.48,1.92-3.5,4.56-6.2,7.48-6.2,1.88,0,3.64,1.12,5.17,2.84.47.53.92,1.12,1.34,1.75.34.51.66,1.05.97,1.6h0c.43.79.83,1.62,1.19,2.47,1.17,2.79,1.88,5.8,1.96,8.23,0,.15,0,.3,0,.44Z"/><path class="cls-4" d="m94.93,181.3h0c-.18-.61-.31-1.24-.4-1.88,1.09,1.86,4.66,2.91,7.65,3.47-4.96-.21-6.67-1.05-7.25-1.59Z"/><path class="cls-4" d="m111.57,164.99c-.46.61-3.86.81-6.81.31,3.9-.25,5.61-1.19,5.46-2.06.47.53.92,1.12,1.34,1.75Z"/><path class="cls-4" d="m113.73,169.07c-.31.8-2.05,1.53-4.83,1.91-4.33.58-9.55.08-11.67-1.13-.44-.25-.71-.51-.83-.78.36-.85.75-1.69,1.19-2.48.08.25.32.49.74.73,1.83,1.04,6.32,1.47,10.04.97,2.47-.33,3.98-.99,4.18-1.7.43.79.83,1.62,1.19,2.47Z"/><path class="cls-4" d="m114.11,183.85c-.4.71-.87,1.37-1.4,1.97,0,0,0,0,0,0-.67.55-2.1,1.02-4.11,1.29-4.03.54-8.89.07-10.87-1.05-.09-.05-.17-.1-.24-.15,0,0,0,0,0,0-.55-.61-1.03-1.28-1.45-2,.13.11.3.22.49.33,2.3,1.31,7.97,1.85,12.66,1.22,2.49-.33,4.2-.93,4.92-1.62Z"/><path class="cls-4" d="m113.01,175.25c-6.43,2.5-16.86,1.53-18.33-.31.12-.73.28-1.48.48-2.24,1.11,2.9,12.36,3.96,17.85,2.56Z"/><path class="cls-4" d="m115.69,177.74c0,.81-.07,1.59-.22,2.35h0c-1.17.77-7.26,1.27-13.94-.43,7.27.61,13.1-.71,14.15-2.36,0,.15,0,.3,0,.44Z"/></g><g class="cls-3"><path class="cls-1" d="m45.73,177.74c0,.81-.07,1.59-.22,2.35h0c-.25,1.35-.72,2.62-1.36,3.76h0c-.4.71-.87,1.37-1.4,1.97,0,0,0,0,0,0-1.93,2.19-4.64,3.55-7.65,3.55s-5.64-1.33-7.57-3.46c0,0,0,0,0,0-.55-.61-1.03-1.28-1.45-2,0,0,0,0,0,0-.46-.81-.84-1.68-1.11-2.61h0c-.18-.61-.31-1.24-.4-1.88h0c-.07-.55-.11-1.11-.11-1.68,0-.87.09-1.81.25-2.81.12-.73.28-1.48.48-2.24.32-1.2.73-2.43,1.23-3.62.36-.85.75-1.69,1.19-2.48,1.92-3.5,4.56-6.2,7.48-6.2,1.88,0,3.64,1.12,5.17,2.84.47.53.92,1.12,1.34,1.75.34.51.66,1.05.97,1.6h0c.43.79.83,1.62,1.19,2.47,1.17,2.79,1.88,5.8,1.96,8.23,0,.15,0,.3,0,.44Z"/><path class="cls-4" d="m24.97,181.3h0c-.18-.61-.31-1.24-.4-1.88,1.09,1.86,4.66,2.91,7.65,3.47-4.96-.21-6.67-1.05-7.25-1.59Z"/><path class="cls-4" d="m41.61,164.99c-.46.61-3.86.81-6.81.31,3.9-.25,5.61-1.19,5.46-2.06.47.53.92,1.12,1.34,1.75Z"/><path class="cls-4" d="m43.76,169.07c-.31.8-2.05,1.53-4.83,1.91-4.33.58-9.55.08-11.67-1.13-.44-.25-.71-.51-.83-.78.36-.85.75-1.69,1.19-2.48.08.25.32.49.74.73,1.83,1.04,6.32,1.47,10.04.97,2.47-.33,3.98-.99,4.18-1.7.43.79.83,1.62,1.19,2.47Z"/><path class="cls-4" d="m44.15,183.85c-.4.71-.87,1.37-1.4,1.97,0,0,0,0,0,0-.67.55-2.1,1.02-4.11,1.29-4.03.54-8.89.07-10.87-1.05-.09-.05-.17-.1-.24-.15,0,0,0,0,0,0-.55-.61-1.03-1.28-1.45-2,.13.11.3.22.49.33,2.3,1.31,7.97,1.85,12.66,1.22,2.49-.33,4.2-.93,4.92-1.62Z"/><path class="cls-4" d="m43.05,175.25c-6.43,2.5-16.86,1.53-18.33-.31.12-.73.28-1.48.48-2.24,1.11,2.9,12.36,3.96,17.85,2.56Z"/><path class="cls-4" d="m45.73,177.74c0,.81-.07,1.59-.22,2.35h0c-1.17.77-7.26,1.27-13.94-.43,7.27.61,13.1-.71,14.15-2.36,0,.15,0,.3,0,.44Z"/></g><g class="cls-3"><path class="cls-1" d="m395.53,247.97c0,.81-.07,1.59-.22,2.35h0c-.25,1.35-.72,2.62-1.36,3.76h0c-.4.71-.87,1.37-1.4,1.97,0,0,0,0,0,0-1.93,2.19-4.64,3.55-7.65,3.55s-5.64-1.33-7.57-3.46c0,0,0,0,0,0-.55-.61-1.03-1.28-1.45-2,0,0,0,0,0,0-.46-.81-.84-1.68-1.11-2.61h0c-.18-.61-.31-1.24-.4-1.88h0c-.07-.55-.11-1.11-.11-1.68,0-.87.09-1.81.25-2.81.12-.73.28-1.48.48-2.24.32-1.2.73-2.43,1.23-3.62.36-.85.75-1.69,1.19-2.48,1.92-3.5,4.56-6.2,7.48-6.2,1.88,0,3.64,1.12,5.17,2.84.47.53.92,1.12,1.34,1.75.34.51.66,1.05.97,1.6h0c.43.79.83,1.62,1.19,2.47,1.17,2.79,1.88,5.8,1.96,8.23,0,.15,0,.3,0,.44Z"/><path class="cls-4" d="m374.78,251.53h0c-.18-.61-.31-1.24-.4-1.88,1.09,1.86,4.66,2.91,7.65,3.47-4.96-.21-6.67-1.05-7.25-1.59Z"/><path class="cls-4" d="m391.41,235.22c-.46.61-3.86.81-6.81.31,3.9-.25,5.61-1.19,5.46-2.06.47.53.92,1.12,1.34,1.75Z"/><path class="cls-4" d="m393.57,239.3c-.31.8-2.05,1.53-4.83,1.91-4.33.58-9.55.08-11.67-1.13-.44-.25-.71-.51-.83-.78.36-.85.75-1.69,1.19-2.48.08.25.32.49.74.73,1.83,1.04,6.32,1.47,10.04.97,2.47-.33,3.98-.99,4.18-1.7.43.79.83,1.62,1.19,2.47Z"/><path class="cls-4" d="m393.95,254.08c-.4.71-.87,1.37-1.4,1.97,0,0,0,0,0,0-.67.55-2.1,1.02-4.11,1.29-4.03.54-8.89.07-10.87-1.05-.09-.05-.17-.1-.24-.15,0,0,0,0,0,0-.55-.61-1.03-1.28-1.45-2,.13.11.3.22.49.33,2.3,1.31,7.97,1.85,12.66,1.22,2.49-.33,4.2-.93,4.92-1.62Z"/><path class="cls-4" d="m392.85,245.48c-6.43,2.5-16.86,1.53-18.33-.31.12-.73.28-1.48.48-2.24,1.11,2.9,12.36,3.96,17.85,2.56Z"/><path class="cls-4" d="m395.53,247.97c0,.81-.07,1.59-.22,2.35h0c-1.17.77-7.26,1.27-13.94-.43,7.27.61,13.1-.71,14.15-2.36,0,.15,0,.3,0,.44Z"/></g><g class="cls-3"><path class="cls-1" d="m325.57,247.97c0,.81-.07,1.59-.22,2.35h0c-.25,1.35-.72,2.62-1.36,3.76h0c-.4.71-.87,1.37-1.4,1.97,0,0,0,0,0,0-1.93,2.19-4.64,3.55-7.65,3.55s-5.64-1.33-7.57-3.46c0,0,0,0,0,0-.55-.61-1.03-1.28-1.45-2,0,0,0,0,0,0-.46-.81-.84-1.68-1.11-2.61h0c-.18-.61-.31-1.24-.4-1.88h0c-.07-.55-.11-1.11-.11-1.68,0-.87.09-1.81.25-2.81.12-.73.28-1.48.48-2.24.32-1.2.73-2.43,1.23-3.62.36-.85.75-1.69,1.19-2.48,1.92-3.5,4.56-6.2,7.48-6.2,1.88,0,3.64,1.12,5.17,2.84.47.53.92,1.12,1.34,1.75.34.51.66,1.05.97,1.6h0c.43.79.83,1.62,1.19,2.47,1.17,2.79,1.88,5.8,1.96,8.23,0,.15,0,.3,0,.44Z"/><path class="cls-4" d="m304.82,251.53h0c-.18-.61-.31-1.24-.4-1.88,1.09,1.86,4.66,2.91,7.65,3.47-4.96-.21-6.67-1.05-7.25-1.59Z"/><path class="cls-4" d="m321.45,235.22c-.46.61-3.86.81-6.81.31,3.9-.25,5.61-1.19,5.46-2.06.47.53.92,1.12,1.34,1.75Z"/><path class="cls-4" d="m323.61,239.3c-.31.8-2.05,1.53-4.83,1.91-4.33.58-9.55.08-11.67-1.13-.44-.25-.71-.51-.83-.78.36-.85.75-1.69,1.19-2.48.08.25.32.49.74.73,1.83,1.04,6.32,1.47,10.04.97,2.47-.33,3.98-.99,4.18-1.7.43.79.83,1.62,1.19,2.47Z"/><path class="cls-4" d="m323.99,254.08c-.4.71-.87,1.37-1.4,1.97,0,0,0,0,0,0-.67.55-2.1,1.02-4.11,1.29-4.03.54-8.89.07-10.87-1.05-.09-.05-.17-.1-.24-.15,0,0,0,0,0,0-.55-.61-1.03-1.28-1.45-2,.13.11.3.22.49.33,2.3,1.31,7.97,1.85,12.66,1.22,2.49-.33,4.2-.93,4.92-1.62Z"/><path class="cls-4" d="m322.89,245.48c-6.43,2.5-16.86,1.53-18.33-.31.12-.73.28-1.48.48-2.24,1.11,2.9,12.36,3.96,17.85,2.56Z"/><path class="cls-4" d="m325.57,247.97c0,.81-.07,1.59-.22,2.35h0c-1.17.77-7.26,1.27-13.94-.43,7.27.61,13.1-.71,14.15-2.36,0,.15,0,.3,0,.44Z"/></g><g class="cls-3"><path class="cls-1" d="m255.61,247.97c0,.81-.07,1.59-.22,2.35h0c-.25,1.35-.72,2.62-1.36,3.76h0c-.4.71-.87,1.37-1.4,1.97,0,0,0,0,0,0-1.93,2.19-4.64,3.55-7.65,3.55s-5.64-1.33-7.57-3.46c0,0,0,0,0,0-.55-.61-1.03-1.28-1.45-2,0,0,0,0,0,0-.46-.81-.84-1.68-1.11-2.61h0c-.18-.61-.31-1.24-.4-1.88h0c-.07-.55-.11-1.11-.11-1.68,0-.87.09-1.81.25-2.81.12-.73.28-1.48.48-2.24.32-1.2.73-2.43,1.23-3.62.36-.85.75-1.69,1.19-2.48,1.92-3.5,4.56-6.2,7.48-6.2,1.88,0,3.64,1.12,5.17,2.84.47.53.92,1.12,1.34,1.75.34.51.66,1.05.97,1.6h0c.43.79.83,1.62,1.19,2.47,1.17,2.79,1.88,5.8,1.96,8.23,0,.15,0,.3,0,.44Z"/><path class="cls-4" d="m234.86,251.53h0c-.18-.61-.31-1.24-.4-1.88,1.09,1.86,4.66,2.91,7.65,3.47-4.96-.21-6.67-1.05-7.25-1.59Z"/><path class="cls-4" d="m251.49,235.22c-.46.61-3.86.81-6.81.31,3.9-.25,5.61-1.19,5.46-2.06.47.53.92,1.12,1.34,1.75Z"/><path class="cls-4" d="m253.65,239.3c-.31.8-2.05,1.53-4.83,1.91-4.33.58-9.55.08-11.67-1.13-.44-.25-.71-.51-.83-.78.36-.85.75-1.69,1.19-2.48.08.25.32.49.74.73,1.83,1.04,6.32,1.47,10.04.97,2.47-.33,3.98-.99,4.18-1.7.43.79.83,1.62,1.19,2.47Z"/><path class="cls-4" d="m254.03,254.08c-.4.71-.87,1.37-1.4,1.97,0,0,0,0,0,0-.67.55-2.1,1.02-4.11,1.29-4.03.54-8.89.07-10.87-1.05-.09-.05-.17-.1-.24-.15,0,0,0,0,0,0-.55-.61-1.03-1.28-1.45-2,.13.11.3.22.49.33,2.3,1.31,7.97,1.85,12.66,1.22,2.49-.33,4.2-.93,4.92-1.62Z"/><path class="cls-4" d="m252.93,245.48c-6.43,2.5-16.86,1.53-18.33-.31.12-.73.28-1.48.48-2.24,1.11,2.9,12.36,3.96,17.85,2.56Z"/><path class="cls-4" d="m255.61,247.97c0,.81-.07,1.59-.22,2.35h0c-1.17.77-7.26,1.27-13.94-.43,7.27.61,13.1-.71,14.15-2.36,0,.15,0,.3,0,.44Z"/></g><g class="cls-3"><path class="cls-1" d="m185.65,247.97c0,.81-.07,1.59-.22,2.35h0c-.25,1.35-.72,2.62-1.36,3.76h0c-.4.71-.87,1.37-1.4,1.97,0,0,0,0,0,0-1.93,2.19-4.64,3.55-7.65,3.55s-5.64-1.33-7.57-3.46c0,0,0,0,0,0-.55-.61-1.03-1.28-1.45-2,0,0,0,0,0,0-.46-.81-.84-1.68-1.11-2.61h0c-.18-.61-.31-1.24-.4-1.88h0c-.07-.55-.11-1.11-.11-1.68,0-.87.09-1.81.25-2.81.12-.73.28-1.48.48-2.24.32-1.2.73-2.43,1.23-3.62.36-.85.75-1.69,1.19-2.48,1.92-3.5,4.56-6.2,7.48-6.2,1.88,0,3.64,1.12,5.17,2.84.47.53.92,1.12,1.34,1.75.34.51.66,1.05.97,1.6h0c.43.79.83,1.62,1.19,2.47,1.17,2.79,1.88,5.8,1.96,8.23,0,.15,0,.3,0,.44Z"/><path class="cls-4" d="m164.9,251.53h0c-.18-.61-.31-1.24-.4-1.88,1.09,1.86,4.66,2.91,7.65,3.47-4.96-.21-6.67-1.05-7.25-1.59Z"/><path class="cls-4" d="m181.53,235.22c-.46.61-3.86.81-6.81.31,3.9-.25,5.61-1.19,5.46-2.06.47.53.92,1.12,1.34,1.75Z"/><path class="cls-4" d="m183.69,239.3c-.31.8-2.05,1.53-4.83,1.91-4.33.58-9.55.08-11.67-1.13-.44-.25-.71-.51-.83-.78.36-.85.75-1.69,1.19-2.48.08.25.32.49.74.73,1.83,1.04,6.32,1.47,10.04.97,2.47-.33,3.98-.99,4.18-1.7.43.79.83,1.62,1.19,2.47Z"/><path class="cls-4" d="m184.07,254.08c-.4.71-.87,1.37-1.4,1.97,0,0,0,0,0,0-.67.55-2.1,1.02-4.11,1.29-4.03.54-8.89.07-10.87-1.05-.09-.05-.17-.1-.24-.15,0,0,0,0,0,0-.55-.61-1.03-1.28-1.45-2,.13.11.3.22.49.33,2.3,1.31,7.97,1.85,12.66,1.22,2.49-.33,4.2-.93,4.92-1.62Z"/><path class="cls-4" d="m182.97,245.48c-6.43,2.5-16.86,1.53-18.33-.31.12-.73.28-1.48.48-2.24,1.11,2.9,12.36,3.96,17.85,2.56Z"/><path class="cls-4" d="m185.65,247.97c0,.81-.07,1.59-.22,2.35h0c-1.17.77-7.26,1.27-13.94-.43,7.27.61,13.1-.71,14.15-2.36,0,.15,0,.3,0,.44Z"/></g><g class="cls-3"><path class="cls-1" d="m115.69,247.97c0,.81-.07,1.59-.22,2.35h0c-.25,1.35-.72,2.62-1.36,3.76h0c-.4.71-.87,1.37-1.4,1.97,0,0,0,0,0,0-1.93,2.19-4.64,3.55-7.65,3.55s-5.64-1.33-7.57-3.46c0,0,0,0,0,0-.55-.61-1.03-1.28-1.45-2,0,0,0,0,0,0-.46-.81-.84-1.68-1.11-2.61h0c-.18-.61-.31-1.24-.4-1.88h0c-.07-.55-.11-1.11-.11-1.68,0-.87.09-1.81.25-2.81.12-.73.28-1.48.48-2.24.32-1.2.73-2.43,1.23-3.62.36-.85.75-1.69,1.19-2.48,1.92-3.5,4.56-6.2,7.48-6.2,1.88,0,3.64,1.12,5.17,2.84.47.53.92,1.12,1.34,1.75.34.51.66,1.05.97,1.6h0c.43.79.83,1.62,1.19,2.47,1.17,2.79,1.88,5.8,1.96,8.23,0,.15,0,.3,0,.44Z"/><path class="cls-4" d="m94.93,251.53h0c-.18-.61-.31-1.24-.4-1.88,1.09,1.86,4.66,2.91,7.65,3.47-4.96-.21-6.67-1.05-7.25-1.59Z"/><path class="cls-4" d="m111.57,235.22c-.46.61-3.86.81-6.81.31,3.9-.25,5.61-1.19,5.46-2.06.47.53.92,1.12,1.34,1.75Z"/><path class="cls-4" d="m113.73,239.3c-.31.8-2.05,1.53-4.83,1.91-4.33.58-9.55.08-11.67-1.13-.44-.25-.71-.51-.83-.78.36-.85.75-1.69,1.19-2.48.08.25.32.49.74.73,1.83,1.04,6.32,1.47,10.04.97,2.47-.33,3.98-.99,4.18-1.7.43.79.83,1.62,1.19,2.47Z"/><path class="cls-4" d="m114.11,254.08c-.4.71-.87,1.37-1.4,1.97,0,0,0,0,0,0-.67.55-2.1,1.02-4.11,1.29-4.03.54-8.89.07-10.87-1.05-.09-.05-.17-.1-.24-.15,0,0,0,0,0,0-.55-.61-1.03-1.28-1.45-2,.13.11.3.22.49.33,2.3,1.31,7.97,1.85,12.66,1.22,2.49-.33,4.2-.93,4.92-1.62Z"/><path class="cls-4" d="m113.01,245.48c-6.43,2.5-16.86,1.53-18.33-.31.12-.73.28-1.48.48-2.24,1.11,2.9,12.36,3.96,17.85,2.56Z"/><path class="cls-4" d="m115.69,247.97c0,.81-.07,1.59-.22,2.35h0c-1.17.77-7.26,1.27-13.94-.43,7.27.61,13.1-.71,14.15-2.36,0,.15,0,.3,0,.44Z"/></g><g class="cls-3"><path class="cls-1" d="m45.73,247.97c0,.81-.07,1.59-.22,2.35h0c-.25,1.35-.72,2.62-1.36,3.76h0c-.4.71-.87,1.37-1.4,1.97,0,0,0,0,0,0-1.93,2.19-4.64,3.55-7.65,3.55s-5.64-1.33-7.57-3.46c0,0,0,0,0,0-.55-.61-1.03-1.28-1.45-2,0,0,0,0,0,0-.46-.81-.84-1.68-1.11-2.61h0c-.18-.61-.31-1.24-.4-1.88h0c-.07-.55-.11-1.11-.11-1.68,0-.87.09-1.81.25-2.81.12-.73.28-1.48.48-2.24.32-1.2.73-2.43,1.23-3.62.36-.85.75-1.69,1.19-2.48,1.92-3.5,4.56-6.2,7.48-6.2,1.88,0,3.64,1.12,5.17,2.84.47.53.92,1.12,1.34,1.75.34.51.66,1.05.97,1.6h0c.43.79.83,1.62,1.19,2.47,1.17,2.79,1.88,5.8,1.96,8.23,0,.15,0,.3,0,.44Z"/><path class="cls-4" d="m24.97,251.53h0c-.18-.61-.31-1.24-.4-1.88,1.09,1.86,4.66,2.91,7.65,3.47-4.96-.21-6.67-1.05-7.25-1.59Z"/><path class="cls-4" d="m41.61,235.22c-.46.61-3.86.81-6.81.31,3.9-.25,5.61-1.19,5.46-2.06.47.53.92,1.12,1.34,1.75Z"/><path class="cls-4" d="m43.76,239.3c-.31.8-2.05,1.53-4.83,1.91-4.33.58-9.55.08-11.67-1.13-.44-.25-.71-.51-.83-.78.36-.85.75-1.69,1.19-2.48.08.25.32.49.74.73,1.83,1.04,6.32,1.47,10.04.97,2.47-.33,3.98-.99,4.18-1.7.43.79.83,1.62,1.19,2.47Z"/><path class="cls-4" d="m44.15,254.08c-.4.71-.87,1.37-1.4,1.97,0,0,0,0,0,0-.67.55-2.1,1.02-4.11,1.29-4.03.54-8.89.07-10.87-1.05-.09-.05-.17-.1-.24-.15,0,0,0,0,0,0-.55-.61-1.03-1.28-1.45-2,.13.11.3.22.49.33,2.3,1.31,7.97,1.85,12.66,1.22,2.49-.33,4.2-.93,4.92-1.62Z"/><path class="cls-4" d="m43.05,245.48c-6.43,2.5-16.86,1.53-18.33-.31.12-.73.28-1.48.48-2.24,1.11,2.9,12.36,3.96,17.85,2.56Z"/><path class="cls-4" d="m45.73,247.97c0,.81-.07,1.59-.22,2.35h0c-1.17.77-7.26,1.27-13.94-.43,7.27.61,13.1-.71,14.15-2.36,0,.15,0,.3,0,.44Z"/></g><g class="cls-3"><path class="cls-1" d="m395.53,318.2c0,.81-.07,1.59-.22,2.35h0c-.25,1.35-.72,2.62-1.36,3.76h0c-.4.71-.87,1.37-1.4,1.97,0,0,0,0,0,0-1.93,2.19-4.64,3.55-7.65,3.55s-5.64-1.33-7.57-3.46c0,0,0,0,0,0-.55-.61-1.03-1.28-1.45-2,0,0,0,0,0,0-.46-.81-.84-1.68-1.11-2.61h0c-.18-.61-.31-1.24-.4-1.88h0c-.07-.55-.11-1.11-.11-1.68,0-.87.09-1.81.25-2.81.12-.73.28-1.48.48-2.24.32-1.2.73-2.43,1.23-3.62.36-.85.75-1.69,1.19-2.48,1.92-3.5,4.56-6.2,7.48-6.2,1.88,0,3.64,1.12,5.17,2.84.47.53.92,1.12,1.34,1.75.34.51.66,1.05.97,1.6h0c.43.79.83,1.62,1.19,2.47,1.17,2.79,1.88,5.8,1.96,8.23,0,.15,0,.3,0,.44Z"/><path class="cls-4" d="m374.78,321.76h0c-.18-.61-.31-1.24-.4-1.88,1.09,1.86,4.66,2.91,7.65,3.47-4.96-.21-6.67-1.05-7.25-1.59Z"/><path class="cls-4" d="m391.41,305.45c-.46.61-3.86.81-6.81.31,3.9-.25,5.61-1.19,5.46-2.06.47.53.92,1.12,1.34,1.75Z"/><path class="cls-4" d="m393.57,309.53c-.31.8-2.05,1.53-4.83,1.91-4.33.58-9.55.08-11.67-1.13-.44-.25-.71-.51-.83-.78.36-.85.75-1.69,1.19-2.48.08.25.32.49.74.73,1.83,1.04,6.32,1.47,10.04.97,2.47-.33,3.98-.99,4.18-1.7.43.79.83,1.62,1.19,2.47Z"/><path class="cls-4" d="m393.95,324.31c-.4.71-.87,1.37-1.4,1.97,0,0,0,0,0,0-.67.55-2.1,1.02-4.11,1.29-4.03.54-8.89.07-10.87-1.05-.09-.05-.17-.1-.24-.15,0,0,0,0,0,0-.55-.61-1.03-1.28-1.45-2,.13.11.3.22.49.33,2.3,1.31,7.97,1.85,12.66,1.22,2.49-.33,4.2-.93,4.92-1.62Z"/><path class="cls-4" d="m392.85,315.71c-6.43,2.5-16.86,1.53-18.33-.31.12-.73.28-1.48.48-2.24,1.11,2.9,12.36,3.96,17.85,2.56Z"/><path class="cls-4" d="m395.53,318.2c0,.81-.07,1.59-.22,2.35h0c-1.17.77-7.26,1.27-13.94-.43,7.27.61,13.1-.71,14.15-2.36,0,.15,0,.3,0,.44Z"/></g><g class="cls-3"><path class="cls-1" d="m325.57,318.2c0,.81-.07,1.59-.22,2.35h0c-.25,1.35-.72,2.62-1.36,3.76h0c-.4.71-.87,1.37-1.4,1.97,0,0,0,0,0,0-1.93,2.19-4.64,3.55-7.65,3.55s-5.64-1.33-7.57-3.46c0,0,0,0,0,0-.55-.61-1.03-1.28-1.45-2,0,0,0,0,0,0-.46-.81-.84-1.68-1.11-2.61h0c-.18-.61-.31-1.24-.4-1.88h0c-.07-.55-.11-1.11-.11-1.68,0-.87.09-1.81.25-2.81.12-.73.28-1.48.48-2.24.32-1.2.73-2.43,1.23-3.62.36-.85.75-1.69,1.19-2.48,1.92-3.5,4.56-6.2,7.48-6.2,1.88,0,3.64,1.12,5.17,2.84.47.53.92,1.12,1.34,1.75.34.51.66,1.05.97,1.6h0c.43.79.83,1.62,1.19,2.47,1.17,2.79,1.88,5.8,1.96,8.23,0,.15,0,.3,0,.44Z"/><path class="cls-4" d="m304.82,321.76h0c-.18-.61-.31-1.24-.4-1.88,1.09,1.86,4.66,2.91,7.65,3.47-4.96-.21-6.67-1.05-7.25-1.59Z"/><path class="cls-4" d="m321.45,305.45c-.46.61-3.86.81-6.81.31,3.9-.25,5.61-1.19,5.46-2.06.47.53.92,1.12,1.34,1.75Z"/><path class="cls-4" d="m323.61,309.53c-.31.8-2.05,1.53-4.83,1.91-4.33.58-9.55.08-11.67-1.13-.44-.25-.71-.51-.83-.78.36-.85.75-1.69,1.19-2.48.08.25.32.49.74.73,1.83,1.04,6.32,1.47,10.04.97,2.47-.33,3.98-.99,4.18-1.7.43.79.83,1.62,1.19,2.47Z"/><path class="cls-4" d="m323.99,324.31c-.4.71-.87,1.37-1.4,1.97,0,0,0,0,0,0-.67.55-2.1,1.02-4.11,1.29-4.03.54-8.89.07-10.87-1.05-.09-.05-.17-.1-.24-.15,0,0,0,0,0,0-.55-.61-1.03-1.28-1.45-2,.13.11.3.22.49.33,2.3,1.31,7.97,1.85,12.66,1.22,2.49-.33,4.2-.93,4.92-1.62Z"/><path class="cls-4" d="m322.89,315.71c-6.43,2.5-16.86,1.53-18.33-.31.12-.73.28-1.48.48-2.24,1.11,2.9,12.36,3.96,17.85,2.56Z"/><path class="cls-4" d="m325.57,318.2c0,.81-.07,1.59-.22,2.35h0c-1.17.77-7.26,1.27-13.94-.43,7.27.61,13.1-.71,14.15-2.36,0,.15,0,.3,0,.44Z"/></g><g class="cls-3"><path class="cls-1" d="m255.61,318.2c0,.81-.07,1.59-.22,2.35h0c-.25,1.35-.72,2.62-1.36,3.76h0c-.4.71-.87,1.37-1.4,1.97,0,0,0,0,0,0-1.93,2.19-4.64,3.55-7.65,3.55s-5.64-1.33-7.57-3.46c0,0,0,0,0,0-.55-.61-1.03-1.28-1.45-2,0,0,0,0,0,0-.46-.81-.84-1.68-1.11-2.61h0c-.18-.61-.31-1.24-.4-1.88h0c-.07-.55-.11-1.11-.11-1.68,0-.87.09-1.81.25-2.81.12-.73.28-1.48.48-2.24.32-1.2.73-2.43,1.23-3.62.36-.85.75-1.69,1.19-2.48,1.92-3.5,4.56-6.2,7.48-6.2,1.88,0,3.64,1.12,5.17,2.84.47.53.92,1.12,1.34,1.75.34.51.66,1.05.97,1.6h0c.43.79.83,1.62,1.19,2.47,1.17,2.79,1.88,5.8,1.96,8.23,0,.15,0,.3,0,.44Z"/><path class="cls-4" d="m234.86,321.76h0c-.18-.61-.31-1.24-.4-1.88,1.09,1.86,4.66,2.91,7.65,3.47-4.96-.21-6.67-1.05-7.25-1.59Z"/><path class="cls-4" d="m251.49,305.45c-.46.61-3.86.81-6.81.31,3.9-.25,5.61-1.19,5.46-2.06.47.53.92,1.12,1.34,1.75Z"/><path class="cls-4" d="m253.65,309.53c-.31.8-2.05,1.53-4.83,1.91-4.33.58-9.55.08-11.67-1.13-.44-.25-.71-.51-.83-.78.36-.85.75-1.69,1.19-2.48.08.25.32.49.74.73,1.83,1.04,6.32,1.47,10.04.97,2.47-.33,3.98-.99,4.18-1.7.43.79.83,1.62,1.19,2.47Z"/><path class="cls-4" d="m254.03,324.31c-.4.71-.87,1.37-1.4,1.97,0,0,0,0,0,0-.67.55-2.1,1.02-4.11,1.29-4.03.54-8.89.07-10.87-1.05-.09-.05-.17-.1-.24-.15,0,0,0,0,0,0-.55-.61-1.03-1.28-1.45-2,.13.11.3.22.49.33,2.3,1.31,7.97,1.85,12.66,1.22,2.49-.33,4.2-.93,4.92-1.62Z"/><path class="cls-4" d="m252.93,315.71c-6.43,2.5-16.86,1.53-18.33-.31.12-.73.28-1.48.48-2.24,1.11,2.9,12.36,3.96,17.85,2.56Z"/><path class="cls-4" d="m255.61,318.2c0,.81-.07,1.59-.22,2.35h0c-1.17.77-7.26,1.27-13.94-.43,7.27.61,13.1-.71,14.15-2.36,0,.15,0,.3,0,.44Z"/></g><g class="cls-3"><path class="cls-1" d="m185.65,318.2c0,.81-.07,1.59-.22,2.35h0c-.25,1.35-.72,2.62-1.36,3.76h0c-.4.71-.87,1.37-1.4,1.97,0,0,0,0,0,0-1.93,2.19-4.64,3.55-7.65,3.55s-5.64-1.33-7.57-3.46c0,0,0,0,0,0-.55-.61-1.03-1.28-1.45-2,0,0,0,0,0,0-.46-.81-.84-1.68-1.11-2.61h0c-.18-.61-.31-1.24-.4-1.88h0c-.07-.55-.11-1.11-.11-1.68,0-.87.09-1.81.25-2.81.12-.73.28-1.48.48-2.24.32-1.2.73-2.43,1.23-3.62.36-.85.75-1.69,1.19-2.48,1.92-3.5,4.56-6.2,7.48-6.2,1.88,0,3.64,1.12,5.17,2.84.47.53.92,1.12,1.34,1.75.34.51.66,1.05.97,1.6h0c.43.79.83,1.62,1.19,2.47,1.17,2.79,1.88,5.8,1.96,8.23,0,.15,0,.3,0,.44Z"/><path class="cls-4" d="m164.9,321.76h0c-.18-.61-.31-1.24-.4-1.88,1.09,1.86,4.66,2.91,7.65,3.47-4.96-.21-6.67-1.05-7.25-1.59Z"/><path class="cls-4" d="m181.53,305.45c-.46.61-3.86.81-6.81.31,3.9-.25,5.61-1.19,5.46-2.06.47.53.92,1.12,1.34,1.75Z"/><path class="cls-4" d="m183.69,309.53c-.31.8-2.05,1.53-4.83,1.91-4.33.58-9.55.08-11.67-1.13-.44-.25-.71-.51-.83-.78.36-.85.75-1.69,1.19-2.48.08.25.32.49.74.73,1.83,1.04,6.32,1.47,10.04.97,2.47-.33,3.98-.99,4.18-1.7.43.79.83,1.62,1.19,2.47Z"/><path class="cls-4" d="m184.07,324.31c-.4.71-.87,1.37-1.4,1.97,0,0,0,0,0,0-.67.55-2.1,1.02-4.11,1.29-4.03.54-8.89.07-10.87-1.05-.09-.05-.17-.1-.24-.15,0,0,0,0,0,0-.55-.61-1.03-1.28-1.45-2,.13.11.3.22.49.33,2.3,1.31,7.97,1.85,12.66,1.22,2.49-.33,4.2-.93,4.92-1.62Z"/><path class="cls-4" d="m182.97,315.71c-6.43,2.5-16.86,1.53-18.33-.31.12-.73.28-1.48.48-2.24,1.11,2.9,12.36,3.96,17.85,2.56Z"/><path class="cls-4" d="m185.65,318.2c0,.81-.07,1.59-.22,2.35h0c-1.17.77-7.26,1.27-13.94-.43,7.27.61,13.1-.71,14.15-2.36,0,.15,0,.3,0,.44Z"/></g><g class="cls-3"><path class="cls-1" d="m115.69,318.2c0,.81-.07,1.59-.22,2.35h0c-.25,1.35-.72,2.62-1.36,3.76h0c-.4.71-.87,1.37-1.4,1.97,0,0,0,0,0,0-1.93,2.19-4.64,3.55-7.65,3.55s-5.64-1.33-7.57-3.46c0,0,0,0,0,0-.55-.61-1.03-1.28-1.45-2,0,0,0,0,0,0-.46-.81-.84-1.68-1.11-2.61h0c-.18-.61-.31-1.24-.4-1.88h0c-.07-.55-.11-1.11-.11-1.68,0-.87.09-1.81.25-2.81.12-.73.28-1.48.48-2.24.32-1.2.73-2.43,1.23-3.62.36-.85.75-1.69,1.19-2.48,1.92-3.5,4.56-6.2,7.48-6.2,1.88,0,3.64,1.12,5.17,2.84.47.53.92,1.12,1.34,1.75.34.51.66,1.05.97,1.6h0c.43.79.83,1.62,1.19,2.47,1.17,2.79,1.88,5.8,1.96,8.23,0,.15,0,.3,0,.44Z"/><path class="cls-4" d="m94.93,321.76h0c-.18-.61-.31-1.24-.4-1.88,1.09,1.86,4.66,2.91,7.65,3.47-4.96-.21-6.67-1.05-7.25-1.59Z"/><path class="cls-4" d="m111.57,305.45c-.46.61-3.86.81-6.81.31,3.9-.25,5.61-1.19,5.46-2.06.47.53.92,1.12,1.34,1.75Z"/><path class="cls-4" d="m113.73,309.53c-.31.8-2.05,1.53-4.83,1.91-4.33.58-9.55.08-11.67-1.13-.44-.25-.71-.51-.83-.78.36-.85.75-1.69,1.19-2.48.08.25.32.49.74.73,1.83,1.04,6.32,1.47,10.04.97,2.47-.33,3.98-.99,4.18-1.7.43.79.83,1.62,1.19,2.47Z"/><path class="cls-4" d="m114.11,324.31c-.4.71-.87,1.37-1.4,1.97,0,0,0,0,0,0-.67.55-2.1,1.02-4.11,1.29-4.03.54-8.89.07-10.87-1.05-.09-.05-.17-.1-.24-.15,0,0,0,0,0,0-.55-.61-1.03-1.28-1.45-2,.13.11.3.22.49.33,2.3,1.31,7.97,1.85,12.66,1.22,2.49-.33,4.2-.93,4.92-1.62Z"/><path class="cls-4" d="m113.01,315.71c-6.43,2.5-16.86,1.53-18.33-.31.12-.73.28-1.48.48-2.24,1.11,2.9,12.36,3.96,17.85,2.56Z"/><path class="cls-4" d="m115.69,318.2c0,.81-.07,1.59-.22,2.35h0c-1.17.77-7.26,1.27-13.94-.43,7.27.61,13.1-.71,14.15-2.36,0,.15,0,.3,0,.44Z"/></g><g class="cls-3"><path class="cls-1" d="m45.73,318.2c0,.81-.07,1.59-.22,2.35h0c-.25,1.35-.72,2.62-1.36,3.76h0c-.4.71-.87,1.37-1.4,1.97,0,0,0,0,0,0-1.93,2.19-4.64,3.55-7.65,3.55s-5.64-1.33-7.57-3.46c0,0,0,0,0,0-.55-.61-1.03-1.28-1.45-2,0,0,0,0,0,0-.46-.81-.84-1.68-1.11-2.61h0c-.18-.61-.31-1.24-.4-1.88h0c-.07-.55-.11-1.11-.11-1.68,0-.87.09-1.81.25-2.81.12-.73.28-1.48.48-2.24.32-1.2.73-2.43,1.23-3.62.36-.85.75-1.69,1.19-2.48,1.92-3.5,4.56-6.2,7.48-6.2,1.88,0,3.64,1.12,5.17,2.84.47.53.92,1.12,1.34,1.75.34.51.66,1.05.97,1.6h0c.43.79.83,1.62,1.19,2.47,1.17,2.79,1.88,5.8,1.96,8.23,0,.15,0,.3,0,.44Z"/><path class="cls-4" d="m24.97,321.76h0c-.18-.61-.31-1.24-.4-1.88,1.09,1.86,4.66,2.91,7.65,3.47-4.96-.21-6.67-1.05-7.25-1.59Z"/><path class="cls-4" d="m41.61,305.45c-.46.61-3.86.81-6.81.31,3.9-.25,5.61-1.19,5.46-2.06.47.53.92,1.12,1.34,1.75Z"/><path class="cls-4" d="m43.76,309.53c-.31.8-2.05,1.53-4.83,1.91-4.33.58-9.55.08-11.67-1.13-.44-.25-.71-.51-.83-.78.36-.85.75-1.69,1.19-2.48.08.25.32.49.74.73,1.83,1.04,6.32,1.47,10.04.97,2.47-.33,3.98-.99,4.18-1.7.43.79.83,1.62,1.19,2.47Z"/><path class="cls-4" d="m44.15,324.31c-.4.71-.87,1.37-1.4,1.97,0,0,0,0,0,0-.67.55-2.1,1.02-4.11,1.29-4.03.54-8.89.07-10.87-1.05-.09-.05-.17-.1-.24-.15,0,0,0,0,0,0-.55-.61-1.03-1.28-1.45-2,.13.11.3.22.49.33,2.3,1.31,7.97,1.85,12.66,1.22,2.49-.33,4.2-.93,4.92-1.62Z"/><path class="cls-4" d="m43.05,315.71c-6.43,2.5-16.86,1.53-18.33-.31.12-.73.28-1.48.48-2.24,1.11,2.9,12.36,3.96,17.85,2.56Z"/><path class="cls-4" d="m45.73,318.2c0,.81-.07,1.59-.22,2.35h0c-1.17.77-7.26,1.27-13.94-.43,7.27.61,13.1-.71,14.15-2.36,0,.15,0,.3,0,.44Z"/></g><g class="cls-3"><path class="cls-1" d="m395.53,388.43c0,.81-.07,1.59-.22,2.35h0c-.25,1.35-.72,2.62-1.36,3.76h0c-.4.71-.87,1.37-1.4,1.97,0,0,0,0,0,0-1.93,2.19-4.64,3.55-7.65,3.55s-5.64-1.33-7.57-3.46c0,0,0,0,0,0-.55-.61-1.03-1.28-1.45-2,0,0,0,0,0,0-.46-.81-.84-1.68-1.11-2.61h0c-.18-.61-.31-1.24-.4-1.88h0c-.07-.55-.11-1.11-.11-1.68,0-.87.09-1.81.25-2.81.12-.73.28-1.48.48-2.24.32-1.2.73-2.43,1.23-3.62.36-.85.75-1.69,1.19-2.48,1.92-3.5,4.56-6.2,7.48-6.2,1.88,0,3.64,1.12,5.17,2.84.47.53.92,1.12,1.34,1.75.34.51.66,1.05.97,1.6h0c.43.79.83,1.62,1.19,2.47,1.17,2.79,1.88,5.8,1.96,8.23,0,.15,0,.3,0,.44Z"/><path class="cls-4" d="m374.78,391.99h0c-.18-.61-.31-1.24-.4-1.88,1.09,1.86,4.66,2.91,7.65,3.47-4.96-.21-6.67-1.05-7.25-1.59Z"/><path class="cls-4" d="m391.41,375.68c-.46.61-3.86.81-6.81.31,3.9-.25,5.61-1.19,5.46-2.06.47.53.92,1.12,1.34,1.75Z"/><path class="cls-4" d="m393.57,379.76c-.31.8-2.05,1.53-4.83,1.91-4.33.58-9.55.08-11.67-1.13-.44-.25-.71-.51-.83-.78.36-.85.75-1.69,1.19-2.48.08.25.32.49.74.73,1.83,1.04,6.32,1.47,10.04.97,2.47-.33,3.98-.99,4.18-1.7.43.79.83,1.62,1.19,2.47Z"/><path class="cls-4" d="m393.95,394.54c-.4.71-.87,1.37-1.4,1.97,0,0,0,0,0,0-.67.55-2.1,1.02-4.11,1.29-4.03.54-8.89.07-10.87-1.05-.09-.05-.17-.1-.24-.15,0,0,0,0,0,0-.55-.61-1.03-1.28-1.45-2,.13.11.3.22.49.33,2.3,1.31,7.97,1.85,12.66,1.22,2.49-.33,4.2-.93,4.92-1.62Z"/><path class="cls-4" d="m392.85,385.94c-6.43,2.5-16.86,1.53-18.33-.31.12-.73.28-1.48.48-2.24,1.11,2.9,12.36,3.96,17.85,2.56Z"/><path class="cls-4" d="m395.53,388.43c0,.81-.07,1.59-.22,2.35h0c-1.17.77-7.26,1.27-13.94-.43,7.27.61,13.1-.71,14.15-2.36,0,.15,0,.3,0,.44Z"/></g><g class="cls-3"><path class="cls-1" d="m325.57,388.43c0,.81-.07,1.59-.22,2.35h0c-.25,1.35-.72,2.62-1.36,3.76h0c-.4.71-.87,1.37-1.4,1.97,0,0,0,0,0,0-1.93,2.19-4.64,3.55-7.65,3.55s-5.64-1.33-7.57-3.46c0,0,0,0,0,0-.55-.61-1.03-1.28-1.45-2,0,0,0,0,0,0-.46-.81-.84-1.68-1.11-2.61h0c-.18-.61-.31-1.24-.4-1.88h0c-.07-.55-.11-1.11-.11-1.68,0-.87.09-1.81.25-2.81.12-.73.28-1.48.48-2.24.32-1.2.73-2.43,1.23-3.62.36-.85.75-1.69,1.19-2.48,1.92-3.5,4.56-6.2,7.48-6.2,1.88,0,3.64,1.12,5.17,2.84.47.53.92,1.12,1.34,1.75.34.51.66,1.05.97,1.6h0c.43.79.83,1.62,1.19,2.47,1.17,2.79,1.88,5.8,1.96,8.23,0,.15,0,.3,0,.44Z"/><path class="cls-4" d="m304.82,391.99h0c-.18-.61-.31-1.24-.4-1.88,1.09,1.86,4.66,2.91,7.65,3.47-4.96-.21-6.67-1.05-7.25-1.59Z"/><path class="cls-4" d="m321.45,375.68c-.46.61-3.86.81-6.81.31,3.9-.25,5.61-1.19,5.46-2.06.47.53.92,1.12,1.34,1.75Z"/><path class="cls-4" d="m323.61,379.76c-.31.8-2.05,1.53-4.83,1.91-4.33.58-9.55.08-11.67-1.13-.44-.25-.71-.51-.83-.78.36-.85.75-1.69,1.19-2.48.08.25.32.49.74.73,1.83,1.04,6.32,1.47,10.04.97,2.47-.33,3.98-.99,4.18-1.7.43.79.83,1.62,1.19,2.47Z"/><path class="cls-4" d="m323.99,394.54c-.4.71-.87,1.37-1.4,1.97,0,0,0,0,0,0-.67.55-2.1,1.02-4.11,1.29-4.03.54-8.89.07-10.87-1.05-.09-.05-.17-.1-.24-.15,0,0,0,0,0,0-.55-.61-1.03-1.28-1.45-2,.13.11.3.22.49.33,2.3,1.31,7.97,1.85,12.66,1.22,2.49-.33,4.2-.93,4.92-1.62Z"/><path class="cls-4" d="m322.89,385.94c-6.43,2.5-16.86,1.53-18.33-.31.12-.73.28-1.48.48-2.24,1.11,2.9,12.36,3.96,17.85,2.56Z"/><path class="cls-4" d="m325.57,388.43c0,.81-.07,1.59-.22,2.35h0c-1.17.77-7.26,1.27-13.94-.43,7.27.61,13.1-.71,14.15-2.36,0,.15,0,.3,0,.44Z"/></g><g class="cls-3"><path class="cls-1" d="m255.61,388.43c0,.81-.07,1.59-.22,2.35h0c-.25,1.35-.72,2.62-1.36,3.76h0c-.4.71-.87,1.37-1.4,1.97,0,0,0,0,0,0-1.93,2.19-4.64,3.55-7.65,3.55s-5.64-1.33-7.57-3.46c0,0,0,0,0,0-.55-.61-1.03-1.28-1.45-2,0,0,0,0,0,0-.46-.81-.84-1.68-1.11-2.61h0c-.18-.61-.31-1.24-.4-1.88h0c-.07-.55-.11-1.11-.11-1.68,0-.87.09-1.81.25-2.81.12-.73.28-1.48.48-2.24.32-1.2.73-2.43,1.23-3.62.36-.85.75-1.69,1.19-2.48,1.92-3.5,4.56-6.2,7.48-6.2,1.88,0,3.64,1.12,5.17,2.84.47.53.92,1.12,1.34,1.75.34.51.66,1.05.97,1.6h0c.43.79.83,1.62,1.19,2.47,1.17,2.79,1.88,5.8,1.96,8.23,0,.15,0,.3,0,.44Z"/><path class="cls-4" d="m234.86,391.99h0c-.18-.61-.31-1.24-.4-1.88,1.09,1.86,4.66,2.91,7.65,3.47-4.96-.21-6.67-1.05-7.25-1.59Z"/><path class="cls-4" d="m251.49,375.68c-.46.61-3.86.81-6.81.31,3.9-.25,5.61-1.19,5.46-2.06.47.53.92,1.12,1.34,1.75Z"/><path class="cls-4" d="m253.65,379.76c-.31.8-2.05,1.53-4.83,1.91-4.33.58-9.55.08-11.67-1.13-.44-.25-.71-.51-.83-.78.36-.85.75-1.69,1.19-2.48.08.25.32.49.74.73,1.83,1.04,6.32,1.47,10.04.97,2.47-.33,3.98-.99,4.18-1.7.43.79.83,1.62,1.19,2.47Z"/><path class="cls-4" d="m254.03,394.54c-.4.71-.87,1.37-1.4,1.97,0,0,0,0,0,0-.67.55-2.1,1.02-4.11,1.29-4.03.54-8.89.07-10.87-1.05-.09-.05-.17-.1-.24-.15,0,0,0,0,0,0-.55-.61-1.03-1.28-1.45-2,.13.11.3.22.49.33,2.3,1.31,7.97,1.85,12.66,1.22,2.49-.33,4.2-.93,4.92-1.62Z"/><path class="cls-4" d="m252.93,385.94c-6.43,2.5-16.86,1.53-18.33-.31.12-.73.28-1.48.48-2.24,1.11,2.9,12.36,3.96,17.85,2.56Z"/><path class="cls-4" d="m255.61,388.43c0,.81-.07,1.59-.22,2.35h0c-1.17.77-7.26,1.27-13.94-.43,7.27.61,13.1-.71,14.15-2.36,0,.15,0,.3,0,.44Z"/></g><g class="cls-3"><path class="cls-1" d="m185.65,388.43c0,.81-.07,1.59-.22,2.35h0c-.25,1.35-.72,2.62-1.36,3.76h0c-.4.71-.87,1.37-1.4,1.97,0,0,0,0,0,0-1.93,2.19-4.64,3.55-7.65,3.55s-5.64-1.33-7.57-3.46c0,0,0,0,0,0-.55-.61-1.03-1.28-1.45-2,0,0,0,0,0,0-.46-.81-.84-1.68-1.11-2.61h0c-.18-.61-.31-1.24-.4-1.88h0c-.07-.55-.11-1.11-.11-1.68,0-.87.09-1.81.25-2.81.12-.73.28-1.48.48-2.24.32-1.2.73-2.43,1.23-3.62.36-.85.75-1.69,1.19-2.48,1.92-3.5,4.56-6.2,7.48-6.2,1.88,0,3.64,1.12,5.17,2.84.47.53.92,1.12,1.34,1.75.34.51.66,1.05.97,1.6h0c.43.79.83,1.62,1.19,2.47,1.17,2.79,1.88,5.8,1.96,8.23,0,.15,0,.3,0,.44Z"/><path class="cls-4" d="m164.9,391.99h0c-.18-.61-.31-1.24-.4-1.88,1.09,1.86,4.66,2.91,7.65,3.47-4.96-.21-6.67-1.05-7.25-1.59Z"/><path class="cls-4" d="m181.53,375.68c-.46.61-3.86.81-6.81.31,3.9-.25,5.61-1.19,5.46-2.06.47.53.92,1.12,1.34,1.75Z"/><path class="cls-4" d="m183.69,379.76c-.31.8-2.05,1.53-4.83,1.91-4.33.58-9.55.08-11.67-1.13-.44-.25-.71-.51-.83-.78.36-.85.75-1.69,1.19-2.48.08.25.32.49.74.73,1.83,1.04,6.32,1.47,10.04.97,2.47-.33,3.98-.99,4.18-1.7.43.79.83,1.62,1.19,2.47Z"/><path class="cls-4" d="m184.07,394.54c-.4.71-.87,1.37-1.4,1.97,0,0,0,0,0,0-.67.55-2.1,1.02-4.11,1.29-4.03.54-8.89.07-10.87-1.05-.09-.05-.17-.1-.24-.15,0,0,0,0,0,0-.55-.61-1.03-1.28-1.45-2,.13.11.3.22.49.33,2.3,1.31,7.97,1.85,12.66,1.22,2.49-.33,4.2-.93,4.92-1.62Z"/><path class="cls-4" d="m182.97,385.94c-6.43,2.5-16.86,1.53-18.33-.31.12-.73.28-1.48.48-2.24,1.11,2.9,12.36,3.96,17.85,2.56Z"/><path class="cls-4" d="m185.65,388.43c0,.81-.07,1.59-.22,2.35h0c-1.17.77-7.26,1.27-13.94-.43,7.27.61,13.1-.71,14.15-2.36,0,.15,0,.3,0,.44Z"/></g><g class="cls-3"><path class="cls-1" d="m115.69,388.43c0,.81-.07,1.59-.22,2.35h0c-.25,1.35-.72,2.62-1.36,3.76h0c-.4.71-.87,1.37-1.4,1.97,0,0,0,0,0,0-1.93,2.19-4.64,3.55-7.65,3.55s-5.64-1.33-7.57-3.46c0,0,0,0,0,0-.55-.61-1.03-1.28-1.45-2,0,0,0,0,0,0-.46-.81-.84-1.68-1.11-2.61h0c-.18-.61-.31-1.24-.4-1.88h0c-.07-.55-.11-1.11-.11-1.68,0-.87.09-1.81.25-2.81.12-.73.28-1.48.48-2.24.32-1.2.73-2.43,1.23-3.62.36-.85.75-1.69,1.19-2.48,1.92-3.5,4.56-6.2,7.48-6.2,1.88,0,3.64,1.12,5.17,2.84.47.53.92,1.12,1.34,1.75.34.51.66,1.05.97,1.6h0c.43.79.83,1.62,1.19,2.47,1.17,2.79,1.88,5.8,1.96,8.23,0,.15,0,.3,0,.44Z"/><path class="cls-4" d="m94.93,391.99h0c-.18-.61-.31-1.24-.4-1.88,1.09,1.86,4.66,2.91,7.65,3.47-4.96-.21-6.67-1.05-7.25-1.59Z"/><path class="cls-4" d="m111.57,375.68c-.46.61-3.86.81-6.81.31,3.9-.25,5.61-1.19,5.46-2.06.47.53.92,1.12,1.34,1.75Z"/><path class="cls-4" d="m113.73,379.76c-.31.8-2.05,1.53-4.83,1.91-4.33.58-9.55.08-11.67-1.13-.44-.25-.71-.51-.83-.78.36-.85.75-1.69,1.19-2.48.08.25.32.49.74.73,1.83,1.04,6.32,1.47,10.04.97,2.47-.33,3.98-.99,4.18-1.7.43.79.83,1.62,1.19,2.47Z"/><path class="cls-4" d="m114.11,394.54c-.4.71-.87,1.37-1.4,1.97,0,0,0,0,0,0-.67.55-2.1,1.02-4.11,1.29-4.03.54-8.89.07-10.87-1.05-.09-.05-.17-.1-.24-.15,0,0,0,0,0,0-.55-.61-1.03-1.28-1.45-2,.13.11.3.22.49.33,2.3,1.31,7.97,1.85,12.66,1.22,2.49-.33,4.2-.93,4.92-1.62Z"/><path class="cls-4" d="m113.01,385.94c-6.43,2.5-16.86,1.53-18.33-.31.12-.73.28-1.48.48-2.24,1.11,2.9,12.36,3.96,17.85,2.56Z"/><path class="cls-4" d="m115.69,388.43c0,.81-.07,1.59-.22,2.35h0c-1.17.77-7.26,1.27-13.94-.43,7.27.61,13.1-.71,14.15-2.36,0,.15,0,.3,0,.44Z"/></g><g class="cls-3"><path class="cls-1" d="m45.73,388.43c0,.81-.07,1.59-.22,2.35h0c-.25,1.35-.72,2.62-1.36,3.76h0c-.4.71-.87,1.37-1.4,1.97,0,0,0,0,0,0-1.93,2.19-4.64,3.55-7.65,3.55s-5.64-1.33-7.57-3.46c0,0,0,0,0,0-.55-.61-1.03-1.28-1.45-2,0,0,0,0,0,0-.46-.81-.84-1.68-1.11-2.61h0c-.18-.61-.31-1.24-.4-1.88h0c-.07-.55-.11-1.11-.11-1.68,0-.87.09-1.81.25-2.81.12-.73.28-1.48.48-2.24.32-1.2.73-2.43,1.23-3.62.36-.85.75-1.69,1.19-2.48,1.92-3.5,4.56-6.2,7.48-6.2,1.88,0,3.64,1.12,5.17,2.84.47.53.92,1.12,1.34,1.75.34.51.66,1.05.97,1.6h0c.43.79.83,1.62,1.19,2.47,1.17,2.79,1.88,5.8,1.96,8.23,0,.15,0,.3,0,.44Z"/><path class="cls-4" d="m24.97,391.99h0c-.18-.61-.31-1.24-.4-1.88,1.09,1.86,4.66,2.91,7.65,3.47-4.96-.21-6.67-1.05-7.25-1.59Z"/><path class="cls-4" d="m41.61,375.68c-.46.61-3.86.81-6.81.31,3.9-.25,5.61-1.19,5.46-2.06.47.53.92,1.12,1.34,1.75Z"/><path class="cls-4" d="m43.76,379.76c-.31.8-2.05,1.53-4.83,1.91-4.33.58-9.55.08-11.67-1.13-.44-.25-.71-.51-.83-.78.36-.85.75-1.69,1.19-2.48.08.25.32.49.74.73,1.83,1.04,6.32,1.47,10.04.97,2.47-.33,3.98-.99,4.18-1.7.43.79.83,1.62,1.19,2.47Z"/><path class="cls-4" d="m44.15,394.54c-.4.71-.87,1.37-1.4,1.97,0,0,0,0,0,0-.67.55-2.1,1.02-4.11,1.29-4.03.54-8.89.07-10.87-1.05-.09-.05-.17-.1-.24-.15,0,0,0,0,0,0-.55-.61-1.03-1.28-1.45-2,.13.11.3.22.49.33,2.3,1.31,7.97,1.85,12.66,1.22,2.49-.33,4.2-.93,4.92-1.62Z"/><path class="cls-4" d="m43.05,385.94c-6.43,2.5-16.86,1.53-18.33-.31.12-.73.28-1.48.48-2.24,1.11,2.9,12.36,3.96,17.85,2.56Z"/><path class="cls-4" d="m45.73,388.43c0,.81-.07,1.59-.22,2.35h0c-1.17.77-7.26,1.27-13.94-.43,7.27.61,13.1-.71,14.15-2.36,0,.15,0,.3,0,.44Z"/></g></g></svg>