<svg xmlns="http://www.w3.org/2000/svg" width="357.551" height="428.018" viewBox="0 0 357.551 428.018">
  <g id="Grupo_3673" data-name="Grupo 3673" transform="translate(-1369 -254.582)">
    <rect id="Rectángulo_1616" data-name="Rectángulo 1616" width="357.551" height="428.018" rx="36" transform="translate(1369 254.582)" fill="#da3b59"/>
    <g id="Grupo_3672" data-name="Grupo 3672" transform="translate(1398.579 565.156)">
      <path id="Trazado_1584" data-name="Trazado 1584" d="M46.662,41.839c.537-1.02.859-1.342,1.074-1.342s.322.268.322.537a3.137,3.137,0,0,1-.107.7L42.637,64.6H54.874l6.709-31.4a8.629,8.629,0,0,0,.161-1.61c0-2.308-1.4-4.991-8.427-4.991-3.167,0-8.212.268-11.325,6.226l-9.5,18.248c-.268.537-.912,1.718-1.5,1.718s-.7-1.074-.751-1.718L28.253,32.822c-.644-5.9-5.421-6.226-8.641-6.226-1.932,0-8.8,0-10.2,6.6L2.7,64.6H14.943l4.508-22.864c.054-.376.268-1.234.752-1.234.268,0,.322.644.376,1.342L22.564,59.98c.268,2.737.859,5.045,6.172,5.045s6.87-2.308,8.319-5.045Z" transform="translate(-2.705 -26.596)" fill="none" stroke="#fff" stroke-width="1"/>
      <path id="Trazado_1585" data-name="Trazado 1585" d="M213.74,69.477c.751-3.542,2.415-3.972,5.636-3.972,1.5,0,4.294.161,4.294,1.825a4.629,4.629,0,0,1-.054.805c-.161.644-.376,1.342-2.093,1.342Zm15.3,17.5,1.557-7.3H216.8c-3.167,0-4.616-.59-4.616-2.415a4.739,4.739,0,0,1,.161-1.127h15.511c3.757,0,5.153-2.147,5.958-5.367a20.9,20.9,0,0,0,.537-4.723c0-6.494-4.562-7.836-13.418-7.836-12.344,0-15.833,1.074-18.57,13.31a28.444,28.444,0,0,0-.805,6.709c0,6.119,3.167,8.749,10.037,8.749Z" transform="translate(-143.484 -48.975)" fill="none" stroke="#fff" stroke-width="1"/>
      <path id="Trazado_1586" data-name="Trazado 1586" d="M332.594,65.636l1.61-7.514H332.54c-3.811,0-5.26-1.557-5.26-3.811a17.127,17.127,0,0,1,.322-3.167l1.342-6.44h8.1l1.61-7.514h-8.1l1.932-9.124h-10.52l-1.932,9.124h-4.025L314.4,44.7h4.025l-2.361,11.271a10.355,10.355,0,0,0-.215,2.254c0,5.045,4.133,7.407,8.856,7.407Z" transform="translate(-223.372 -27.637)" fill="none" stroke="#fff" stroke-width="1"/>
      <path id="Trazado_1587" data-name="Trazado 1587" d="M406.239,76.591l-.483,2.04c-.376,1.61-.966,2.147-2.576,2.147h-5.421a1.448,1.448,0,0,1-1.5-1.557,5.283,5.283,0,0,1,.107-.912,2.214,2.214,0,0,1,2.415-1.717ZM391.855,59.309l-1.557,7.3h14.814c1.717,0,2.683.7,2.683,2.093a3.3,3.3,0,0,1-.054.7l-.107.537H394.646c-5.9,0-7.622,1.825-8.749,7.192a23.416,23.416,0,0,0-.376,3.7c0,4.186,2.04,6.924,6.387,6.924H408.44c4.294,0,6.387-2.147,7.192-5.9l2.737-12.881a10.541,10.541,0,0,0,.214-2.2c0-4.4-2.683-7.46-8.372-7.46Z" transform="translate(-273.725 -49.756)" fill="none" stroke="#fff" stroke-width="1"/>
      <path id="Trazado_1588" data-name="Trazado 1588" d="M512.614,59.309H502.041L508.535,85.5c.59,2.415,3.274,2.576,5.528,2.576,2.308,0,5.1-.161,6.709-2.576l17.551-26.192H527l-9.983,16.423c-.268.43-.537.966-.913.966s-.375-.483-.483-.966Z" transform="translate(-356.216 -49.756)" fill="none" stroke="#fff" stroke-width="1"/>
      <path id="Trazado_1589" data-name="Trazado 1589" d="M626.329,69.477c.751-3.542,2.415-3.972,5.636-3.972,1.5,0,4.294.161,4.294,1.825a4.626,4.626,0,0,1-.054.805c-.161.644-.376,1.342-2.093,1.342Zm15.3,17.5,1.557-7.3H629.389c-3.167,0-4.616-.59-4.616-2.415a4.739,4.739,0,0,1,.161-1.127h15.511c3.757,0,5.153-2.147,5.958-5.367a20.9,20.9,0,0,0,.537-4.723c0-6.494-4.562-7.836-13.418-7.836-12.344,0-15.833,1.074-18.57,13.31a28.445,28.445,0,0,0-.805,6.709c0,6.119,3.167,8.749,10.037,8.749Z" transform="translate(-435.582 -48.975)" fill="none" stroke="#fff" stroke-width="1"/>
      <path id="Trazado_1590" data-name="Trazado 1590" d="M719.638,87.755h10.519l2.9-13.525c1.02-4.831,3.221-7.514,8.051-7.514h3.918l1.557-7.407h-6.924c-9.661,0-14.438,2.147-16.477,11.808Z" transform="translate(-510.266 -49.756)" fill="none" stroke="#fff" stroke-width="1"/>
      <path id="Trazado_1591" data-name="Trazado 1591" d="M796.457,87.755h19.8c5.367,0,8-1.61,9.125-6.977a11.72,11.72,0,0,0,.268-2.254c0-4.24-2.63-5.85-6.817-7.514l-6.172-2.415c-1.61-.644-2.415-.644-2.415-1.449,0-.537,1.4-.537,1.825-.537h15.457l1.557-7.3H809.66c-5.367,0-8.051,1.878-9.178,7.246a11.662,11.662,0,0,0-.268,2.254c0,3.757,2.093,5.367,5.9,6.816l5.206,1.986c1.181.429,3.274.966,3.274,1.878,0,.537-.644.644-1.02.644H798.067Z" transform="translate(-564.651 -49.756)" fill="none" stroke="#fff" stroke-width="1"/>
      <path id="Trazado_1592" data-name="Trazado 1592" d="M914.864,69.477c.751-3.542,2.415-3.972,5.635-3.972,1.5,0,4.294.161,4.294,1.825a4.632,4.632,0,0,1-.054.805c-.161.644-.376,1.342-2.093,1.342Zm15.3,17.5,1.557-7.3H917.923c-3.167,0-4.616-.59-4.616-2.415a4.738,4.738,0,0,1,.161-1.127h15.511c3.757,0,5.153-2.147,5.958-5.367a20.9,20.9,0,0,0,.537-4.723c0-6.494-4.562-7.836-13.418-7.836-12.344,0-15.833,1.074-18.57,13.31a28.442,28.442,0,0,0-.805,6.709c0,6.119,3.167,8.749,10.037,8.749Z" transform="translate(-639.853 -48.975)" fill="none" stroke="#fff" stroke-width="1"/>
      <path id="Trazado_1593" data-name="Trazado 1593" d="M627.863,235.636l1.986-9.339h-10.2c-6.226,0-8.748-.859-8.748-4.991a28.091,28.091,0,0,1,.59-4.991c1.718-8.051,4.133-8.909,12.183-8.909h9.661l1.986-9.339H619.436c-13.418,0-17.98,4.24-20.4,17.175a39.024,39.024,0,0,0-.7,7.138c0,8.48,4.294,13.257,14.169,13.257Z" transform="translate(-424.394 -147.991)" fill="none" stroke="#fff" stroke-width="1"/>
      <path id="Trazado_1594" data-name="Trazado 1594" d="M733,246.591l-.483,2.04c-.376,1.61-.966,2.147-2.576,2.147h-5.421a1.448,1.448,0,0,1-1.5-1.557,5.283,5.283,0,0,1,.107-.912,2.214,2.214,0,0,1,2.415-1.717Zm-14.384-17.282-1.557,7.3h14.814c1.717,0,2.683.7,2.683,2.093a3.3,3.3,0,0,1-.054.7l-.107.537H721.41c-5.9,0-7.622,1.825-8.749,7.192a23.413,23.413,0,0,0-.376,3.7c0,4.186,2.04,6.924,6.387,6.924H735.2c4.294,0,6.387-2.147,7.192-5.9l2.737-12.881a10.544,10.544,0,0,0,.214-2.2c0-4.4-2.683-7.46-8.372-7.46Z" transform="translate(-505.061 -170.11)" fill="none" stroke="#fff" stroke-width="1"/>
      <path id="Trazado_1595" data-name="Trazado 1595" d="M821.268,257.755h10.52l2.9-13.525c1.02-4.831,3.221-7.514,8.051-7.514h3.918l1.557-7.407h-6.924c-9.661,0-14.438,2.147-16.477,11.808Z" transform="translate(-582.217 -170.11)" fill="none" stroke="#fff" stroke-width="1"/>
      <path id="Trazado_1596" data-name="Trazado 1596" d="M922.3,225.438c-.483,2.147-1.127,2.684-3.274,2.684h-1.932c-2.63,0-3.381-1.449-3.381-3.435a14.376,14.376,0,0,1,.322-3.274c.537-2.737,1.986-6.709,5.689-6.709h4.83Zm2.415,10.2c4.294,0,6.387-2.147,7.192-5.9l6.709-31.666h-10.52l-1.932,9.124h-7.943c-10.2,0-13.15,4.562-14.867,13.15a26.863,26.863,0,0,0-.483,4.884c0,6.118,3.059,10.412,10.359,10.412Z" transform="translate(-639.985 -147.991)" fill="none" stroke="#fff" stroke-width="1"/>
    </g>
  </g>
</svg>
