<svg version="1.2" xmlns="http://www.w3.org/2000/svg" viewBox="0 0 842 745" width="842" height="745"><style>.a{fill:#fff}</style><path class="a" d="m480.1 419.6c-0.5 33.2-25.5 61.3-56.3 62.5-33.4 1.3-60.9-27.5-60.9-63.4 0-17.5 6.5-33.1 17.1-44.6 0.3-0.3 0.7-0.8 1-1.1 18.4-20 30.2-50.2 30.2-84.1 0-31.4-10.1-59.7-26.3-79.6-5.6-7-10.2-14.8-14-23.1-4.1-8.8-8-19.2-8-27.3 0-35 26.3-63.4 58.7-63.4 32.4 0 58.6 28.4 58.6 63.4 0 6.8-2.5 15.2-5.7 22.8-4.5 11-11 20.8-18.1 30.1-14.9 19.8-24.1 46.9-24.1 76.9 0 30.1 9.2 57.2 24.1 77 7.1 9.5 13.6 19.4 18.3 30.6 2.8 8 5.5 16.4 5.4 23.3z"/><path class="a" d="m480.1 419.6c-0.5 33.2-25.5 61.3-56.3 62.5-33.4 1.3-60.9-27.5-60.9-63.4 0-17.5 6.5-33.1 17.1-44.6 0.3-0.3 0.7-0.8 1-1.1 18.4-20 30.2-50.2 30.2-84.1 0-31.4-10.1-59.7-26.3-79.6-5.6-7-10.2-14.8-14-23.1-4.1-8.8-8-19.2-8-27.3 0-35 26.3-63.4 58.7-63.4 32.4 0 58.6 28.4 58.6 63.4 0 6.8-2.5 15.2-5.7 22.8-4.5 11-11 20.8-18.1 30.1-14.9 19.8-24.1 46.9-24.1 76.9 0 30.1 9.2 57.2 24.1 77 7.1 9.5 13.6 19.4 18.3 30.6 2.8 8 5.5 16.4 5.4 23.3z"/><path class="a" d="m474.5 337.8c1.8 3.4 3.8 6.6 6 9.6 0.8 1.1 1.4 2 2.2 3 128 10.6 223.9 53.7 223.9 105.1 0 17.7-11.3 34.4-31.4 49.2-6.7-55-76.7-101.2-172-118.2 1.6 4.2 3 8.1 4 11.9 68.1 14.9 115.1 46.7 115.1 83.8 0 23.6-19 45-50.1 61.3 2.8-6.5 4.3-13.3 4.3-20.2 0-30.8-28.4-57.8-71.2-73.3-0.9 2.7-2 5.2-3 7.8 25.4 11 41.6 27.2 41.6 45.1 0 33.3-54.8 60.2-122.3 60.2-67.6 0-122.3-27-122.3-60.2 0-17.9 16-34.1 41.3-45.1-1.1-2.6-2.1-5.1-3-7.8-42.7 15.5-71.1 42.5-71.1 73.1 0 6.9 1.5 13.7 4.3 20.2-31.3-16.3-50.1-37.7-50.1-61.2 0-36.8 46.4-68.6 113.9-83.6 0.9-4 1.9-8 3.3-11.9-94.3 17.4-163.4 63.1-170.1 117.8-20.1-14.8-31.4-31.4-31.4-49.2 0-51.5 95.8-94.5 223.8-105.1q5-5.7 8.6-12.6c-174.5 11-308.6 75.8-308.6 154.1 0 86 161.7 155.8 361.2 155.8 199.6 0 361.2-69.7 361.2-155.8 0.2-78.1-133.7-142.8-308.1-153.8z"/></svg>