<svg version="1.2" xmlns="http://www.w3.org/2000/svg" viewBox="0 0 842 745" width="842" height="745"><style>.a{fill:#fff}</style><path class="a" d="m9 527.4c98.5-42.4 203-61.7 306.9-71.1 104.2-8.4 209.6-3.8 313 14.6 68.7 12.6 137.2 30.5 203.1 56.5-271.9-56.6-551.5-63.5-823 0z"/><path class="a" d="m642.3 419.1c22.1 4 43.6 8.4 64.5 13.4l-201.5-201.5h-114.4l177.2 177.2q37.2 4.2 74.2 10.9z"/><path class="a" d="m250.9 409.9l64.4-64.4 54.6 54.6c38.6-1.4 77.1-0.9 115.5 1l-170.1-170.1-205 205c43.8-11.2 90.2-19.8 140.6-26.1z"/></svg>