<svg version="1.2" xmlns="http://www.w3.org/2000/svg" viewBox="0 0 842 745" width="842" height="745"><style>.a{fill:#fff}</style><path fill-rule="evenodd" class="a" d="m338.6 242.3l8.7-7.1 8 28.7 5.2 2.4c2.3 1 4.1 2.9 5.1 5.2l6.7 15.8 12-15.7c2-2.7 4.9-4.4 8.1-5.1 4.2-0.9 16-2.1 29.1-2.4 13.1 0.3 24.9 1.5 29 2.4 3.3 0.7 6.2 2.6 8.1 5.1l12.1 15.7 6.7-15.8c1-2.3 2.7-4.2 5.1-5.2l5.2-2.4 7.9-28.7 8.7 7.1c1.2 1 2.2 2.2 3.1 3.6l8.8-14.1-15.2-26.4c-0.5-0.8-1-1.5-1.7-2.2l-5.2 2.3-1.4 9.4-10 7.7h-20.1l-16.1 4 2.1-6.7c0.2-0.7 5.6-17.7 20.9-25.1 3.2-1.6 6.7-2.6 10.3-3.1l-14.8-8.1c-2.1-1.2-4.5-1.8-6.8-1.8h-72.9c-2.5 0-4.8 0.6-6.9 1.8l-14.8 8.1c3.6 0.4 7.1 1.5 10.3 3.1 15.3 7.4 20.7 24.4 21 25.1l2.1 6.7-16.1-4h-20.2l-10-7.7-1.4-9.4-5.2-2.3c-0.6 0.7-1.2 1.4-1.6 2.2l-15.4 26.3 8.4 14.2c1.1-1.4 2.1-2.6 3.1-3.6zm94.6-10.1h8.6l-15.6 22.4zm-23.2 0l6.9 22.4-15.6-22.4zm114.4 16.1c0-0.6-0.1-1.1-0.2-1.6l-18.9 30.6-3.4-9.4-0.5 1.9c-0.8 2.9-2.9 5.2-5.6 6.5l-5.5 2.5-15.9 37.3-27-35.4c-3-0.7-13.8-1.6-25.8-1.9-12.2 0.4-22.8 1.3-25.8 1.9l-27.1 35.4-15.9-37.3-5.5-2.5c-2.8-1.3-4.8-3.6-5.6-6.5l-0.4-1.9-3.5 9.4-18.9-30.6c-0.1 0.5-0.2 1-0.2 1.6l-9.4 114.3 21.1 17.6c0.1-0.5 0.1-0.8 0.2-1.3 4.5-28.7 7-58 8.2-87 4.2 29.1 7.2 58.5 8 88 0.1 5.6 0.1 11.3 0 16.9 6 9 16.7 25.9 25.9 45-3.1-39.3-4.1-78.6-4.4-118.1 6.8 48.8 14.2 97.6 26.3 145.3 1 3.7 2.3 8.3 3.6 12.6 5.8 0.7 13.6 1.3 23.4 1.3 9.7 0 17.5-0.6 23.3-1.3 1.3-4.4 2.7-8.9 3.6-12.6 12.2-47.8 19.7-96.6 26.3-145.3-0.3 39.5-1.3 78.8-4.4 118.1 9.2-18.9 19.9-36 25.9-45-0.1-5.6-0.1-11.2 0-16.9 0.8-29.5 3.8-58.9 8-88 1.3 29.1 3.6 58.3 8.2 87 0.1 0.5 0.1 0.8 0.2 1.3l21.1-17.6z"/><path class="a" d="m421.5 43l4.4 29.7 12.1-9.3-5.1 14.5 15.3-0.4-12.6 8.7 12.6 8.6-15.3-0.4 5.1 14.4-12.1-9.3-4.4 33-4.3-33-12.1 9.3 5-14.4-15.2 0.4 12.6-8.6-12.6-8.7 15.2 0.4-5-14.5 12.1 9.3z"/><path class="a" d="m327.8 94.8l4.4 29.9 12.1-9.4-5.2 14.5 15.4-0.5-12.7 8.7 12.7 8.7-15.4-0.4 5.2 14.5-12.1-9.4-4.4 33.1-4.3-33.1-12.3 9.4 5.2-14.5-15.4 0.4 12.8-8.7-12.8-8.7 15.4 0.5-5.2-14.5 12.3 9.4z"/><path class="a" d="m515.1 94.8l4.3 29.9 12.2-9.4-5.2 14.5 15.4-0.5-12.7 8.7 12.7 8.7-15.4-0.4 5.2 14.5-12.2-9.4-4.3 33.1-4.4-33.1-12.2 9.4 5.2-14.5-15.3 0.4 12.7-8.7-12.7-8.7 15.3 0.5-5.2-14.5 12.2 9.4z"/><path class="a" d="m399 506.6c-0.1 6.1-0.2 12.3-0.4 18.5-0.3 7.3-0.8 14.4-1.6 21.7-1.5 13.9-3.3 27.9-5 41.8-0.7 6-1.4 12-2.2 18-1.8 12.8-3.7 25.4-5.5 38-1.3 10.5-2.5 21.2-4 31.7-0.5 3 0.3 4.8 2.7 6.5 5.3 3.8 10.5 7.8 15.8 11.8 3.1 2.3 6.3 4.5 9.8 7 1-2.4 1.9-4.1 2.2-5.9 1-6.1 1.9-12.2 2.2-18.4 1.3-26.2 3.2-52.5 3.3-78.8 0.2-30.3-0.1-60.6-0.5-90.9-5.8-0.1-11.4-0.5-16.8-1z"/><path class="a" d="m456.2 630.2c-1.4-10.7-3.1-21.6-4.5-32.4-1.5-11.3-2.9-22.6-4.4-34-1.2-9.5-2.7-18.9-3.4-28.4-0.7-9.5-1.1-19.1-1.4-28.6-5.1 0.5-10.3 0.7-15.7 0.8-0.3 15.5-0.6 31.1-0.8 46.6-0.2 23.7-0.7 47.5 2.2 71.2 1.5 12.4 1.3 25.1 1.7 37.6 0.4 8.8 0.5 17.6 1.3 26.2 0.3 4 2.1 7.8 3.4 12.2 6.5-5 12-10 18.2-13.7 7.6-4.5 10.6-9.4 8.4-18.9-2.8-12.6-3.4-25.7-5-38.6z"/><path class="a" d="m619 336.5c-1.3-7.2-3.3-14.1-4.3-21.3-2.2-13.4-3.8-26.9-5.8-40.4-1.5-10-3-20.2-4.6-30.3-1.2-7.1-2-14.3-3.6-21.4q-4.2-18.1-9-36.4c-0.8-3.3-2.6-6.1-3.9-9.3-0.4 0.1-0.9 0.1-1.3 0.3-6.4 10.5-12.9 20.8-18.9 31.4-2.2 4-4.7 6.6-8.9 8.2-4.5 1.8-8.8 4.1-13.2 6.1-3.6 1.6-7.3 3.2-10.9 4.8l3.2 15.6c0.2 1.1 0.3 2.1 0.4 3.3l0.6 7.4-0.1 0.4c0.1 0.2 0.1 0.3 0.2 0.4v0.6c0.1 0 0.1 0 0.2-0.1 8.8 15.3 18 85.8 18 85.8 4.4-34 1.9-75 0.7-91.7 4.1-1.4 8.3-2.8 12.3-4.3 3.3-1.2 5.7-5 8.4-7.7 1.4-1.4 2.5-3 4.5-5.4 0.4 2.8 0.9 4.2 1 5.8 1.4 16.5 2.3 33.1 4.2 49.6 1.6 14.4 3.3 28.7 8.8 42.2 0.9 2.4 0.1 3.6-1.9 4.6-9.2 4.7-18.5 9.3-27.5 14.2-1.5 0.8-2.9 2.5-3.5 4-12.4 30.3-24.7 60.8-36.8 91.2-8.1 20.7-15.7 41.6-23.4 62.5-0.5 1.1-1 2.2-1.3 3.2-0.5-0.1-0.9-0.1-1.4-0.2 0-4.7-0.2-9.4 0-14 1.1-25.7 2.5-51.5 3.7-77.2 0.1-3.3 0.2-6.7 0.5-10.1-5.8 9.1-25.7 88.9-26.8 111-0.1 1.5-0.4 2.9-0.8 4.4-1-0.6-1.2-1.1-1.2-1.5-2.1-16-4.4-31.9-6.4-47.9l-9.4 19.4c1.8 7 3.6 13.8 5.3 20.7 3.9 15.4 7.4 30.9 10.8 46.4 1.3 6.2 1.3 12.6 2.4 18.9 4.3 21.8 8.8 43.6 13.2 65.3 0.2 1 0.7 1.8 1.1 2.6 0.3 0 0.8-0.1 1.1-0.1 0.5-3.3 1.2-6.5 1.3-9.7 0.8-21.8 1.4-43.4 2.1-65.2 0.1-4.8-0.1-9.7 0.3-14.6 0.4-3 0.8-6.7 2.7-8.6 4.4-4.5 5.5-10.2 7.5-15.8 9.5-25.8 18.6-51.7 29.2-77.1 9.6-23.5 20.7-46.3 31.1-69.4 2.5-5.7 6.1-11.3 6.7-17.2 0.7-6.3 3.6-9.2 8.5-11.8 11.1-5.6 22.3-11.5 33.2-17.5 1-0.6 1.9-2.8 1.7-4.1z"/><path class="a" d="m382 492.7l-9.6-19.9c-1.8 14.4-3.8 29-5.6 43.5-0.3 1.7-0.7 3.5-1.1 5.2-0.3 0-0.7 0-1.1 0-0.3-1.5-0.7-3-0.7-4.5-0.6-11.7-20.9-100.8-26.6-109.7 0.3 10.6 0.7 21.2 1.1 31.8 0.7 17.8 2.1 35.5 3 53.4 0.4 6 0 12 0 18.1-0.4 0.1-1 0.1-1.5 0.2-1.8-5.5-3.3-11.2-5.5-16.6-14.6-36.6-29.2-73.1-43.9-109.7-4-10.2-8-20.3-11.9-30.5-1-2.9-2.5-5-5.8-5.5-0.1 0-0.2-0.1-0.3-0.1-8.7-4.5-17.4-9-26.1-13.7-0.9-0.5-1.5-2.8-1.2-4.1 2.5-11.9 6.2-23.7 7.8-35.7 2.5-18.9 3.6-37.9 5.2-56.8 0.2-1.7 0.5-3.4 0.9-5 0.3-0.1 0.6-0.3 1-0.3 1.7 2.6 3.5 5.3 5.1 7.9 2 3.4 4.8 5 8.5 6.1 3.9 1.2 7.7 2.4 11.4 3.6-1.3 16-3.9 58.1 0.6 92.8 0 0 9.4-73.1 18.5-86.6l0.7-9.1c0.1-1 0.2-2 0.4-3.2l3.2-15.6c-8.8-3.8-17.6-7.8-26.3-11.7-2.3-1-4.8-2.9-6-5-5.3-8.4-10.2-17.1-15.3-25.8-1.7-2.9-3.6-5.5-5.9-9.2-1.4 2.4-2.8 3.9-3.2 5.6-2.9 10.8-6.1 21.6-8.1 32.5-3.6 19.6-6.6 39.3-9.8 58.9-1.6 10.1-3 20.3-4.7 30.3-1.8 10.7-3.9 21.2-6 31.7-0.6 2.8 0.1 4.2 2.7 5.5 11.2 5.8 22.5 11.5 33.5 17.7 2.7 1.5 6.1 4.3 6.2 6.6 0.5 6.9 3.8 12.6 6.3 18.6 13.6 31.4 27.8 62.6 40.9 94.2 7.6 17.9 13.8 36.3 20.4 54.5 2.1 5.9 3 12.2 8.3 16.6 0.9 0.7 1.1 2.2 1.2 3.4 0.6 4.5 1.2 9.1 1.3 13.6 0.7 23 1.2 46.2 1.9 69.2 0.2 3.8 1.1 7.8 1.5 11.6 0.5 0 1 0 1.3 0 0.5-1.6 1.1-3.3 1.4-4.9 1.9-8 3.8-15.9 5.3-24 3-16.4 5.7-32.7 8.6-49 1.8-10.7 3.2-21.6 5.7-32.1 3-13 6.9-25.8 10.5-38.7 0.9-2.2 1.4-4.1 1.8-6.1z"/></svg>