<svg version="1.2" xmlns="http://www.w3.org/2000/svg" viewBox="0 0 842 745" width="842" height="745"><style>.a{fill:#fff}</style><path class="a" d="m557.2 169.4h13.2v-24h37.1c2.9 0 5.1 2.3 5.1 5.1v18.9h13.2c2 0 3.6-1.6 3.6-3.6v-47.3c0-2-1.6-3.6-3.6-3.6h-13.2v24h-37.1c-2.9 0-5.1-2.3-5.1-5.1v-18.9h-13.2c-2 0-3.6 1.6-3.6 3.6v47.3c0 2 1.6 3.6 3.6 3.6z"/><path class="a" d="m309.2 169.4h6.4v-24h32.9l4.3-6.5h-32.1c-0.4 0-1-0.2-1.4-0.2l11.5-17.3h21.8c2.9 0 5.1 2.3 5.1 5.1v39.3c0 2 1.7 3.6 3.7 3.6h13.2v-50.9c0-2-1.7-3.6-3.5-3.6h-50.5c-2 0.2-4.7 1.7-6 3.6l-4.5 6.6-0.3 0.5-11.1 16.5v16.9c0.2 5.7 4.8 10.4 10.5 10.4z"/><path class="a" d="m215.2 169.4h61.8c5.7 0 10.4-4.7 10.4-10.4v-6.5h-16.9v5.3c0 2.8-2.3 5.1-5.1 5.1h-31.9c-2.9 0-5.1-2.3-5.1-5.1v-12.4h21v-6.5h-15.9c-2.9 0-5.1-2.3-5.1-5.1v-7.3c0-2.8 2.2-5.1 5.1-5.1h31.9c2.8 0 5.1 2.3 5.1 5.1v5.3h16.9v-6.5c0-5.7-4.7-10.4-10.4-10.4h-61.8c-2 0-3.6 1.6-3.6 3.6v47.3c0 2 1.6 3.6 3.6 3.6z"/><path class="a" d="m389.8 169.4h13.2v-42.9c0-2.8 2.3-5.1 5.1-5.1h32.1c2.8 0 5.1 2.3 5.1 5.1v7.3c0 2.8-2.3 5.1-5.1 5.1h-32.3l4.3 6.5h13.5l13.5 20.3c1.4 2 4.1 3.5 6.1 3.5h16.6l-16.1-23.9h5.7c5.7 0 10.4-4.7 10.4-10.4v-9.8c0-5.6-4.7-10.3-10.4-10.3h-61.9c-1.9 0-3.5 1.5-3.5 3.5v47.4c0 2.1 1.7 3.7 3.7 3.7z"/><path class="a" d="m498.9 165.8c0 2 1.5 3.6 3.5 3.6h13.2v-42.9c0-2.8 2.3-5.1 5.1-5.1h24.4l-4.4-6.5h-67.1c-2 0-3.5 1.6-3.5 3.6v2.9h28.8z"/><path fill-rule="evenodd" class="a" d="m684 62v310.1c0 93.6-58 183-159.2 245.1l-103.8 63.9-103.8-63.9c-101.2-62.1-159.2-151.5-159.2-245.1v-310.1zm-19 19h-488.1v291.2c0 86.9 54.7 170.4 150.2 229l93.8 57.6 93.9-57.7c95.4-58.6 150.2-142.2 150.2-229z"/><path class="a" d="m394.3 249.2l26.7-19.2 26.7 19.2-10.2-31.3 26.6-19.3h-32.9l-10.2-31.3-10.2 31.3h-32.9l26.6 19.3z"/><path class="a" d="m497.6 243l-6.7-20.7-6.6 20.7h-21.9l17.6 12.8-6.7 20.7 17.6-12.8 17.6 12.8-6.6-20.7 17.5-12.8z"/><path class="a" d="m357.4 243l-6.6-20.7-6.7 20.7h-21.8l17.6 12.8-6.7 20.7 17.6-12.8 17.6 12.8-6.7-20.7 17.6-12.8z"/><path class="a" d="m390.6 482.6l-48.3 71.4 17 15.6 37.9-82.2z"/><path class="a" d="m401.8 491l-29.7 90.3 16.8 15.5 21.9-99.3z"/><path class="a" d="m449.2 482.6l-6.5 4.8 37.9 82.2 17-15.6z"/><path class="a" d="m429.1 497.5l21.8 99.3 16.9-15.5-29.8-90.3z"/><path class="a" d="m419.9 504.3l-3.9-2.8-13 108.2 16.9 15.6 17-15.6-13.1-108.2z"/><path class="a" d="m223.8 286v34.7l63.1 45.3-33.1-6.1 0.8 28.5 53.1 31.1-27.7-3.9 16.5 20.3 54.4 17.1-19.3 12.6h54.2l34.2 25.2 34.2-25.2h54.2l-19.3-12.6 54.5-17.1 16.4-20.3-27.6 3.9 53-31.1 0.9-28.5-33.2 6.1 63.1-45.3v-34.7l-71.4 37.7 84-72.7v-41.6l-125.5 108.4c8.2 74.7-37.5 79.3-52.1 79l-11.9-38.9 11.2-14.9 9.7-5.5-15.7-6.4-31.2 22.3-21.9 43.4c-14.5 0.3-62.9-4.3-54.7-79l-125.5-108.4v41.6l84 72.7z"/><path class="a" d="m254.6 195.9h96.2v8.4h-96.2z"/><path class="a" d="m488.7 195.9h96.1v8.4h-96.1z"/></svg>