<svg width="189" height="64" viewBox="0 0 189 64" fill="none" xmlns="http://www.w3.org/2000/svg">
<g clip-path="url(#clip0_1940_83)">
<path d="M40.6399 23.1V9.17L40.1399 7.39H46.1799L45.7199 9.17V19.8H56.4499C58.2299 19.8 59.6499 18.38 59.6499 16.6V8.28C59.6499 6.5 58.2299 5.08 56.4499 5.08H42.5199L40.6399 5.58V1.92L40.1399 0H57.2999C61.3899 0 64.7299 3.34 64.7299 7.46V17.45C64.7299 21.54 61.3899 24.88 57.2999 24.88H40.1399L40.6399 23.1Z" fill="white"/>
<path d="M72.7998 24.88H65.7998L67.3998 23.1L80.6198 1.78L81.2598 0H91.2798L90.8198 1.78V23.1L91.2798 24.88H85.2398L85.6998 23.1V19.37H78.6598L76.7798 19.83V17.7L73.4398 23.1L72.7998 24.88ZM85.6998 5.09H84.6298L78.9098 14.26H85.6998V5.08V5.09Z" fill="white"/>
<path d="M95.72 23.1V9.17L95.22 7.39H101.26L100.8 9.17V9.92H112.31C113.66 9.92 114.73 8.82 114.73 7.5C114.73 6.18 113.66 5.08 112.31 5.08H97.56L95.71 5.58V1.92L95.21 0H113.44C116.96 0 119.8 2.84 119.8 6.4V8.6C119.8 12.12 116.96 15 113.44 15H100.79V23.1L101.25 24.88H95.21L95.71 23.1H95.72Z" fill="white"/>
<path d="M123.01 23.1V9.17L122.51 7.39H128.55L128.09 9.17V9.92H139.6C140.95 9.92 142.02 8.82 142.02 7.5C142.02 6.18 140.95 5.08 139.6 5.08H124.85L123 5.58V1.92L122.5 0H140.73C144.25 0 147.09 2.84 147.09 6.4V8.6C147.09 12.12 144.25 15 140.73 15H128.08V23.1L128.54 24.88H122.5L123 23.1H123.01Z" fill="white"/>
<path d="M0.5 50.6996V29.3796L0 27.5996H10.45L10.59 28.6296L15.74 37.2696L20.89 28.6296L21.03 27.5996H31.48L31.02 29.3796V50.6996L31.48 52.4796H25.44L25.9 50.6996V32.6796H24.62L19.57 41.0996L19.43 42.1296H12.04L11.9 41.0996L6.85 32.6796H5.57V50.6996L6.03 52.4796H0L0.5 50.6996Z" fill="white"/>
<path d="M36.28 50.6996V29.3796L35.78 27.5996H41.82L41.36 29.3796V50.6996L41.82 52.4796H35.78L36.28 50.6996Z" fill="white"/>
<path d="M45.4199 36.1996V33.9996C45.4199 30.4496 48.2599 27.5996 51.8199 27.5996H66.8199L66.3599 29.5196V33.1796L64.4799 32.6796H52.9299C51.6199 32.6796 50.5099 33.7496 50.5099 35.0996C50.5099 36.4496 51.6099 37.4796 52.9299 37.4796H61.0299C64.5499 37.4796 67.4299 40.3596 67.4299 43.8796V46.1196C67.4299 49.6396 64.5499 52.4796 61.0299 52.4796H45.9999L46.4999 50.5996V46.9396L48.3799 47.3996H59.9299C61.2399 47.3996 62.3099 46.3296 62.3099 44.9796C62.3099 43.6296 61.2399 42.5996 59.9299 42.5996H51.8299C48.2799 42.5996 45.4299 39.7196 45.4299 36.1996H45.4199Z" fill="white"/>
<path d="M71.3899 36.1996V33.9996C71.3899 30.4496 74.2299 27.5996 77.7899 27.5996H92.7899L92.3299 29.5196V33.1796L90.4499 32.6796H78.8999C77.5899 32.6796 76.4799 33.7496 76.4799 35.0996C76.4799 36.4496 77.5799 37.4796 78.8999 37.4796H86.9999C90.5199 37.4796 93.3999 40.3596 93.3999 43.8796V46.1196C93.3999 49.6396 90.5199 52.4796 86.9999 52.4796H71.9699L72.4699 50.5996V46.9396L74.3499 47.3996H85.8999C87.2099 47.3996 88.2799 46.3296 88.2799 44.9796C88.2799 43.6296 87.2099 42.5996 85.8999 42.5996H77.7999C74.2499 42.5996 71.3999 39.7196 71.3999 36.1996H71.3899Z" fill="white"/>
<path d="M97.4399 50.6996V29.3796L96.9399 27.5996H102.98L102.52 29.3796V50.6996L102.98 52.4796H96.9399L97.4399 50.6996Z" fill="white"/>
<path d="M106.65 45.0496V35.0596C106.65 30.9396 109.99 27.5996 114.11 27.5996H126.51C130.63 27.5996 133.94 30.9396 133.94 35.0596V45.0496C133.94 49.1396 130.64 52.4796 126.51 52.4796H114.11C109.99 52.4796 106.65 49.1396 106.65 45.0496ZM111.73 44.1996C111.73 45.9796 113.19 47.3996 114.93 47.3996H125.66C127.44 47.3996 128.86 45.9796 128.86 44.1996V35.8796C128.86 34.0996 127.44 32.6796 125.66 32.6796H114.93C113.19 32.6796 111.73 34.0996 111.73 35.8796V44.1996Z" fill="white"/>
<path d="M138.38 50.6996V29.3796L137.88 27.5996H147.51L148.01 28.7396L157.39 37.8396V29.3796L156.89 27.5996H162.97L162.47 29.3796V50.6996L162.97 52.4796H156.89L157.39 50.6996V44.0496H157.25L145.52 32.6796H143.46V50.6996L143.92 52.4796H137.88L138.38 50.6996Z" fill="white"/>
<path d="M166.53 36.1996V33.9996C166.53 30.4496 169.37 27.5996 172.93 27.5996H187.93L187.47 29.5196V33.1796L185.59 32.6796H174.04C172.73 32.6796 171.62 33.7496 171.62 35.0996C171.62 36.4496 172.72 37.4796 174.04 37.4796H182.14C185.66 37.4796 188.54 40.3596 188.54 43.8796V46.1196C188.54 49.6396 185.66 52.4796 182.14 52.4796H167.11L167.61 50.5996V46.9396L169.49 47.3996H181.04C182.35 47.3996 183.42 46.3296 183.42 44.9796C183.42 43.6296 182.35 42.5996 181.04 42.5996H172.94C169.39 42.5996 166.54 39.7196 166.54 36.1996H166.53Z" fill="white"/>
<path d="M30.21 60.3993V61.6893H33.49V62.2993H30.21V63.9893H29.53V60.6593C29.53 59.9993 29.96 59.5693 30.62 59.5693H33.93V60.1793H30.43C30.31 60.1793 30.21 60.2793 30.21 60.3993Z" fill="white"/>
<path d="M41.4401 61.0196C41.4401 61.6396 41.0601 62.0596 40.4701 62.0996L41.4401 63.9796H40.6801L39.7101 62.0996H37.0501V63.9796H36.3701V59.5596H40.3601C41.0201 59.5596 41.4501 59.9896 41.4501 60.6496V61.0096L41.4401 61.0196ZM40.7601 60.3996C40.7601 60.2796 40.6601 60.1796 40.5401 60.1796H37.0501V61.4996H40.5401C40.6601 61.4996 40.7601 61.3996 40.7601 61.2796V60.3996Z" fill="white"/>
<path d="M45.07 59.5791H47.97C48.63 59.5791 49.06 60.0091 49.06 60.6691V62.9091C49.06 63.5691 48.63 63.9991 47.97 63.9991H45.07C44.41 63.9991 43.98 63.5691 43.98 62.9091V60.6691C43.98 60.0091 44.41 59.5791 45.07 59.5791ZM48.37 63.1591V60.3991C48.37 60.2791 48.27 60.1791 48.15 60.1791H44.87C44.75 60.1791 44.65 60.2791 44.65 60.3991V63.1591C44.65 63.2791 44.75 63.3791 44.87 63.3791H48.15C48.27 63.3791 48.37 63.2791 48.37 63.1591Z" fill="white"/>
<path d="M56.83 59.5791V63.9891H56.15V60.9291L54.61 63.9891H53.98L52.44 60.9391V63.9891H51.76V59.5791H52.44L54.3 63.2591L56.16 59.5791H56.84H56.83Z" fill="white"/>
<path d="M64.63 59.5791H67.53C68.19 59.5791 68.62 60.0091 68.62 60.6691V62.9091C68.62 63.5691 68.19 63.9991 67.53 63.9991H64.63C63.97 63.9991 63.54 63.5691 63.54 62.9091V60.6691C63.54 60.0091 63.97 59.5791 64.63 59.5791ZM67.93 63.1591V60.3991C67.93 60.2791 67.83 60.1791 67.71 60.1791H64.43C64.31 60.1791 64.21 60.2791 64.21 60.3991V63.1591C64.21 63.2791 64.31 63.3791 64.43 63.3791H67.71C67.83 63.3791 67.93 63.2791 67.93 63.1591Z" fill="white"/>
<path d="M76.4201 59.5693V62.8993C76.4201 63.5593 75.9901 63.9893 75.3301 63.9893H72.4301C71.7701 63.9893 71.3401 63.5593 71.3401 62.8993V59.5693H72.0201V63.1593C72.0201 63.2793 72.1201 63.3793 72.2401 63.3793H75.5201C75.6401 63.3793 75.7401 63.2793 75.7401 63.1593V59.5693H76.4201Z" fill="white"/>
<path d="M83.9301 60.1793H81.7301V63.9893H81.0501V60.1793H78.8501V59.5693H83.9201V60.1793H83.9301Z" fill="white"/>
<path d="M87.0101 60.3996V61.4696H90.2901V62.0796H87.0101V63.1496C87.0101 63.2696 87.1101 63.3696 87.2301 63.3696H90.7301V63.9796H87.4201C86.7601 63.9796 86.3301 63.5496 86.3301 62.8896V60.6496C86.3301 59.9896 86.7601 59.5596 87.4201 59.5596H90.7301V60.1696H87.2301C87.1101 60.1696 87.0101 60.2696 87.0101 60.3896V60.3996Z" fill="white"/>
<path d="M98.4201 61.0196C98.4201 61.6396 98.0401 62.0596 97.4501 62.0996L98.4201 63.9796H97.6601L96.6901 62.0996H94.0301V63.9796H93.3501V59.5596H97.3401C98.0001 59.5596 98.4301 59.9896 98.4301 60.6496V61.0096L98.4201 61.0196ZM97.7401 60.3996C97.7401 60.2796 97.6401 60.1796 97.5201 60.1796H94.0301V61.4996H97.5201C97.6401 61.4996 97.7401 61.3996 97.7401 61.2796V60.3996Z" fill="white"/>
<path d="M110.1 61.0196C110.1 61.6396 109.72 62.0596 109.13 62.0996L110.1 63.9796H109.34L108.37 62.0996H105.71V63.9796H105.03V59.5596H109.02C109.68 59.5596 110.11 59.9896 110.11 60.6496V61.0096L110.1 61.0196ZM109.42 60.3996C109.42 60.2796 109.32 60.1796 109.2 60.1796H105.71V61.4996H109.2C109.32 61.4996 109.42 61.3996 109.42 61.2796V60.3996Z" fill="white"/>
<path d="M112.76 63.9893V59.5693H113.44V63.9893H112.76Z" fill="white"/>
<path d="M121.34 59.5693V63.9893H120.7L116.94 60.4393V63.9893H116.26V59.5693H116.91L120.65 63.0993V59.5693H121.33H121.34Z" fill="white"/>
<path d="M124.71 60.3993V63.1593C124.71 63.2793 124.81 63.3793 124.93 63.3793H128.2C128.32 63.3793 128.42 63.2793 128.42 63.1593V62.0893H126.93V61.4793H129.1V62.0893V63.9893H128.55L128.48 63.6693C128.29 63.8693 128.01 63.9893 127.67 63.9893H125.11C124.51 63.9893 124.02 63.4993 124.02 62.8993V60.6593C124.02 60.0593 124.51 59.5693 125.11 59.5693H129.1V60.1793H124.92C124.8 60.1793 124.7 60.2793 124.7 60.3993H124.71Z" fill="white"/>
<path d="M140.88 59.5791V63.9891H140.2V60.9291L138.66 63.9891H138.03L136.49 60.9391V63.9891H135.81V59.5791H136.49L138.35 63.2591L140.21 59.5791H140.89H140.88Z" fill="white"/>
<path d="M148.77 59.5791V63.9891H148.09V60.9291L146.55 63.9891H145.92L144.38 60.9391V63.9891H143.7V59.5791H144.38L146.24 63.2591L148.1 59.5791H148.78H148.77Z" fill="white"/>
<path d="M152.56 59.5791H155.46C156.12 59.5791 156.55 60.0091 156.55 60.6691V62.9091C156.55 63.5691 156.12 63.9991 155.46 63.9991H152.56C151.9 63.9991 151.47 63.5691 151.47 62.9091V60.6691C151.47 60.0091 151.9 59.5791 152.56 59.5791ZM155.86 63.1591V60.3991C155.86 60.2791 155.76 60.1791 155.64 60.1791H152.36C152.24 60.1791 152.14 60.2791 152.14 60.3991V63.1591C152.14 63.2791 152.24 63.3791 152.36 63.3791H155.64C155.76 63.3791 155.86 63.2791 155.86 63.1591Z" fill="white"/>
<path d="M15.7499 32.0796L14.4599 29.8396L13.1699 27.5996H15.7499H18.3399L17.0399 29.8396L15.7499 32.0796Z" fill="white"/>
<path d="M120.08 42.9605L118.79 40.7205L117.49 38.4805H120.08H122.66L121.37 40.7205L120.08 42.9605Z" fill="white"/>
<path d="M52.4699 15.3101L51.1799 13.0701L49.8899 10.8301H52.4699H55.0599L53.7599 13.0701L52.4699 15.3101Z" fill="white"/>
</g>
<defs>
<clipPath id="clip0_1940_83">
<rect width="188.52" height="63.99" fill="white"/>
</clipPath>
</defs>
</svg>
