<svg width="147" height="371" viewBox="0 0 147 371" fill="none" xmlns="http://www.w3.org/2000/svg">
<path d="M146.607 162.258C146.607 162.258 147.483 152.229 146.607 147.874C146.607 147.874 145.663 143.149 144.055 139.884L138.511 121.791C138.511 121.791 136.691 112.779 137.492 107.264C137.492 107.264 134.063 97.8151 131.661 94.189C131.661 94.189 132.832 85.545 131.08 80.2412L125.831 74.2077C125.831 74.2077 119.192 69.0469 110.809 66.5794C110.809 66.5794 105.847 64.6911 103.226 62.1483C103.226 62.1483 91.2633 52.7745 84.4057 50.0888L82.2155 46.9667L81.9965 44.7173L81.7775 42.7538L83.2351 38.3227L84.9117 30.9125L85.4933 23.9386L84.6927 22.4114L86.0748 21.6817L86.2938 19.4323L86.5128 18.2662L85.9313 15.9416L86.3693 14.7078C86.3693 14.7078 85.9313 12.4584 84.9873 11.4353V10.7808C84.9873 10.7808 84.6247 8.45615 83.3861 7.36531C83.3861 7.36531 78.7188 3.00946 75.2144 3.2201C75.2144 3.2201 73.5 1.30172 72.1406 0.338767C71.5893 -0.0524327 70.8718 -0.0975711 70.2752 0.218398C70.0637 0.331244 69.8371 0.398951 69.603 0.42152L66.4385 0.71492C65.1697 0.835289 63.984 1.3619 63.0475 2.21953L62.904 2.35495C62.6472 2.58816 62.3602 2.78376 62.043 2.93422L57.8061 4.94288C57.0509 5.29647 56.4241 5.86822 55.986 6.57539C55.0042 8.18532 53.3276 11.1645 53.3276 12.812C53.3276 12.812 53.3276 13.9781 54.2036 14.9185L53.7052 16.6864C53.5088 17.3785 53.4484 18.0932 53.5315 18.8079C53.7203 20.463 54.0148 23.5324 53.6976 24.217L53.1539 24.1718C52.9046 24.1493 52.663 24.2696 52.527 24.4803L52.2174 24.9542C51.8397 25.5335 51.6509 26.2256 51.7038 26.9102C51.8624 29.265 52.5723 34.7342 55.7443 36.7053L56.9074 36.63L59.3846 44.1832L59.8982 47.2376L60.2607 54.2867C60.2607 54.2867 51.6509 59.7334 45.6694 62.8554C45.6694 62.8554 37.2107 62.3439 27.1434 70.0475C27.1434 70.0475 22.763 73.6059 21.1619 79.4889C21.1619 79.4889 21.0864 84.1382 23.1331 89.9535C23.1331 89.9535 23.6466 93.5119 25.2477 97.0026C25.2477 97.0026 23.1406 119.309 21.1619 128.246L16.857 133.911L12.1896 142.487L5.11302 180.125L4.09345 184.631C4.09345 184.631 2.41682 188.047 2.1978 192.042L1.02717 199.595L0.00759888 210.563L1.24619 211.94L2.8473 218.192C2.8473 218.192 3.06632 219.064 6.85763 220.298L10.2109 223.714C10.2109 223.714 11.812 224.511 12.6201 222.984C12.6201 222.984 13.2772 222.111 14.7348 222.186C14.7348 222.186 17.144 222.329 16.2679 219.937L14.5913 219.358L14.4478 218.846H11.5326C11.5326 218.846 10.1505 215.288 8.68531 212.888C8.68531 212.888 8.02825 210.639 8.3228 208.675L8.68531 206.787L9.99943 205.989C9.99943 205.989 10.1429 202.356 12.0461 197.413C12.0461 197.413 12.4086 195.818 13.7228 197.27L14.6744 199.158L15.4749 199.595C15.4749 199.595 15.913 205.335 17.4461 207.298C17.4461 207.298 20.8749 210.496 23.1331 208.028L22.038 200.761C22.038 200.761 21.7434 199.527 20.5048 199.166C20.5048 199.166 18.8055 196.142 19.2662 193.862C19.3418 193.501 19.3418 190.808 19.3418 190.808L15.913 184.338L15.0369 183.977C15.0369 183.977 14.7423 175.694 26.4863 164.214L31.4483 159.271L35.8287 151.063L38.8194 140.162L38.8949 127.012L43.1998 118.586L43.4188 117.638C43.4188 117.638 44.952 124.176 47.7917 130.789L48.6677 142.78L48.9623 144.014L48.5998 145.03C48.5998 145.03 45.4655 149.822 45.4655 153.095C45.4655 156.367 43.1318 163.341 43.1318 163.341L41.6742 169.375L39.265 172.715L32.702 188.047C32.702 188.047 26.1389 202.574 25.2628 212.316L24.8248 218.417L25.9199 228.009C25.9199 228.009 30.8063 241.235 28.5406 253.001L27.589 257.432C27.589 257.432 21.751 269.928 19.5608 278.79C19.5608 278.79 18.5412 293.467 20.4369 310.394C20.4369 310.394 21.3809 325.651 20.0668 331.609L18.4657 335.025V339.817L14.7423 344.323L8.90433 353.697L8.24727 354.645C8.24727 354.645 4.16142 358.061 3.06632 361.694C3.06632 361.694 0.951649 366.855 6.93315 367.216C6.93315 367.216 17.144 368.743 20.7918 367.216L23.7826 366.201L24.9532 364.312L25.0967 362.063C25.0967 362.063 29.2958 360.611 30.1492 359.302V341.066L31.8108 337.071L31.8863 335.326L31.2292 331.767C31.2292 331.767 34.001 313.674 42.2482 299.004L45.5335 291.519C45.5335 291.519 45.828 285.854 45.896 285.636C45.9715 285.418 46.8476 282.514 46.8476 282.514C46.8476 282.514 45.7525 271.906 44.3704 268.566L43.5699 266.166C43.5699 266.166 42.6258 262.172 49.1889 249.743L51.9606 243.063L55.0269 233.907L60.2909 223.375C60.2909 223.375 64.3616 207.629 64.7317 202.28L66.9219 196.713C66.9219 196.713 69.1801 193.952 71.6648 192.139L75.1691 190.544L79.761 197.879C79.761 197.879 82.6762 205.29 85.1534 223.307L90.9159 234.931L93.3931 242.123C93.3931 242.123 100.47 255.927 100.175 268.498L98.1284 277.579L96.8898 287.75L97.1844 294.288C97.1844 294.288 109.072 318.045 110.235 337.011L109.14 341.224L110.816 346.016V358.805C110.816 358.805 109.865 361.927 110.303 364.907L113.15 366.501C113.15 366.501 112.493 369.842 116.722 370.428C116.722 370.428 132.477 372.467 135.611 368.977C135.611 368.977 135.974 366.577 134.954 365.049C134.954 365.049 132.039 359.964 130.287 358.437L128.972 356.255L125.906 350.003C125.906 350.003 124.305 347.024 122.696 345.79L123.134 340.344L121.677 336.928C121.677 336.928 120.363 327.269 122.409 314.043C122.409 314.043 125.838 291.662 124.456 282.296C124.456 282.296 122.999 276.337 119.426 267.039L116.073 257.959C116.073 257.959 115.416 249.751 117.244 240.671C117.244 240.671 121.254 223.669 120.31 217.206L119.947 215.611C119.947 215.611 121.699 215.611 122.5 213.43C122.5 213.43 123.595 209.292 124.615 207.908C124.615 207.908 126.004 206.019 127.605 205.071L126.435 207.321L125.702 215.604C125.702 215.604 128.111 219.599 124.169 226.068L121.035 227.52C121.035 227.52 119.721 230.063 122.198 230.281C122.198 230.281 120.446 231.658 121.979 233.042C121.979 233.042 122.931 233.772 124.169 233.26C124.169 233.26 125.551 232.027 127.084 231.297C127.084 231.297 130.075 229.484 132.552 229.266C132.552 229.266 135.029 227.453 139.553 227.302L143.564 220.328C143.564 220.328 145.097 219.892 145.24 218.365L145.535 211.895L144.372 198.888C144.372 198.888 143.715 187.844 144.447 179.854L146.638 162.273L146.607 162.258ZM130.483 186.241L129.773 190.883L126.057 192.38L122.976 195.765C122.976 195.765 120.763 199.933 120.37 203.319C120.37 203.319 119.736 205.997 118.157 206.463L117.213 202.687C117.213 202.687 111.768 182.307 104.812 172.865L104.42 172C104.42 172 104.42 156.187 101.497 147.844C101.497 147.844 100.945 146.03 101.021 141.156V134.234L101.497 128.961C101.497 128.961 102.131 125.891 102.207 124.477C102.207 124.477 110.439 116.826 111.103 109.912C111.103 109.912 117.115 129.63 121.579 137.943L122.983 139.809L122.047 146.346V150.198C122.047 152.282 122.447 154.351 123.225 156.284L128.474 169.367C129.214 171.218 129.713 173.159 129.947 175.137C130.339 178.485 130.838 183.691 130.483 186.234V186.241Z" fill="black"/>
</svg>
