<svg id="Grupo_208" data-name="Grupo 208" xmlns="http://www.w3.org/2000/svg" xmlns:xlink="http://www.w3.org/1999/xlink" width="77.854" height="56.475" viewBox="0 0 77.854 56.475">
  <defs>
    <clipPath id="clip-path">
      <rect id="Rectángulo_368" data-name="Rectángulo 368" width="77.854" height="56.475" fill="none"/>
    </clipPath>
  </defs>
  <g id="Grupo_203" data-name="Grupo 203">
    <g id="Grupo_202" data-name="Grupo 202" clip-path="url(#clip-path)">
      <path id="Trazado_266" data-name="Trazado 266" d="M97.234,67.229a1.994,1.994,0,0,1-1.944-1.561l-1.568-7.042H89.781a1.994,1.994,0,1,1,0-3.987h5.54a1.994,1.994,0,0,1,1.946,1.56l1.916,8.6a2,2,0,0,1-1.948,2.427" transform="translate(-76.447 -47.581)" fill="#ff5733"/>
      <path id="Trazado_267" data-name="Trazado 267" d="M166.039,160.338l-5.1-23.673h36.673a2.888,2.888,0,0,1,2.834,3.489l-4.352,20.184a2.893,2.893,0,0,1-2.833,2.278H168.87A2.892,2.892,0,0,1,166.039,160.338Z" transform="translate(-140.144 -119.01)" fill="#ff5733" fill-rule="evenodd"/>
      <path id="Trazado_268" data-name="Trazado 268" d="M179.817,151.17H155.431a4.912,4.912,0,0,1-4.779-3.851h0l-5.105-23.673a1.994,1.994,0,0,1,1.949-2.414h36.674a4.882,4.882,0,0,1,4.783,5.9L184.6,147.319a4.914,4.914,0,0,1-4.782,3.851m-25.268-4.692a.9.9,0,0,0,.882.7h24.386a.894.894,0,0,0,.885-.7l4.352-20.184a.871.871,0,0,0-.178-.74.894.894,0,0,0-.707-.335h-34.2Z" transform="translate(-126.706 -105.571)" fill="#ff5733"/>
      <path id="Trazado_269" data-name="Trazado 269" d="M224.187,383.517a3.985,3.985,0,0,1-3.98-3.967,3.97,3.97,0,0,1,3.973-3.994,3.98,3.98,0,1,1,.007,7.96m0-5.165a1.184,1.184,0,1,0,.837,2.016,1.208,1.208,0,0,0,.347-.845,1.186,1.186,0,0,0-1.184-1.171m-22.369,5.165a3.98,3.98,0,1,1,3.98-3.98,3.951,3.951,0,0,1-3.98,3.98m0-5.165a1.184,1.184,0,1,0,.841,2.016,1.174,1.174,0,0,0,0-1.666,1.194,1.194,0,0,0-.841-.35" transform="translate(-172.284 -327.042)" fill="#ff5733"/>
      <path id="Trazado_270" data-name="Trazado 270" d="M503.359,224.393a5.018,5.018,0,1,1,5.018-5.018,5.018,5.018,0,0,1-5.018,5.018" transform="translate(-433.965 -186.666)" fill="#ff5733" fill-rule="evenodd"/>
      <path id="Trazado_271" data-name="Trazado 271" d="M522.258,247.237a.421.421,0,0,1-.295-.12l-1.237-1.2a.422.422,0,1,1,.589-.605l.943.917,1.766-1.72a.422.422,0,0,1,.589.605l-2.061,2.007a.421.421,0,0,1-.295.12" transform="translate(-453.347 -212.815)" fill="#fff"/>
      <path id="Trazado_272" data-name="Trazado 272" d="M528.958,95.933a5.162,5.162,0,1,1,5.09-5.162,5.126,5.126,0,0,1-5.09,5.162" transform="translate(-456.194 -74.551)" fill="#ff5733" fill-rule="evenodd"/>
      <path id="Trazado_273" data-name="Trazado 273" d="M548.949,118.777a.423.423,0,0,1-.308-.133l-1.291-1.376a.422.422,0,1,1,.616-.578l.983,1.048,1.842-1.965a.422.422,0,1,1,.616.578l-2.15,2.294A.422.422,0,0,1,548.949,118.777Z" transform="translate(-476.543 -100.7)" fill="#fff"/>
      <ellipse id="Elipse_100" data-name="Elipse 100" cx="5.049" cy="5.049" rx="5.049" ry="5.049" transform="translate(1.681 15.988)" fill="#ff5733"/>
      <path id="Trazado_274" data-name="Trazado 274" d="M37.484,156.644a.423.423,0,0,1-.3-.126l-1.263-1.285a.422.422,0,0,1,.6-.592l.961.978,1.8-1.835a.422.422,0,1,1,.6.592l-2.1,2.142A.422.422,0,0,1,37.484,156.644Z" transform="translate(-31.174 -133.808)" fill="#fff"/>
      <path id="Trazado_275" data-name="Trazado 275" d="M228.961,189.939h19.5a1.434,1.434,0,0,1,1.434,1.434v.573a1.434,1.434,0,0,1-1.434,1.434h-19.5a1.434,1.434,0,0,1-1.434-1.434v-.573a1.434,1.434,0,0,1,1.434-1.434" transform="translate(-198.135 -165.402)" fill="#fff"/>
      <path id="Trazado_276" data-name="Trazado 276" d="M228.961,253.2h19.5a1.434,1.434,0,0,1,1.434,1.434v.573a1.434,1.434,0,0,1-1.434,1.434h-19.5a1.434,1.434,0,0,1-1.434-1.434v-.573a1.434,1.434,0,0,1,1.434-1.434" transform="translate(-198.135 -220.494)" fill="#fff"/>
    </g>
  </g>
  <g id="Grupo_207" data-name="Grupo 207">
    <g id="Grupo_206" data-name="Grupo 206" clip-path="url(#clip-path)">
      <path id="Trazado_284" data-name="Trazado 284" d="M76.359,71.595h-.022c-.13,1.77-1.495,1.8-1.495,1.8s1.505.028,1.505,2.074c0-2.045,1.505-2.074,1.505-2.074s-1.365-.027-1.494-1.8M32.916,54.533h-.022c-.13,1.77-1.495,1.8-1.495,1.8s1.505.028,1.505,2.074c0-2.045,1.505-2.074,1.505-2.074S33.046,56.3,32.916,54.533ZM1.517,58.4H1.495C1.365,60.174,0,60.2,0,60.2s1.505.028,1.505,2.074c0-2.045,1.505-2.074,1.505-2.074s-1.365-.027-1.494-1.8m62.04,30.345a4.782,4.782,0,0,0-2.63,1.694c-.619.93.2,1.153,1.252.927a3.5,3.5,0,0,0,2.459-1.744C65.022,88.76,64.264,88.541,63.557,88.749Z" transform="translate(0 -47.488)" fill="#e1e4e5"/>
      <path id="Trazado_285" data-name="Trazado 285" d="M109.412,316.673h.37a.162.162,0,0,1,.162.162v.371a.162.162,0,0,1-.162.162h-.37a.162.162,0,0,1-.162-.162v-.371a.162.162,0,0,1,.161-.162Zm1.284,0h.37a.162.162,0,0,1,.162.162v.371a.162.162,0,0,1-.162.162h-.37a.162.162,0,0,1-.162-.162v-.371a.162.162,0,0,1,.162-.162m1.285,0h.37a.162.162,0,0,1,.162.162v.371a.162.162,0,0,1-.162.162h-.37a.162.162,0,0,1-.162-.162v-.371a.162.162,0,0,1,.161-.162Zm1.284,0h.37a.162.162,0,0,1,.162.162v.371a.162.162,0,0,1-.162.162h-.37a.163.163,0,0,1-.162-.162v-.371a.163.163,0,0,1,.162-.162m1.284,0h.37a.163.163,0,0,1,.162.162v.371a.162.162,0,0,1-.162.162h-.37a.162.162,0,0,1-.162-.162v-.371a.162.162,0,0,1,.162-.162m-3.807,1.4h.371a.162.162,0,0,1,.162.162v.371a.162.162,0,0,1-.162.162h-.371a.162.162,0,0,1-.162-.162v-.37a.162.162,0,0,1,.16-.163h0m1.284,0h.37a.162.162,0,0,1,.162.162v.371a.162.162,0,0,1-.162.162h-.37a.162.162,0,0,1-.162-.162v-.37a.162.162,0,0,1,.16-.163h0m1.284,0h.37a.163.163,0,0,1,.163.162v.371a.162.162,0,0,1-.163.162h-.37a.162.162,0,0,1-.162-.162v-.37a.163.163,0,0,1,.162-.163m-1.331-2.905h.37a.162.162,0,0,1,.162.162v.37a.162.162,0,0,1-.162.162h-.37a.162.162,0,0,1-.162-.162v-.37a.161.161,0,0,1,.161-.162Zm1.284,0h.37a.162.162,0,0,1,.162.162v.37a.162.162,0,0,1-.162.162h-.37a.162.162,0,0,1-.162-.162v-.37a.163.163,0,0,1,.162-.162" transform="translate(-95.137 -274.454)" fill="#e1e4e5" fill-rule="evenodd"/>
    </g>
  </g>
</svg>
