<svg id="Grupo_240" data-name="Grupo 240" xmlns="http://www.w3.org/2000/svg" xmlns:xlink="http://www.w3.org/1999/xlink" width="90.715" height="66.551" viewBox="0 0 90.715 66.551">
  <defs>
    <clipPath id="clip-path">
      <rect id="Rectángulo_381" data-name="Rectángulo 381" width="90.715" height="66.551" fill="none"/>
    </clipPath>
    <clipPath id="clip-path-2">
      <path id="Trazado_327" data-name="Trazado 327" d="M174.924,57.178c-7.979,6.12-5.5,10.512-10.1,19.182-2.738,5.168-7.589,10.095-7.265,16.027a15.512,15.512,0,0,0,6.583,12.075c8.153,5.223,21.069,6.109,27.822-9.307s30.819-11.2,24.341-32.35c-1.655-5.4-11.648-11.841-23.179-11.841a29.51,29.51,0,0,0-18.205,6.214" transform="translate(-157.547 -50.964)" fill="none"/>
    </clipPath>
    <clipPath id="clip-path-4">
      <rect id="Rectángulo_375" data-name="Rectángulo 375" width="20.409" height="7.716" fill="none"/>
    </clipPath>
    <clipPath id="clip-path-5">
      <path id="Trazado_359" data-name="Trazado 359" d="M79.285,328.493c-1.821,1.876-1.347,5.293-1.347,5.293s3.427.373,5.248-1.505,1.349-5.291,1.349-5.291-.277-.03-.715-.03a6.491,6.491,0,0,0-4.533,1.534" transform="translate(-77.882 -326.959)" fill="none"/>
    </clipPath>
    <clipPath id="clip-path-7">
      <path id="Trazado_375" data-name="Trazado 375" d="M93.084,387.571a5.461,5.461,0,1,0,2.163-.447,5.464,5.464,0,0,0-2.163.447" transform="translate(-89.771 -387.124)" fill="none"/>
    </clipPath>
    <clipPath id="clip-path-9">
      <path id="Trazado_386" data-name="Trazado 386" d="M613.521,107.322a3.35,3.35,0,1,0,.488-.035,3.4,3.4,0,0,0-.488.035" transform="translate(-610.648 -107.287)" fill="none"/>
    </clipPath>
  </defs>
  <g id="Grupo_239" data-name="Grupo 239" clip-path="url(#clip-path)">
    <g id="Grupo_219" data-name="Grupo 219" transform="translate(21.465 6.943)">
      <g id="Grupo_218" data-name="Grupo 218" clip-path="url(#clip-path-2)">
        <path id="Trazado_319" data-name="Trazado 319" d="M215.745,0l.891,6.64-61.355,8.233V6.283L202.1,0Z" transform="translate(-155.59 -6.943)" fill="#fcfcfc"/>
        <path id="Trazado_320" data-name="Trazado 320" d="M216.636,48.736l1.132,8.438-62.487,8.385v-8.59Z" transform="translate(-155.59 -49.039)" fill="#fbfbfb"/>
        <path id="Trazado_321" data-name="Trazado 321" d="M217.769,110.67l1.132,8.438-63.62,8.537v-8.59Z" transform="translate(-155.59 -102.535)" fill="#fafafa"/>
        <path id="Trazado_322" data-name="Trazado 322" d="M218.9,172.6l1.132,8.438-64.752,8.689v-8.59Z" transform="translate(-155.59 -156.031)" fill="#f9f9f9"/>
        <path id="Trazado_323" data-name="Trazado 323" d="M220.034,234.538l.8,5.932v2.551l-65.548,8.8v-8.59Z" transform="translate(-155.59 -209.528)" fill="#f8f8f8"/>
        <path id="Trazado_324" data-name="Trazado 324" d="M220.83,305.393l-64.655,8.676-.893-6.658V305.6l65.548-8.8Z" transform="translate(-155.59 -263.309)" fill="#f7f7f7"/>
        <path id="Trazado_325" data-name="Trazado 325" d="M226.493,368.443l-63.522,8.524-1.132-8.438,64.655-8.676Z" transform="translate(-161.254 -317.769)" fill="#f5f5f5"/>
        <path id="Trazado_326" data-name="Trazado 326" d="M233.672,431.492l-2.561.344H170.2l-.055-.41,63.522-8.524Z" transform="translate(-168.433 -372.228)" fill="#f4f4f4"/>
      </g>
    </g>
    <g id="Grupo_226" data-name="Grupo 226">
      <g id="Grupo_225" data-name="Grupo 225" clip-path="url(#clip-path)">
        <path id="Trazado_338" data-name="Trazado 338" d="M110.089,172.711l-2.52,2.52a.235.235,0,0,1-.332,0h0a.235.235,0,0,1,0-.332l2.52-2.52a.235.235,0,1,1,.332.332" transform="translate(-92.567 -148.834)" fill="#e1e4e5"/>
        <path id="Trazado_339" data-name="Trazado 339" d="M110.1,172.631l-.727.727a.235.235,0,0,1-.332-.332l.727-.727a.235.235,0,1,1,.332.332" transform="translate(-94.129 -148.765)" fill="#e1e4e5"/>
        <path id="Trazado_340" data-name="Trazado 340" d="M434.534,441.492l2.52-2.52a.235.235,0,0,1,.332.332l-2.52,2.52a.235.235,0,0,1-.332-.332" transform="translate(-375.273 -379.106)" fill="#e1e4e5"/>
        <path id="Trazado_341" data-name="Trazado 341" d="M445.886,452.942l.727-.727a.235.235,0,0,1,.332.332l-.727.727a.235.235,0,0,1-.332-.332" transform="translate(-385.078 -390.545)" fill="#e1e4e5"/>
        <path id="Trazado_342" data-name="Trazado 342" d="M593.944,65.664l-2.52,2.52a.235.235,0,0,1-.332-.332l2.52-2.52a.235.235,0,1,1,.332.332" transform="translate(-510.5 -56.372)" fill="#e1e4e5"/>
        <path id="Trazado_343" data-name="Trazado 343" d="M593.961,65.583l-.727.727a.235.235,0,0,1-.332-.332l.727-.727a.235.235,0,1,1,.332.332" transform="translate(-512.063 -56.302)" fill="#e1e4e5"/>
        <path id="Trazado_344" data-name="Trazado 344" d="M215.366,110.879v35.829a3.55,3.55,0,0,1-3.55,3.55H159.765a3.55,3.55,0,0,1-3.55-3.55V110.879a3.55,3.55,0,0,1,3.55-3.55h52.049a3.551,3.551,0,0,1,3.552,3.55" transform="translate(-134.932 -92.706)" fill="#ff5733"/>
        <path id="Trazado_345" data-name="Trazado 345" d="M227.5,164.848h-1.02V164.7h1.02Zm-2.771,0h-1.02V164.7h1.02Zm-2.771,0h-1.02V164.7h1.02Zm-2.771,0h-1.02V164.7h1.02Zm-2.771,0h-1.02V164.7h1.02Zm-2.771,0h-1.02V164.7h1.02Zm-2.771,0h-1.02V164.7h1.02Zm-2.771,0h-1.02V164.7h1.02Zm-2.771,0h-1.02V164.7h1.02Zm-2.771,0h-1.02V164.7h1.02Zm-2.771,0h-1.02V164.7h1.02Zm-2.771,0h-1.02V164.7h1.02Zm-2.771,0h-1.02V164.7h1.02Zm-2.771,0h-1.02V164.7h1.02Zm-2.771,0h-1.02V164.7h1.02Zm-2.771,0h-1.02V164.7h1.02Zm-2.771,0h-1.02V164.7h1.02Zm46.1-.042-.025-.144a2.746,2.746,0,0,0,.928-.339l.074.126a2.892,2.892,0,0,1-.978.357m-48.853-.281a2.916,2.916,0,0,1-.825-.635l.108-.1a2.765,2.765,0,0,0,.784.6Zm51.014-1.388-.133-.06a2.748,2.748,0,0,0,.24-.959l.146.01a2.9,2.9,0,0,1-.253,1.01m-52.573-.854a2.957,2.957,0,0,1-.021-.351v-.677h.146v.677a2.808,2.808,0,0,0,.02.334Zm52.833-1.911h-.146v-1.02h.146ZM178.97,159.5h-.146v-1.02h.146Zm52.708-1.9h-.146v-1.02h.146Zm-52.708-.867h-.146v-1.02h.146Zm52.708-1.9h-.146v-1.02h.146Zm-52.708-.867h-.146v-1.02h.146Zm52.708-1.9h-.146v-1.02h.146Zm-52.708-.867h-.146v-1.02h.146Zm52.708-1.9h-.146v-1.02h.146Zm-52.708-.867h-.146V147.4h.146Zm52.708-1.9h-.146V145.5h.146Zm-52.708-.868h-.146v-1.02h.146Zm52.708-1.9h-.146v-1.02h.146Zm-52.708-.867h-.146v-1.02h.146Zm52.708-1.9h-.146v-1.02h.146Zm-52.708-.867h-.146v-1.02h.146Zm52.708-1.9h-.146v-1.02h.146Zm-52.708-.867h-.146v-1.02h.146Zm52.708-1.9h-.146v-1.02h.146Zm-52.708-.867h-.146v-1.02h.146Zm52.708-1.9h-.146v-1.02h.146Zm-52.708-.867h-.146v-1.02h.146Zm52.5-1.885a2.744,2.744,0,0,0-.372-.916l.123-.078a2.886,2.886,0,0,1,.392.964Zm-52.15-.788-.127-.071a2.918,2.918,0,0,1,.663-.8l.094.111a2.779,2.779,0,0,0-.63.762m50.492-1.207a2.758,2.758,0,0,0-.967-.206l0-.146a2.9,2.9,0,0,1,1.018.217Zm-48.311-.2-.012-.145c.082-.007.166-.01.249-.01h1.02v.146h-1.02c-.079,0-.158,0-.237.01m45.6-.01h-1.02v-.146h1.02Zm-2.771,0h-1.02v-.146h1.02Zm-2.771,0h-1.02v-.146h1.02Zm-2.771,0h-1.02v-.146h1.02Zm-2.771,0H215v-.146h1.02Zm-2.771,0h-1.02v-.146h1.02Zm-2.771,0h-1.02v-.146h1.02Zm-2.771,0h-1.02v-.146h1.02Zm-2.771,0h-1.02v-.146h1.02Zm-2.771,0h-1.02v-.146h1.02Zm-2.771,0h-1.02v-.146h1.02Zm-2.771,0H195.6v-.146h1.02Zm-2.771,0h-1.02v-.146h1.02Zm-2.771,0h-1.02v-.146h1.02Zm-2.771,0h-1.02v-.146h1.02Zm-2.771,0h-1.02v-.146h1.02Z" transform="translate(-154.46 -110.18)" fill="#733426"/>
        <g id="Grupo_224" data-name="Grupo 224" transform="translate(21.225 37.159)" opacity="0.3" style="isolation: isolate">
          <g id="Grupo_223" data-name="Grupo 223">
            <g id="Grupo_222" data-name="Grupo 222" clip-path="url(#clip-path-4)">
              <path id="Trazado_346" data-name="Trazado 346" d="M176.195,272.738a8.875,8.875,0,0,1-.6,3.267c-.615,1.231-.822,1.7-2.115,2.178s-17.692,2.272-17.692,2.272v-5.538Z" transform="translate(-155.786 -272.738)"/>
            </g>
          </g>
        </g>
        <path id="Trazado_347" data-name="Trazado 347" d="M141.278,225.35h16.955a2.912,2.912,0,0,0,2.913-2.913v-7.59a2.912,2.912,0,0,0-2.913-2.913H141.278a2.912,2.912,0,0,0-2.913,2.913v7.59A2.914,2.914,0,0,0,141.278,225.35Z" transform="translate(-119.514 -183.06)" fill="#ff5733"/>
        <path id="Trazado_348" data-name="Trazado 348" d="M230.315,244.658a3.811,3.811,0,1,0-3.891-3.81,3.851,3.851,0,0,0,3.891,3.81" transform="translate(-195.575 -204.743)" fill="#fff"/>
        <path id="Trazado_351" data-name="Trazado 351" d="M564.1,276.964a.851.851,0,0,1,.133.163c.081.107.193.267.329.464.271.4.632.954,1.018,1.579l.981,1.6c.118.189.217.35.3.483a.751.751,0,0,1,.1.183.8.8,0,0,1-.135-.161c-.079-.108-.191-.267-.325-.467-.268-.4-.621-.963-1.005-1.586l-.992-1.592c-.118-.189-.219-.349-.3-.483A.959.959,0,0,1,564.1,276.964Zm3.13,4.436c-.015-.022,1.1-.817,2.495-1.773s2.536-1.715,2.552-1.693-1.1.816-2.494,1.773-2.536,1.715-2.552,1.693m-1.431,7.364a.933.933,0,0,1,.2-.079l.55-.183c.464-.154,1.106-.371,1.805-.635s1.324-.522,1.777-.712l.535-.226a.986.986,0,0,1,.2-.073.91.91,0,0,1-.185.107q-.259.133-.524.255-.87.4-1.77.74t-1.82.609c-.236.069-.428.12-.56.154A.868.868,0,0,1,565.8,288.764Zm-3.713-3.39a.814.814,0,0,1,.16.116c.1.08.238.2.411.345q.672.577,1.333,1.165t1.314,1.187q.2.182.391.369a.756.756,0,0,1,.135.146.8.8,0,0,1-.16-.116c-.1-.08-.239-.2-.411-.345q-.672-.577-1.333-1.165c-.516-.459-.981-.879-1.312-1.187q-.2-.182-.391-.369C562.129,285.431,562.079,285.379,562.085,285.373ZM560,291.713a1.249,1.249,0,0,1,.2.151c.14.116.318.263.528.441.443.375,1.051.9,1.719,1.481s1.269,1.115,1.7,1.5l.508.465a1.279,1.279,0,0,1,.178.181,1.252,1.252,0,0,1-.2-.151c-.14-.116-.318-.263-.528-.441q-.865-.734-1.719-1.481c-.667-.583-1.269-1.115-1.7-1.5l-.508-.465A1.158,1.158,0,0,1,560,291.713Zm4.749,4.088a1.407,1.407,0,0,1,.249-.106l.69-.256c.582-.218,1.387-.52,2.264-.878q1.125-.459,2.235-.954c.271-.119.5-.219.673-.3a1.464,1.464,0,0,1,.252-.1,1.368,1.368,0,0,1-.236.134q-.328.17-.661.327-1.1.524-2.225.982t-2.279.852c-.3.1-.535.177-.7.227A1.738,1.738,0,0,1,564.744,295.8Z" transform="translate(-483.7 -239.23)" fill="#fff"/>
      </g>
    </g>
    <g id="Grupo_228" data-name="Grupo 228" transform="translate(10.611 44.546)">
      <g id="Grupo_227" data-name="Grupo 227" clip-path="url(#clip-path-5)">
        <path id="Trazado_352" data-name="Trazado 352" d="M74.81,364.483l1.4,2.087h-1.4Z" transform="translate(-75.228 -359.37)" fill="#fcfcfc"/>
        <path id="Trazado_353" data-name="Trazado 353" d="M74.81,345.407l3.147,4.686H76.211l-1.4-2.087Z" transform="translate(-75.228 -342.893)" fill="#fbfbfb"/>
        <path id="Trazado_354" data-name="Trazado 354" d="M74.81,336.326l.862-.579,3.875,5.769-.347.233H77.957l-3.147-4.686Z" transform="translate(-75.228 -334.55)" fill="#fafafa"/>
        <rect id="Rectángulo_377" data-name="Rectángulo 377" width="1.449" height="6.95" transform="matrix(0.83, -0.558, 0.558, 0.83, 0.443, 1.197)" fill="#f9f9f9"/>
        <path id="Trazado_355" data-name="Trazado 355" d="M89.964,325.177l1.09-.732h.165l3.824,5.693-1.2.808Z" transform="translate(-88.318 -324.788)" fill="#f8f8f8"/>
        <path id="Trazado_356" data-name="Trazado 356" d="M100.915,324.445l2.479,3.69v1.734l-.4.269-3.824-5.693Z" transform="translate(-96.269 -324.788)" fill="#f7f7f7"/>
        <path id="Trazado_357" data-name="Trazado 357" d="M113.728,324.445l.733,1.091v2.6l-2.479-3.69Z" transform="translate(-107.336 -324.788)" fill="#f5f5f5"/>
        <path id="Trazado_358" data-name="Trazado 358" d="M125.528,325.536l-.733-1.091h.733Z" transform="translate(-118.403 -324.788)" fill="#f4f4f4"/>
      </g>
    </g>
    <g id="Grupo_230" data-name="Grupo 230">
      <g id="Grupo_229" data-name="Grupo 229" clip-path="url(#clip-path)">
        <path id="Trazado_360" data-name="Trazado 360" d="M407.717,67.607h.311a.136.136,0,0,1,.136.136v.311a.136.136,0,0,1-.136.136h-.311a.136.136,0,0,1-.136-.136v-.311a.136.136,0,0,1,.135-.136Zm1.08,0h.311a.137.137,0,0,1,.136.136v.311a.136.136,0,0,1-.136.136H408.8a.137.137,0,0,1-.136-.136v-.311a.137.137,0,0,1,.136-.136m1.08,0h.311a.136.136,0,0,1,.136.136v.311a.136.136,0,0,1-.136.136h-.311a.137.137,0,0,1-.136-.136v-.311a.136.136,0,0,1,.135-.136Zm1.08,0h.311a.136.136,0,0,1,.136.136v.311a.136.136,0,0,1-.136.136h-.311a.137.137,0,0,1-.137-.136v-.311a.138.138,0,0,1,.137-.136m1.08,0h.311a.137.137,0,0,1,.137.136v.311a.136.136,0,0,1-.137.136h-.311a.137.137,0,0,1-.136-.136v-.311a.137.137,0,0,1,.136-.136m-3.2,1.177h.311a.136.136,0,0,1,.136.136v.312a.137.137,0,0,1-.136.136h-.311a.136.136,0,0,1-.136-.136V68.92a.136.136,0,0,1,.135-.137Zm1.08,0h.311a.136.136,0,0,1,.136.136v.312a.137.137,0,0,1-.136.136h-.311a.137.137,0,0,1-.136-.136V68.92a.136.136,0,0,1,.135-.137Zm1.079,0h.311a.136.136,0,0,1,.136.136v.312a.137.137,0,0,1-.136.136H411a.136.136,0,0,1-.136-.136V68.92A.136.136,0,0,1,411,68.784Zm-1.118-2.442h.311a.136.136,0,0,1,.136.136v.311a.136.136,0,0,1-.136.136h-.311a.137.137,0,0,1-.136-.136v-.311a.136.136,0,0,1,.135-.136Zm1.08,0h.311a.136.136,0,0,1,.136.136v.311a.136.136,0,0,1-.136.136h-.311a.137.137,0,0,1-.137-.136v-.311a.138.138,0,0,1,.137-.136" transform="translate(-352.051 -57.303)" fill="#e1e4e5" fill-rule="evenodd"/>
        <path id="Trazado_361" data-name="Trazado 361" d="M489.82,354.4h.311a.136.136,0,0,1,.136.136v.311a.136.136,0,0,1-.136.136h-.311a.136.136,0,0,1-.136-.136v-.311a.136.136,0,0,1,.135-.136Zm1.079,0h.311a.136.136,0,0,1,.136.136v.311a.136.136,0,0,1-.136.136H490.9a.136.136,0,0,1-.136-.136v-.311a.136.136,0,0,1,.136-.136m1.08,0h.311a.136.136,0,0,1,.136.136v.311a.136.136,0,0,1-.136.136h-.311a.136.136,0,0,1-.136-.136v-.311a.136.136,0,0,1,.135-.136Zm1.08,0h.311a.137.137,0,0,1,.136.136v.311a.136.136,0,0,1-.136.136h-.311a.137.137,0,0,1-.137-.136v-.311a.137.137,0,0,1,.137-.136m1.079,0h.311a.137.137,0,0,1,.137.136v.311a.136.136,0,0,1-.137.136h-.311a.136.136,0,0,1-.136-.136v-.311a.137.137,0,0,1,.136-.136m-3.2,1.177h.311a.136.136,0,0,1,.136.136v.312a.136.136,0,0,1-.136.136h-.311a.136.136,0,0,1-.136-.136v-.311a.136.136,0,0,1,.135-.136h0m1.08,0h.311a.136.136,0,0,1,.136.136v.312a.136.136,0,0,1-.136.136h-.311a.136.136,0,0,1-.136-.136v-.311a.136.136,0,0,1,.135-.136h0m1.08,0h.311a.136.136,0,0,1,.137.136v.312a.137.137,0,0,1-.137.136H493.1a.137.137,0,0,1-.136-.136v-.311a.137.137,0,0,1,.136-.136m-1.118-2.442h.311a.136.136,0,0,1,.136.136v.311a.136.136,0,0,1-.136.136h-.311a.137.137,0,0,1-.136-.136v-.311a.136.136,0,0,1,.135-.136Zm1.08,0h.311a.137.137,0,0,1,.136.136v.311a.136.136,0,0,1-.136.136h-.311a.137.137,0,0,1-.137-.136v-.311a.137.137,0,0,1,.137-.136" transform="translate(-422.968 -305.021)" fill="#733426" fill-rule="evenodd"/>
      </g>
    </g>
    <g id="Grupo_232" data-name="Grupo 232" transform="translate(12.231 52.743)">
      <g id="Grupo_231" data-name="Grupo 231" clip-path="url(#clip-path-7)">
        <path id="Trazado_365" data-name="Trazado 365" d="M143.545,465l4.356-1.222V465Z" transform="translate(-136.219 -453.333)" fill="#fdfdfd"/>
        <path id="Trazado_366" data-name="Trazado 366" d="M97.323,453.8l10.654-2.988v1.766l-4.356,1.222Z" transform="translate(-96.294 -442.137)" fill="#fcfcfc"/>
        <path id="Trazado_367" data-name="Trazado 367" d="M93.4,442.6l-.448-1.6,11.249-3.155v1.766L93.547,442.6Z" transform="translate(-92.518 -430.94)" fill="#fbfbfb"/>
        <path id="Trazado_368" data-name="Trazado 368" d="M90.041,429.809l-.459-1.637,11.708-3.284v1.766Z" transform="translate(-89.607 -419.743)" fill="#fafafa"/>
        <path id="Trazado_369" data-name="Trazado 369" d="M86.67,417.752l-.459-1.637,11.731-3.29.437,1.558v.086Z" transform="translate(-86.696 -409.324)" fill="#f9f9f9"/>
        <path id="Trazado_370" data-name="Trazado 370" d="M84.559,405.735l-.261-.93v-.763l11.532-3.234.459,1.637Z" transform="translate(-85.044 -398.944)" fill="#f8f8f8"/>
        <path id="Trazado_371" data-name="Trazado 371" d="M84.3,391.9l11.073-3.105.459,1.637L84.3,393.662Z" transform="translate(-85.043 -388.564)" fill="#f7f7f7"/>
        <path id="Trazado_372" data-name="Trazado 372" d="M84.3,383.959l8.247-2.313H95.1l.273.973L84.3,385.725Z" transform="translate(-85.043 -382.393)" fill="#f5f5f5"/>
        <path id="Trazado_373" data-name="Trazado 373" d="M84.3,382.193l1.95-.547h6.3L84.3,383.959Z" transform="translate(-85.043 -382.392)" fill="#f4f4f4"/>
        <path id="Trazado_374" data-name="Trazado 374" d="M86.247,381.646l-1.95.547v-.547Z" transform="translate(-85.043 -382.392)" fill="#f3f3f3"/>
      </g>
    </g>
    <g id="Grupo_234" data-name="Grupo 234">
      <g id="Grupo_233" data-name="Grupo 233" clip-path="url(#clip-path)">
        <path id="Trazado_376" data-name="Trazado 376" d="M107.326,399.175A4.168,4.168,0,1,1,101.854,397,4.164,4.164,0,0,1,107.326,399.175Z" transform="translate(-85.797 -342.618)" fill="#fff"/>
        <path id="Trazado_377" data-name="Trazado 377" d="M117.761,411.1l.3.668-.616.273-.294-.651a3.243,3.243,0,0,1-1.747.2l.009-.877a2.792,2.792,0,0,0,1.385-.1l-.451-1c-.755.14-1.619.257-2-.6-.287-.631-.059-1.384.865-1.922l-.3-.663.616-.273.294.651a3.124,3.124,0,0,1,1.413-.189l.025.87a2.826,2.826,0,0,0-1.082.1l.46,1.014c.753-.148,1.6-.257,1.984.584C118.9,409.817,118.677,410.562,117.761,411.1Zm-1.808-2.366-.384-.847c-.294.217-.344.445-.255.643S115.645,408.773,115.954,408.736Zm1.709.972c-.094-.21-.324-.243-.63-.217l.374.824c.278-.2.342-.417.256-.607" transform="translate(-98.667 -350.824)" fill="#e1e4e5"/>
      </g>
    </g>
    <g id="Grupo_236" data-name="Grupo 236" transform="translate(83.196 14.617)">
      <g id="Grupo_235" data-name="Grupo 235" clip-path="url(#clip-path-9)">
        <path id="Trazado_378" data-name="Trazado 378" d="M608.958,153.128l7.169-.083v.69h-7.169Z" transform="translate(-609.188 -146.811)" fill="#fcfcfc"/>
        <path id="Trazado_379" data-name="Trazado 379" d="M608.958,145.474l7.169-.083v1.043l-7.169.083Z" transform="translate(-609.188 -140.199)" fill="#fbfbfb"/>
        <path id="Trazado_380" data-name="Trazado 380" d="M608.958,137.819l7.169-.083v1.043l-7.169.083Z" transform="translate(-609.188 -133.587)" fill="#fafafa"/>
        <path id="Trazado_381" data-name="Trazado 381" d="M608.958,130.164l7.169-.083v1.043l-7.169.083Z" transform="translate(-609.188 -126.976)" fill="#f9f9f9"/>
        <path id="Trazado_382" data-name="Trazado 382" d="M608.958,122.51l7.169-.083v1.043l-7.169.083Z" transform="translate(-609.188 -120.364)" fill="#f8f8f8"/>
        <path id="Trazado_383" data-name="Trazado 383" d="M608.958,114.855l7.169-.083v1.043l-7.169.083Z" transform="translate(-609.188 -113.752)" fill="#f7f7f7"/>
        <path id="Trazado_384" data-name="Trazado 384" d="M608.958,107.2l7.169-.083v1.043l-7.169.083Z" transform="translate(-609.188 -107.14)" fill="#f5f5f5"/>
        <path id="Trazado_385" data-name="Trazado 385" d="M616.127,105.8l-7.169.083v-.291h7.169Z" transform="translate(-609.188 -105.821)" fill="#f4f4f4"/>
      </g>
    </g>
    <g id="Grupo_238" data-name="Grupo 238">
      <g id="Grupo_237" data-name="Grupo 237" clip-path="url(#clip-path)">
        <path id="Trazado_387" data-name="Trazado 387" d="M621.6,115.316a2.556,2.556,0,1,1-2.9-2.156A2.554,2.554,0,0,1,621.6,115.316Z" transform="translate(-532.517 -97.72)" fill="#fff"/>
        <path id="Trazado_388" data-name="Trazado 388" d="M628.119,121.694l.073.444-.408.064-.071-.432a1.988,1.988,0,0,1-1.067-.159l.144-.518a1.712,1.712,0,0,0,.837.158l-.109-.662c-.47-.037-1-.1-1.093-.671-.07-.42.185-.829.817-1l-.072-.44.408-.064.071.432a1.917,1.917,0,0,1,.867.112l-.123.519a1.732,1.732,0,0,0-.657-.11l.111.673c.47.032.991.1,1.083.661.067.413-.184.819-.812.994m-.7-1.689-.093-.563c-.209.082-.274.209-.253.341s.157.2.346.222m.858.847c-.022-.139-.153-.2-.338-.228l.09.547c.2-.075.269-.193.248-.319" transform="translate(-541.07 -102.279)" fill="#e1e4e5"/>
      </g>
    </g>
  </g>
</svg>
