<svg xmlns="http://www.w3.org/2000/svg" width="43.027" height="49.173" viewBox="0 0 43.027 49.173">
  <path id="Icon_awesome-building" data-name="Icon awesome-building" d="M41.874,46.1H39.953V2.3a2.3,2.3,0,0,0-2.3-2.3H5.378a2.3,2.3,0,0,0-2.3,2.3V46.1H1.152A1.153,1.153,0,0,0,0,47.252v1.921H43.027V47.252A1.153,1.153,0,0,0,41.874,46.1ZM12.293,7.3a1.153,1.153,0,0,1,1.153-1.152h3.842A1.153,1.153,0,0,1,18.44,7.3v3.842a1.153,1.153,0,0,1-1.152,1.152H13.446a1.153,1.153,0,0,1-1.153-1.152Zm0,9.22a1.153,1.153,0,0,1,1.153-1.152h3.842a1.153,1.153,0,0,1,1.152,1.152v3.842a1.153,1.153,0,0,1-1.152,1.152H13.446a1.153,1.153,0,0,1-1.153-1.152Zm4.994,14.214H13.446a1.153,1.153,0,0,1-1.153-1.152V25.739a1.153,1.153,0,0,1,1.153-1.153h3.842a1.153,1.153,0,0,1,1.152,1.153v3.842A1.153,1.153,0,0,1,17.287,30.733Zm7.3,15.367H18.44V38.032a1.153,1.153,0,0,1,1.153-1.153h3.842a1.153,1.153,0,0,1,1.152,1.153Zm6.147-16.519a1.153,1.153,0,0,1-1.152,1.152H25.739a1.153,1.153,0,0,1-1.153-1.152V25.739a1.153,1.153,0,0,1,1.153-1.153h3.842a1.153,1.153,0,0,1,1.152,1.153Zm0-9.22a1.153,1.153,0,0,1-1.152,1.152H25.739a1.153,1.153,0,0,1-1.153-1.152V16.519a1.153,1.153,0,0,1,1.153-1.152h3.842a1.153,1.153,0,0,1,1.152,1.152Zm0-9.22a1.153,1.153,0,0,1-1.152,1.152H25.739a1.153,1.153,0,0,1-1.153-1.152V7.3a1.153,1.153,0,0,1,1.153-1.152h3.842A1.153,1.153,0,0,1,30.733,7.3Z" fill="#0c1133"/>
</svg>
