<svg id="Icon_ionic-ios-construct" data-name="Icon ionic-ios-construct" xmlns="http://www.w3.org/2000/svg" width="53.968" height="46.762" viewBox="0 0 53.968 46.762">
  <path id="Trazado_1355" data-name="Trazado 1355" d="M26.719,4.528Z" transform="translate(14.192 -2.685)" fill="#0c1133"/>
  <path id="Trazado_1356" data-name="Trazado 1356" d="M30.248,4.454a8.3,8.3,0,0,0-4.26-1.079,13.855,13.855,0,0,0-5.249,1.034,28.268,28.268,0,0,0-9.116,5.89,26.777,26.777,0,0,0-2.574,2.99c-.686.978.214,2.361-.686,3.26s-2.776,0-2.776,0a.594.594,0,0,0-.438.18L1.314,20.54a.611.611,0,0,0,0,.877l7.138,7.093a.612.612,0,0,0,.438.18.594.594,0,0,0,.438-.18L13.061,24.6a.611.611,0,0,0,0-.877s-.6-.585-1.36-1.349.09-2.169.6-2.63a3.458,3.458,0,0,1,2.372-.764,4.427,4.427,0,0,1,1.281.2c1.371.382,2.9,1.787,5.722,4.586l-.438.731a.974.974,0,0,0,.146,1.169s-.562-.551,1.473,1.473l5.62-5.306c-2.147-2.125-1.63-1.585-1.63-1.585a1.028,1.028,0,0,0-.708-.259,1.007,1.007,0,0,0-.472.112l-.629.337c-3.147-3.125-3.968-4.519-3.856-6.936.124-2.518,1.383-4.17,3.428-5.924,2.776-2.372,6.812-1.709,6.812-1.709C32.316,5.859,30.945,4.9,30.248,4.454Z" transform="translate(-1.129 -3.375)" fill="#0c1133"/>
  <path id="Trazado_1357" data-name="Trazado 1357" d="M40.008,32.988s-7.745-6.43-14.636-13.006l-5.362,5.688c6.576,6.812,12.916,14.343,12.916,14.343a.612.612,0,0,0,.438.18.594.594,0,0,0,.438-.18L40,33.865A.621.621,0,0,0,40.008,32.988Z" transform="translate(10.176 6.568)" fill="#0c1133"/>
  <path id="Trazado_1358" data-name="Trazado 1358" d="M50.478,12.052l-5.89,5.913-5.744-1.045L37.81,11.175,43.7,5.262A6.528,6.528,0,0,0,39.316,3.4a1.433,1.433,0,0,0-.225.011,10.75,10.75,0,0,0-6.733,3.339c-2.248,2.372-4.62,6.812-2.518,11.724a1.781,1.781,0,0,1-.3,2.214c-.169.157-1.113,1.057-2.529,2.394-.4.382-.832.787-1.3,1.236-.9.854-1.922,1.821-3.013,2.833-.427.4-.866.809-1.3,1.236C14.98,34.432,7.123,41.817,7.123,41.817a4.732,4.732,0,0,0-.011,6.834A5.035,5.035,0,0,0,10.63,50.09a4.3,4.3,0,0,0,3.316-1.473s7.363-7.846,13.41-14.265c.416-.45.832-.877,1.236-1.315,1.045-1.113,2.023-2.147,2.9-3.069.438-.472.854-.91,1.236-1.3,1.293-1.371,2.169-2.293,2.361-2.473a1.739,1.739,0,0,1,1.248-.573,2.162,2.162,0,0,1,.967.27,7.9,7.9,0,0,0,3.642.821,12.088,12.088,0,0,0,8.1-3.316,10.42,10.42,0,0,0,3.327-6.744A6.167,6.167,0,0,0,50.478,12.052ZM12.057,45.864a1.574,1.574,0,1,1,0-2.226A1.588,1.588,0,0,1,12.057,45.864Z" transform="translate(1.583 -3.362)" fill="#0c1133"/>
</svg>
