<svg version="1.2" xmlns="http://www.w3.org/2000/svg" viewBox="0 0 23 23" width="23" height="23"><defs><clipPath clipPathUnits="userSpaceOnUse" id="cp1"><path d="m0.4 0h22.4v22.4h-22.4z"/></clipPath></defs><style>.a{fill:#fff}</style><g clip-path="url(#cp1)"><path class="a" d="m19.3 11.2l-8.1-8.1-8.1 8.1 8.1 8z"/><path fill-rule="evenodd" class="a" d="m11.2 22.4l-11.2-11.2 11.2-11.2 11.2 11.2zm-10.5-11.2l10.5 10.6 10.6-10.6-10.6-10.5z"/><path  d="m10 8.6c0-0.3 0-0.5 0.3-0.5h1.8v-1.1h-2.6q-1 0-1 0.9v7.2c0 0.6 0.3 0.9 1 0.9h2.6 0.8c0.7 0 1-0.3 1-0.9v-7.2q0-0.9-1-0.9h-0.8v1.1c0.3 0 0.3 0.2 0.3 0.5v5.8c0 0.3 0 0.5-0.3 0.5h-1.8c-0.3 0-0.3-0.2-0.3-0.5z"/></g></svg>