<svg width="23" height="23" viewBox="0 0 23 23" fill="none" xmlns="http://www.w3.org/2000/svg">
<g clip-path="url(#clip0_1939_40)">
<path d="M19.2539 11.1916L11.2 3.1377L3.14601 11.1916L11.2 19.2456L19.2539 11.1916Z" fill="white"/>
<path d="M11.2 22.4L0 11.2L11.2 0L22.4 11.2L11.2 22.4ZM0.65 11.2L11.2 21.75L21.75 11.2L11.2 0.65L0.65 11.2Z" fill="white"/>
<path d="M8.30004 14.27C8.30004 13.67 8.53004 13.45 8.76004 13.29L12.21 10.93C12.67 10.61 12.69 10.28 12.69 9.84996C12.69 9.12996 12.52 8.82996 11.77 8.82996H8.80004V7.70996H12.42C13.66 7.70996 14.11 8.33996 14.11 9.68996C14.11 10.71 13.95 11.19 13.13 11.77L10.13 13.86C10.13 13.86 10.01 13.93 10.01 13.99C10.01 14.02 10.02 14.05 10.09 14.05H13.8V15.17H9.08004C8.94004 15.17 8.29004 15.16 8.29004 14.28L8.30004 14.27Z" fill="black"/>
</g>
<defs>
<clipPath id="clip0_1939_40">
<rect width="22.4" height="22.4" fill="white"/>
</clipPath>
</defs>
</svg>
