<svg width="24" height="23" viewBox="0 0 24 23" fill="none" xmlns="http://www.w3.org/2000/svg">
<g clip-path="url(#clip0_1939_52)">
<path d="M20.0539 11.1916L12 3.1377L3.94605 11.1916L12 19.2456L20.0539 11.1916Z" fill="white"/>
<path d="M12 22.4L0.800049 11.2L12 0L23.2 11.2L12 22.4ZM1.45005 11.2L12 21.75L22.55 11.2L12 0.65L1.45005 11.2Z" fill="white"/>
<path d="M9.1001 14.05H12.0901C12.9601 14.05 13.3901 14.03 13.3901 13.04C13.3901 12.41 13.2701 11.96 12.3801 11.96H9.2901V10.84H12.2901C13.0901 10.84 13.2801 10.53 13.2801 9.81996C13.2801 9.26996 13.1801 8.82996 12.4101 8.82996H9.2301V7.70996H12.9701C14.2901 7.70996 14.7401 8.36996 14.7401 9.66996C14.7401 10.35 14.6201 11.22 13.6201 11.35V11.39C14.6001 11.44 14.8401 12.26 14.8401 13.1C14.8401 14.25 14.5301 15.16 13.0801 15.16H9.1001V14.04V14.05Z" fill="black"/>
</g>
<defs>
<clipPath id="clip0_1939_52">
<rect width="22.4" height="22.4" fill="white" transform="translate(0.800049)"/>
</clipPath>
</defs>
</svg>
