<svg version="1.2" xmlns="http://www.w3.org/2000/svg" viewBox="0 0 23 23" width="23" height="23"><defs><clipPath clipPathUnits="userSpaceOnUse" id="cp1"><path d="m0.4 0h22.4v22.4h-22.4z"/></clipPath></defs><style>.a{fill:#fff}</style><g clip-path="url(#cp1)"><path class="a" d="m19.3 11.2l-8.1-8.1-8.1 8.1 8.1 8z"/><path fill-rule="evenodd" class="a" d="m11.2 22.4l-11.2-11.2 11.2-11.2 11.2 11.2zm-10.5-11.2l10.5 10.6 10.6-10.6-10.6-10.5z"/><path  d="m9.1 12.9c-0.7 0-0.8-0.3-0.6-0.5l3-3.9-0.6-1-3.8 4.9c-0.6 0.8-0.2 1.5 0.9 1.5h0.9 2.9v0.9h1v-0.9h1v-1h-1v-3.8c0 0 0.1-2-0.5-2.2-0.8-0.2-1.4 0.6-1.4 0.6l0.6 1c0 0 0.3-0.2 0.3 0.2 0 0.3 0 1.2 0 1.2v3z"/></g></svg>