<svg width="8" height="9" viewBox="0 0 8 9" fill="none" xmlns="http://www.w3.org/2000/svg">
<g clip-path="url(#clip0_2222_3456)">
<path d="M3.99624 9.00001C1.78779 9.00001 0 7.19396 0 4.97986C0 2.76575 1.79531 0.952148 3.99624 0.952148C6.19718 0.952148 7.99249 2.75819 7.99249 4.9723C7.99249 7.18641 6.19718 8.99245 3.99624 8.99245V9.00001ZM3.99624 1.25442C1.96056 1.25442 0.300469 2.92444 0.300469 4.97986C0.300469 7.03527 1.96056 8.7053 4.00376 8.7053C6.04695 8.7053 7.70704 7.03527 7.70704 4.97986C7.70704 2.92444 6.03944 1.25442 3.99624 1.25442Z" fill="white"/>
<path d="M3.99648 2.13086C5.55892 2.13086 6.8284 3.40794 6.8284 4.97973C6.8284 6.55151 5.55892 7.82859 3.99648 7.82859C2.43403 7.82859 1.16455 6.55151 1.16455 4.97973H3.99648V2.13086Z" fill="white"/>
<path d="M2.71288 2.4329L2.45264 2.58398L2.79432 3.17957L3.05456 3.02849L2.71288 2.4329Z" fill="white"/>
<path d="M1.61947 3.4228L1.46924 3.68457L2.06123 4.0284L2.21146 3.76663L1.61947 3.4228Z" fill="white"/>
<path d="M4.4846 0H3.47803V0.34005H4.4846V0Z" fill="white"/>
<path d="M4.23687 0.339844H3.72607V1.11062H4.23687V0.339844Z" fill="white"/>
<path d="M1.09895 1.20298L0.490723 1.76562L0.67885 1.97144L1.28708 1.40879L1.09895 1.20298Z" fill="white"/>
<path d="M1.12752 1.55536L0.817871 1.8418L1.24497 2.30904L1.55461 2.02261L1.12752 1.55536Z" fill="white"/>
</g>
<defs>
<clipPath id="clip0_2222_3456">
<rect width="8" height="9" fill="white"/>
</clipPath>
</defs>
</svg>
