<svg width="17" height="18" viewBox="0 0 17 18" fill="none" xmlns="http://www.w3.org/2000/svg">
<g clip-path="url(#clip0_2283_14)">
<path d="M16.9768 6.40755C16.9768 6.40755 16.8138 0 8.50008 0C0.186378 0 7.61878e-05 6.40755 7.61878e-05 6.40755C-0.0697868 7.35849 0.0233639 8.51321 0.16309 9.50943C0.372679 11.0038 1.0946 12.3849 2.2124 13.4038L2.93432 14.0604C3.28364 14.3774 3.51651 14.8302 3.58638 15.283L3.7261 16.3698C3.77268 16.7321 4.00556 17.0717 4.33158 17.2528C4.51788 17.366 4.77405 17.4792 5.12336 17.5925C5.49597 17.7057 5.89186 17.5245 6.03158 17.1849C6.21788 16.7321 6.33432 16.1887 6.33432 15.5321C6.33432 15.5321 6.35761 16.5962 6.82336 17.5472C6.9398 17.7736 7.17268 17.9321 7.42884 17.9547C7.75487 17.9547 8.10419 17.9774 8.47679 17.9774C8.84939 17.9774 9.19871 17.9774 9.52473 17.9547C9.7809 17.9547 10.0138 17.7736 10.1302 17.5472C10.596 16.5962 10.6193 15.5321 10.6193 15.5321C10.6193 16.1887 10.7357 16.7321 10.922 17.1849C11.0617 17.5245 11.4576 17.7057 11.8302 17.5925C12.1562 17.4792 12.4124 17.366 12.622 17.2528C12.948 17.0717 13.1809 16.7321 13.2275 16.3698L13.3672 15.283C13.4371 14.8075 13.6699 14.3774 14.0193 14.0604L14.7412 13.4038C15.859 12.3623 16.5809 10.9811 16.7905 9.50943C16.9302 8.51321 17.0234 7.35849 16.9535 6.40755H16.9768ZM5.54254 10.5962L4.6809 10.6415C3.74939 10.6868 2.95761 10.0075 2.88775 9.07925V8.58113C2.7946 7.67547 3.51651 6.90566 4.44802 6.83774L5.30967 6.79245C6.24117 6.74717 7.03295 7.42642 7.10282 8.35472V8.85283C7.19597 9.75849 6.47405 10.5283 5.54254 10.5962ZM8.50008 13.4943H7.61514C7.21925 13.4943 6.9398 13.0868 7.1261 12.7245L8.17405 10.5736C8.31378 10.3019 8.70967 10.3019 8.84939 10.5736L9.89734 12.7245C10.0604 13.0868 9.80419 13.4943 9.40829 13.4943H8.52336H8.50008ZM14.1124 8.58113V9.07925C14.0193 9.98491 13.2275 10.6868 12.296 10.6415L11.4343 10.5962C10.5028 10.5509 9.7809 9.75849 9.82747 8.85283V8.35472C9.92062 7.44906 10.7124 6.74717 11.6439 6.79245L12.5056 6.83774C13.4371 6.88302 14.159 7.67547 14.1124 8.58113Z" fill="white"/>
</g>
<defs>
<clipPath id="clip0_2283_14">
<rect width="17" height="18" fill="white"/>
</clipPath>
</defs>
</svg>
