<svg version="1.2" xmlns="http://www.w3.org/2000/svg" viewBox="0 0 20 22" width="20" height="22"><defs><clipPath clipPathUnits="userSpaceOnUse" id="cp1"><path d="m0 0h20v22h-20z"/></clipPath></defs><style>.a{fill:#fff}</style><g clip-path="url(#cp1)"><path class="a" d="m16.1 10.1q0.1-0.3 0-0.5c-0.2-0.1-0.3-0.1-0.5-0.1l-5-1.1 2.6-7.3c0-0.2-0.2-0.4-0.4-0.5q-0.1 0-0.2 0c-0.2 0.1-0.3 0.2-0.4 0.4l-8.9 9.4c-0.1 0.1-0.1 0.3 0.1 0.5 0.1 0.1 0.3 0.2 0.4 0.2l6.3 1-2.6 9.2c0 0.2 0.2 0.4 0.4 0.4q0.1 0 0.2 0c0.2 0 0.3-0.1 0.4-0.3z"/></g></svg>