<svg width="9" height="19" viewBox="0 0 9 19" fill="none" xmlns="http://www.w3.org/2000/svg">
<g clip-path="url(#clip0_2142_28)">
<path d="M4.52637 4.5468L3.89654 0.204102H3.27849V3.86559C3.28438 4.00751 3.16077 4.12104 3.00773 4.12104C2.86057 4.12104 2.73696 4.01318 2.73108 3.87127L2.65456 0.209778H1.90701L1.84226 3.85991C1.84226 4.00751 1.71276 4.12104 1.55384 4.12104C1.39491 4.12104 1.26541 4.00183 1.26541 3.85424L1.28896 0.209778H0.670907L0.0351978 4.5468C-0.111957 5.54022 0.182353 6.545 0.841607 7.33975L1.10649 7.66332C1.72454 8.40697 2.01885 9.33795 1.93055 10.2746L1.17123 18.5002C1.14769 18.767 1.37725 18.9997 1.67156 18.9997H2.89C3.18431 18.9997 3.41388 18.767 3.39033 18.5002L2.63101 10.2746C2.54272 9.33795 2.83703 8.41265 3.45508 7.66332L3.71996 7.33975C4.37921 6.545 4.66764 5.54022 4.52637 4.5468Z" fill="white"/>
<path d="M8.05223 10.7742L8.7468 18.5115C8.77034 18.7727 8.55255 18.9941 8.28179 18.9941H6.96328C6.6984 18.9941 6.4865 18.784 6.49827 18.5343L6.79847 9.67288C6.86322 7.77118 6.86322 5.8638 6.79847 3.9621L6.68074 0.351702C6.66897 0.056512 7.03391 -0.11379 7.27525 0.0735421L7.65197 0.368732C8.49369 1.02723 8.98813 2.01498 8.98813 3.05382L9.01168 9.50826C9.01168 10.0816 8.62908 10.5925 8.064 10.7742H8.05223Z" fill="white"/>
</g>
<defs>
<clipPath id="clip0_2142_28">
<rect width="9" height="19" fill="white"/>
</clipPath>
</defs>
</svg>
