<svg width="15" height="17" viewBox="0 0 15 17" fill="none" xmlns="http://www.w3.org/2000/svg">
<g clip-path="url(#clip0_2140_20)">
<path d="M11.5957 0.620785L14.3283 3.27466L14.7783 2.83763C15.0653 2.55894 15.0653 2.1029 14.7783 1.82421L13.1218 0.21542C12.8479 -0.0506011 12.4044 -0.0632688 12.1109 0.183751L11.5957 0.627119V0.620785Z" fill="white"/>
<path d="M14.3087 4.231L10.4478 0.481371C10.1413 0.183681 9.71739 0.0126677 9.28043 0.0126677L2.1913 0C0.978261 0 0 0.950074 0 2.12183V15.2012C0 16.1956 0.828261 17 1.85217 17H12.9978C14.0217 17 14.85 16.1956 14.85 15.2012V5.5041C14.85 5.02906 14.6543 4.57303 14.3087 4.231ZM11.5435 14.2321L10.7674 14.9858L9.45 13.7064H5.51087L4.19348 14.9858L3.41739 14.2321L4.60435 13.0794V8.9117L3.41739 7.75894L4.19348 7.00522L5.4587 8.23398H9.50217L10.7674 7.00522L11.5435 7.75894L10.2326 9.03204V12.9654L11.5435 14.2385V14.2321ZM10.7543 4.56036H3.58696C2.98043 4.56036 2.47174 4.11699 2.4 3.53428C2.32174 2.85022 2.86957 2.24218 3.58696 2.24218H8.25652C8.90217 2.24218 9.51522 2.49553 9.96522 2.94523L11.0022 3.98398C11.2174 4.19933 11.0609 4.56036 10.7543 4.56036Z" fill="white"/>
<path d="M8.94782 9.50098H5.90869V12.4525H8.94782V9.50098Z" fill="white"/>
</g>
<defs>
<clipPath id="clip0_2140_20">
<rect width="15" height="17" fill="white"/>
</clipPath>
</defs>
</svg>
