<svg width="21" height="21" viewBox="0 0 21 21" fill="none" xmlns="http://www.w3.org/2000/svg">
<g clip-path="url(#clip0_1939_25)">
<path d="M10.2701 5.88965C7.94006 5.88965 6.06006 7.77965 6.06006 10.0996C6.06006 12.4196 7.95006 14.3096 10.2701 14.3096C12.5901 14.3096 14.4801 12.4196 14.4801 10.0996C14.4801 7.77965 12.5901 5.88965 10.2701 5.88965ZM10.2701 12.8696C8.74006 12.8696 7.50006 11.6296 7.50006 10.0996C7.50006 8.56965 8.74006 7.32965 10.2701 7.32965C11.8001 7.32965 13.0401 8.56965 13.0401 10.0996C13.0401 11.6296 11.8001 12.8696 10.2701 12.8696Z" fill="white"/>
<path d="M11.8901 10.1005C11.8901 11.0005 11.1601 11.7205 10.2701 11.7205C9.38015 11.7205 8.65015 10.9905 8.65015 10.1005C8.65015 9.21047 9.38015 8.48047 10.2701 8.48047C11.1601 8.48047 11.8901 9.21047 11.8901 10.1005Z" fill="white"/>
<path d="M6.15007 12.8896L0.24007 16.8996C-0.04993 17.0996 -0.0799299 17.5196 0.18007 17.7596L3.14007 20.4296C3.38007 20.6496 3.76007 20.6096 3.95007 20.3396L8.08007 14.5696C7.30007 14.1896 6.63007 13.6096 6.15007 12.8896Z" fill="white"/>
<path d="M20.29 16.9004L14.38 12.9004C13.9 13.6104 13.23 14.1904 12.45 14.5804L16.58 20.3504C16.77 20.6104 17.15 20.6504 17.39 20.4404L20.35 17.7704C20.61 17.5304 20.58 17.1104 20.29 16.9104" fill="white"/>
<path d="M16.3601 13.3701L19.0101 15.1601H19.0201V6.37012L16.3601 8.38012V13.3701Z" fill="white"/>
<path d="M1.52002 15.1601H1.53002L4.18002 13.3701V8.38012L1.52002 6.37012V15.1601Z" fill="white"/>
<path d="M12.49 15.8496L10.27 17.1296L8.04999 15.8496L6.48999 18.0296L10.27 20.2096L14.04 18.0296L12.49 15.8496Z" fill="white"/>
<path d="M15.24 5.94L17.55 4.2L10.27 0L2.98999 4.2L5.28999 5.94L10.27 3.07L15.24 5.94Z" fill="white"/>
</g>
<defs>
<clipPath id="clip0_1939_25">
<rect width="20.53" height="20.57" fill="white"/>
</clipPath>
</defs>
</svg>
