<svg width="20" height="22" viewBox="0 0 20 22" fill="none" xmlns="http://www.w3.org/2000/svg">
<g clip-path="url(#clip0_2142_31)">
<path d="M10.5027 22L0.175171 16.5056L0 14.752L7.75324 0.481697L9.44402 0L19.9391 5.67499L19.9924 7.61683L18.2635 10.8231L17.6847 10.921L13.8462 17.7852L14.0289 18.6582L12.2772 21.6237L10.495 22H10.5027ZM1.05103 15.9261L10.6398 21.0291L11.6832 20.8033L13.0465 18.4926L12.8637 17.6271L17.083 10.078L17.6542 9.98016L19.0556 7.38351L19.0251 6.2169L9.3374 0.985973L8.39299 1.25693L0.952018 14.9401L1.05103 15.9261Z" fill="white"/>
<path d="M14.783 9.86749L11.7974 15.1963L10.4265 14.4511L11.6223 12.3211L7.77611 10.2212L6.58038 12.3512L5.20947 11.6061L8.195 6.27734L9.56591 7.02247L8.34732 9.19763L12.1935 11.2975L13.4121 9.12237L14.783 9.86749Z" fill="white"/>
</g>
<defs>
<clipPath id="clip0_2142_31">
<rect width="20" height="22" fill="white"/>
</clipPath>
</defs>
</svg>
