<svg width="23" height="20" viewBox="0 0 23 20" fill="none" xmlns="http://www.w3.org/2000/svg">
<g clip-path="url(#clip0_2283_7)">
<path d="M6.8623 3.27112L7.8696 5.1024L8.62508 3.08594L6.8623 3.27112Z" fill="white"/>
<path d="M21.8877 6.33724C21.6778 5.74053 21.0273 5.41131 20.4187 5.61707L21.3211 8.29197C21.9297 8.08621 22.2654 7.44835 22.0556 6.85164L21.8877 6.33724Z" fill="white"/>
<path d="M18.8239 4.0535L19.9361 4.50617L21.0483 4.01235L20.8804 3.78601C20.3768 3.12757 20.062 2.3251 19.9781 1.50206L19.1596 1.15226L18.7189 0L18.2363 0.164609L18.0054 0.823045L16.3266 1.35802L15.9489 2.26337L11.8777 3.58025L14.9835 5.06173L18.8448 4.07407L18.8239 4.0535Z" fill="white"/>
<path d="M22.9371 1.58395C22.7272 0.925519 21.9927 0.575725 21.3422 0.781486L20.5238 1.04898C20.3559 2.46873 21.3212 3.41523 21.3212 3.41523L22.1396 3.14774C22.8112 2.94198 23.1679 2.22181 22.9581 1.58395H22.9371Z" fill="white"/>
<path d="M18.9288 4.81476L14.9836 5.80242L10.5766 3.82711L8.72993 5.51435L9.90511 6.46085L6.9042 9.79419L8.20529 7.09871L7.09307 7.05756L7.51277 6.09048L6.63139 6.02875L6.84124 5.0411L5.09945 5.59666L4.30201 4.75303L3.46259 5.02052L3.1688 5.41147L1.67883 5.88472L2.56022 3.25098L1.93066 3.45674L0.125912 6.95468L0 9.0946L0.692518 11.1728L1.21715 11.1316L0 18.9094L1.09124 19.753L4.07117 19.9999L4.17609 19.5473L5.37226 19.4444L5.24635 18.7448L4.67974 18.3539L4.36496 17.716L4.42792 17.1193L5.22536 13.7242L4.51186 11.7901L4.80566 10.9053C4.80566 10.9053 5.66606 12.4485 6.44252 12.2839C6.44252 12.2839 5.85493 10.8847 6.10675 10.0411L9.86314 8.90941L10.5137 10.288L16.8093 13.251L19.0547 12.3662L21.0484 9.27978L19.7053 5.26744L18.9078 4.81476H18.9288ZM18.0265 11.6049L16.7463 12.1193L11.9617 9.93822L11.6259 8.95056L19.1387 9.46497L19.2646 9.85591L18.0265 11.6049ZM14.2911 8.1481L14.9206 7.11929L18.0684 6.11106L18.698 6.15221L19.4954 8.53904L14.2911 8.1481Z" fill="white"/>
</g>
<defs>
<clipPath id="clip0_2283_7">
<rect width="23" height="20" fill="white"/>
</clipPath>
</defs>
</svg>
