<svg width="20" height="19" viewBox="0 0 20 19" fill="none" xmlns="http://www.w3.org/2000/svg">
<g clip-path="url(#clip0_2142_34)">
<path d="M0 12.1787V14.683L9.57777 18.9996V16.3454L0 12.1787Z" fill="white"/>
<path d="M19.9999 12.1787V14.683L10.4221 18.9996V16.3454L19.9999 12.1787Z" fill="white"/>
<path d="M13.9228 3.82426C13.9228 1.71235 12.1906 0 10.0542 0C7.91777 0 6.18555 1.71235 6.18555 3.82426C6.18555 3.90274 6.19276 4.05971 6.19276 4.05971C6.22164 4.5306 6.33712 4.9801 6.52477 5.38678C7.43419 7.76981 9.8954 10.6594 10.0831 10.8806C10.0831 10.8806 13.1217 7.36312 13.7929 4.80886C13.7929 4.78746 13.8073 4.75892 13.8146 4.73751C13.829 4.68757 13.8362 4.64476 13.8507 4.59482C13.9012 4.3451 13.93 4.10965 13.93 3.89561C13.93 3.89561 13.93 3.8528 13.93 3.83139L13.9228 3.82426ZM10.0542 5.47953C9.01485 5.47953 8.17039 4.64476 8.17039 3.61735C8.17039 2.58994 9.01485 1.75516 10.0542 1.75516C11.0935 1.75516 11.938 2.58994 11.938 3.61735C11.938 4.64476 11.0935 5.47953 10.0542 5.47953Z" fill="white"/>
<path d="M12.9556 9.22483C11.9523 10.8872 10.7253 12.3213 10.6459 12.4141L10.0757 13.0776L9.49834 12.3998C9.10137 11.9289 8.04038 10.6304 7.16705 9.19629L1.27026 11.4723L10.0469 15.3536L19.0689 11.4866L12.9484 9.21769L12.9556 9.22483Z" fill="white"/>
</g>
<defs>
<clipPath id="clip0_2142_34">
<rect width="20" height="19" fill="white"/>
</clipPath>
</defs>
</svg>
