<svg width="13" height="22" viewBox="0 0 13 22" fill="none" xmlns="http://www.w3.org/2000/svg">
<g clip-path="url(#clip0_2140_10)">
<path d="M10.8323 0V9.53615L13.0001 7.78375V0H10.8323Z" fill="white"/>
<path d="M4.55811 0.169147V11.4436L6.49664 13.0201L8.44212 11.4366V0.162109L4.55811 0.169147Z" fill="white"/>
<path d="M0 7.78375L2.16782 9.53615V0H0V7.78375Z" fill="white"/>
<path d="M9.4077 17.616L10.8321 15.9339L7.71235 16.3914L8.16398 13.2314L6.49643 14.6671L4.83582 13.2314L5.28745 16.3914L2.16772 15.9339L3.58515 17.616L2.16772 19.305L5.28745 18.8405L4.83582 22.0005L6.49643 20.5648L8.16398 22.0005L7.71235 18.8405L10.8321 19.305L9.4077 17.616Z" fill="white"/>
</g>
<defs>
<clipPath id="clip0_2140_10">
<rect width="13" height="22" fill="white"/>
</clipPath>
</defs>
</svg>
