<svg width="22" height="19" viewBox="0 0 22 19" fill="none" xmlns="http://www.w3.org/2000/svg">
<g clip-path="url(#clip0_2283_3)">
<path d="M21.0087 17.3418C21.0087 17.2109 21.0518 17.0582 21.1164 16.9055L21.5905 15.4003C22.28 13.1317 22.0861 10.6885 21.0302 8.55072C20.3623 7.19826 19.3711 6.04211 18.1429 5.16955L17.6688 4.84234C17.2379 4.53695 16.7854 4.27518 16.3113 4.05704L15.1693 4.12248V5.58402L12.7129 6.60928L12.2604 8.59435L9.52388 7.50365L7.28294 9.16152L8.01555 6.39114H11.1184L12.7129 4.75509L11.9803 3.8389L12.756 3.16266C11.9372 3.11904 11.1184 3.16266 10.2996 3.3808C8.64043 3.75164 7.08901 4.58057 5.83926 5.73672C4.76188 6.74016 3.92153 7.96175 3.36129 9.31421L2.73641 10.863C2.73641 10.863 1.87451 11.5392 -0.0432129 11.8665C-0.0432129 11.8665 1.63749 12.6736 3.64141 13.3716C4.61105 13.6988 5.53759 14.1133 6.46413 14.5714C7.2183 14.9422 8.0802 15.4003 8.87745 15.8366C10.4504 16.731 12.088 17.4508 13.8118 17.9744C16.2036 18.6942 19.3064 19.3487 21.4827 18.7815L21.5474 18.6724L21.2026 18.2361C21.0087 17.9962 20.9225 17.669 20.9656 17.3636L21.0087 17.3418ZM18.4445 7.98356C18.6169 7.98356 18.7462 8.11444 18.7462 8.28896C18.7462 8.46347 18.6169 8.59435 18.4445 8.59435C18.2722 8.59435 18.1429 8.46347 18.1429 8.28896C18.1429 8.11444 18.2722 7.98356 18.4445 7.98356ZM17.5396 6.84923C17.7119 6.84923 17.8628 7.00193 17.8628 7.17644C17.8628 7.35095 17.7119 7.50365 17.5396 7.50365C17.3672 7.50365 17.2163 7.35095 17.2163 7.17644C17.2163 7.00193 17.3672 6.84923 17.5396 6.84923ZM17.2163 7.85268C17.4534 7.85268 17.6257 8.049 17.6257 8.26714C17.6257 8.48528 17.4318 8.68161 17.2163 8.68161C17.0009 8.68161 16.8069 8.48528 16.8069 8.26714C16.8069 8.049 17.0009 7.85268 17.2163 7.85268ZM18.4015 17.4945C16.0097 17.7562 13.5748 17.08 11.4847 15.902C11.4201 15.8584 11.3123 15.793 11.2477 15.7493C11.1184 15.6621 10.7521 15.4221 10.6228 15.3131C10.1488 14.964 9.43769 14.4841 8.98519 14.1351C8.20948 13.5461 7.36913 13.0008 6.46413 12.6081C5.8608 12.3245 5.21438 12.1282 4.5895 11.8883V11.801C5.96854 11.9319 7.32603 12.3027 8.51115 13.0008C9.56697 13.6334 10.6659 14.3969 11.6786 15.0949C12.282 15.4876 12.9499 15.793 13.6179 16.0984C14.8246 16.6001 16.0959 16.9927 17.3887 17.1891L17.8843 17.2545C18.0567 17.2545 18.2075 17.2763 18.3799 17.2981C18.5307 17.2981 18.7247 17.32 18.8755 17.32C19.0479 17.32 19.2203 17.32 19.3711 17.32C19.0479 17.3854 18.7031 17.4727 18.3799 17.4945H18.4015Z" fill="white"/>
<path d="M11.7219 1.91963L10.4722 1.11251L12.002 0L12.3899 1.65786" fill="white"/>
<path d="M14.6309 1.48362L15.9668 0.305664L17.2166 2.50888L14.6309 2.74883V1.48362Z" fill="white"/>
</g>
<defs>
<clipPath id="clip0_2283_3">
<rect width="22" height="19" fill="white"/>
</clipPath>
</defs>
</svg>
