<svg width="22" height="15" viewBox="0 0 22 15" fill="none" xmlns="http://www.w3.org/2000/svg">
<g clip-path="url(#clip0_2140_18)">
<path d="M21.0196 13.4414C21.0388 13.3125 21.0708 13.1776 21.1285 13.0303L21.5963 11.5947C22.2948 9.4475 22.0962 7.12848 21.0452 5.12235C20.3723 3.84014 19.379 2.74198 18.155 1.91376L17.6872 1.60088C15.5532 0.171428 12.8873 -0.331639 10.3496 0.214373C8.68343 0.576336 7.14541 1.34321 5.88296 2.4475C4.80635 3.38615 3.96045 4.54566 3.40932 5.84014L2.7813 7.3064C2.7813 7.3064 1.92258 7.9383 -0.00634766 8.25118C-0.00634766 8.25118 1.67265 9.01805 3.68488 9.68063C4.65255 9.99965 5.59458 10.38 6.50458 10.8095C7.24795 11.1653 8.1259 11.5947 8.91413 12.0181C10.4778 12.8585 12.1311 13.5457 13.855 14.0303C16.2453 14.7052 19.3406 15.3248 21.5322 14.7972L21.5963 14.6868L21.2503 14.2635C21.058 14.0303 20.9683 13.7236 21.0132 13.4291L21.0196 13.4414ZM18.4434 4.58861C18.61 4.58861 18.7382 4.71744 18.7382 4.87081C18.7382 5.02419 18.6036 5.15302 18.4434 5.15302C18.2832 5.15302 18.1486 5.02419 18.1486 4.87081C18.1486 4.71744 18.2832 4.58861 18.4434 4.58861ZM17.5398 3.52112C17.7193 3.52112 17.8666 3.66223 17.8666 3.834C17.8666 4.00578 17.7193 4.14689 17.5398 4.14689C17.3604 4.14689 17.213 4.00578 17.213 3.834C17.213 3.66223 17.3604 3.52112 17.5398 3.52112ZM17.213 4.47204C17.4437 4.47204 17.6295 4.64996 17.6295 4.87081C17.6295 5.09167 17.4437 5.26959 17.213 5.26959C16.9823 5.26959 16.7964 5.09167 16.7964 4.87081C16.7964 4.64996 16.9823 4.47204 17.213 4.47204ZM18.4178 13.5825C16.0146 13.8217 13.5858 13.1898 11.4903 12.0794C11.4198 12.0426 11.3237 11.9812 11.2596 11.9383C11.125 11.8524 10.7726 11.6193 10.638 11.5273C10.1574 11.2021 9.45884 10.742 8.99103 10.4107C8.2028 9.84627 7.37612 9.33094 6.46613 8.9567C5.86374 8.68677 5.21649 8.50885 4.59488 8.28186L4.62051 8.19597C5.9855 8.33094 7.33126 8.66223 8.52963 9.3248C9.58701 9.92603 10.6764 10.6438 11.7018 11.3003C12.3042 11.6745 12.977 11.969 13.6435 12.2512C14.8547 12.7358 16.1236 13.1039 17.4245 13.2819L17.9179 13.3493C18.0845 13.3616 18.2512 13.3677 18.4178 13.3862C18.578 13.4046 18.7638 13.4107 18.9176 13.4107C19.0842 13.4107 19.2509 13.4107 19.4239 13.423C19.0971 13.4843 18.7574 13.5641 18.4242 13.5886L18.4178 13.5825Z" fill="white"/>
</g>
<defs>
<clipPath id="clip0_2140_18">
<rect width="22" height="15" fill="white"/>
</clipPath>
</defs>
</svg>
