<svg width="22" height="18" viewBox="0 0 22 18" fill="none" xmlns="http://www.w3.org/2000/svg">
<g clip-path="url(#clip0_2140_2)">
<path d="M5.81226 7.82324L11.0724 17.9999L16.121 7.82324H5.81226Z" fill="white"/>
<path d="M5.81226 6.77113H16.121L15.1966 3.66211H6.74051L5.81226 6.77113Z" fill="white"/>
<path d="M4.80187 6.77069L5.81237 3.33836L2.61636 2.04888C2.31478 1.92858 1.97011 2.01505 1.76644 2.25941L0.0744344 4.32708C-0.0665662 4.50001 1.74195e-05 4.75189 0.207602 4.84211L4.80187 6.77445V6.77069Z" fill="white"/>
<path d="M16.1211 3.66214L17.0454 6.36891L21.7807 4.79748C21.9805 4.72981 22.0588 4.50049 21.9413 4.33131L20.5078 2.33131C20.308 2.04936 19.9242 1.95161 19.603 2.09447L16.1172 3.66214H16.1211Z" fill="white"/>
<path d="M0.383789 5.96582L9.17674 16.4658L4.95847 8.15755C4.88797 8.00717 4.75872 7.88687 4.59814 7.82296L0.383789 5.96582Z" fill="white"/>
<path d="M17.0257 8.03405L12.8779 16.4664L21.8001 5.75586L17.3508 7.72578C17.2059 7.78969 17.0923 7.89872 17.0257 8.03781V8.03405Z" fill="white"/>
<path d="M3.25868 1.42872L6.17269 2.54902C6.34894 2.61669 6.54086 2.65428 6.73277 2.65428H15.1967C15.3926 2.65428 15.5845 2.61669 15.7607 2.54902L18.6434 1.42872C18.7061 1.4024 18.7061 1.3197 18.6434 1.29338L15.7568 0.127966C15.5531 0.0452596 15.3338 0.00390625 15.1145 0.00390625H7.12444C6.92469 0.00390625 6.72494 0.0377408 6.53694 0.10541L3.25868 1.29714C3.19209 1.3197 3.19209 1.40992 3.25868 1.43248V1.42872Z" fill="white"/>
</g>
<defs>
<clipPath id="clip0_2140_2">
<rect width="22" height="18" fill="white"/>
</clipPath>
</defs>
</svg>
