<svg xmlns="http://www.w3.org/2000/svg" xmlns:xlink="http://www.w3.org/1999/xlink" width="513.895" height="135.457" viewBox="0 0 513.895 135.457">
  <defs>
    <clipPath id="clip-path">
      <rect id="Rectángulo_1889" data-name="Rectángulo 1889" width="513.895" height="135.457" fill="#fff"/>
    </clipPath>
  </defs>
  <g id="BUTTON_EXPLORE" data-name="BUTTON EXPLORE" style="mix-blend-mode: screen;isolation: isolate">
    <g id="Grupo_4312" data-name="Grupo 4312" clip-path="url(#clip-path)">
      <path id="Trazado_2013" data-name="Trazado 2013" d="M771.871,8.355A8.356,8.356,0,0,0,763.515,0h-5.438a62.2,62.2,0,0,1,13.794,20.153Z" transform="translate(-257.976 0)" fill="#fff"/>
      <path id="Trazado_2014" data-name="Trazado 2014" d="M610.919,29.976A55.306,55.306,0,1,0,717.767,58.584c.09-.334.159-.67.242-1.005a11.593,11.593,0,0,1,1.014-21.51A55.635,55.635,0,0,0,697.465,0H631.271a55.02,55.02,0,0,0-20.352,29.977M675.41,2.948A42.788,42.788,0,1,1,641.9,80.707a7.086,7.086,0,0,1-9.937-8.216c.018-.064.042-.125.061-.189A42.776,42.776,0,0,1,675.41,2.948" transform="translate(-207.255 0)" fill="#fff"/>
      <path id="Trazado_2015" data-name="Trazado 2015" d="M650.441,71.566a7.1,7.1,0,0,1,5.153,8.06,36.427,36.427,0,1,0-9.294-7.914,7.052,7.052,0,0,1,4.142-.146m9.849-26.9a14.325,14.325,0,1,1,10.133,17.543A14.325,14.325,0,0,1,660.29,44.669" transform="translate(-217.04 -4.093)" fill="#fff"/>
      <path id="Trazado_2016" data-name="Trazado 2016" d="M146.392,61.914a2.565,2.565,0,0,0,.756,1.826,2.643,2.643,0,0,0,3.651,0,2.582,2.582,0,0,0-1.826-4.407" transform="translate(-49.818 -20.191)" fill="#fff"/>
      <path id="Trazado_2017" data-name="Trazado 2017" d="M124.808,38.77c-14.858,0-37.051,22.856-37.051,22.856l-19.474-.475L59.5,69.938l19,8.55,8.668,8.668,8.668,8.668,8.55,19,8.786-8.787-.475-19.474s32.774-31.823,19.83-44.767a10.472,10.472,0,0,0-7.716-3.025m-.374,21.178a7.116,7.116,0,1,1,0-10.063,7.09,7.09,0,0,1,0,10.063" transform="translate(-20.247 -13.194)" fill="#fff"/>
      <path id="Trazado_2018" data-name="Trazado 2018" d="M426.323,81.189c4.745,0,6.485-1.74,7.592-6.881a19.132,19.132,0,0,0,.4-3.676c0-2.768-1.739-3.994-4.9-3.994-4.745,0-6.524,1.74-7.592,6.88a20.257,20.257,0,0,0-.435,3.717c0,2.767,1.779,3.954,4.942,3.954" transform="translate(-143.397 -22.677)" fill="#fff"/>
      <path id="Trazado_2019" data-name="Trazado 2019" d="M345.351,70.439a6.457,6.457,0,0,0,.2-1.423c0-1.5-1.067-1.9-3.044-1.9h-4.547a1.913,1.913,0,0,0-2.1,1.74l-.91,4.191h6.288c2.372,0,3.479-.277,4.112-2.61" transform="translate(-113.985 -22.84)" fill="#fff"/>
      <path id="Trazado_2020" data-name="Trazado 2020" d="M470.981,118.915c-.119,0-.356.356-.475.593l-3.875,7h5.655l-1.068-7c-.039-.2-.118-.593-.237-.593" transform="translate(-158.796 -40.467)" fill="#fff"/>
      <path id="Trazado_2021" data-name="Trazado 2021" d="M520.454,117.118h-4.547a1.912,1.912,0,0,0-2.1,1.74l-.91,4.191h6.287c2.372,0,3.479-.277,4.112-2.61a6.454,6.454,0,0,0,.2-1.423c0-1.5-1.067-1.9-3.044-1.9" transform="translate(-174.542 -39.856)" fill="#fff"/>
      <path id="Trazado_2022" data-name="Trazado 2022" d="M441.117,103.931A61.726,61.726,0,0,1,414.072,0H8.356A8.356,8.356,0,0,0,0,8.355V127.1a8.357,8.357,0,0,0,8.356,8.356H505.539a8.356,8.356,0,0,0,8.356-8.356V68.494a61.843,61.843,0,0,1-72.778,35.437M305.7,41.746a5.07,5.07,0,0,1,5.259-4.349h14.827c5.022,0,7,2.688,7,6.761a17.923,17.923,0,0,1-.317,3.439c-.751,3.955-1.9,9.055-8.224,9.055h-.791l-.039.158,5.733,8.264h-9.963l-4.588-7.2c-.79-1.265-1.185-1.7-1.185-2.965a5.27,5.27,0,0,1,.079-.791l.118-.593c.515-2.372,2.294-3.124,4.666-3.124h1.344c2.372,0,3.321-.751,3.835-3.124a5.242,5.242,0,0,0,.158-1.265c0-1.344-.791-1.74-2.689-1.74h-5.1a1.913,1.913,0,0,0-2.1,1.74l-4.073,19.059h-8.936Zm-36.455,8.7c1.977-11.98,6.524-13.365,17.6-13.365,9.292,0,13.286,2.808,13.286,9.925a27.2,27.2,0,0,1-.435,5.021c-1.977,11.981-6.524,13.365-17.6,13.365-9.293,0-13.325-2.808-13.325-9.885a27.967,27.967,0,0,1,.474-5.061M219.109,37.4h14.906c4.982,0,6.88,2.727,6.88,6.919a22.1,22.1,0,0,1-.356,3.677c-1.147,6.365-2.808,9.094-9.924,9.094H219.5l-1.7,7.988h-8.936l4.983-23.329a5.069,5.069,0,0,1,5.258-4.349m-27.123,0,3.123,7.394L201.4,37.4h11.229L199.577,51.038l7.472,14.037H196.927l-3.36-7.79-6.683,7.79h-11.19l13.444-14.037L181.863,37.4ZM58.586,98.679,45.495,111.771a2.267,2.267,0,0,1-3.205-3.206L55.381,95.473a2.267,2.267,0,1,1,3.205,3.206M59.97,84.114,33.787,110.3a2.267,2.267,0,0,1-3.205-3.206L56.764,80.909a2.267,2.267,0,0,1,3.206,3.205M39.761,85.2,45.1,79.854a2.267,2.267,0,1,1,3.205,3.205L42.967,88.4A2.267,2.267,0,0,1,39.761,85.2m67.662-21.958a143.081,143.081,0,0,1-10.4,11.954l.427,17.539a4.535,4.535,0,0,1-1.327,3.317l-8.786,8.787a4.536,4.536,0,0,1-3.206,1.327,4.459,4.459,0,0,1-.818-.075A4.532,4.532,0,0,1,80,103.49L71.791,85.249l-8.081-8.081L55.63,69.088,37.388,60.878a4.533,4.533,0,0,1-1.345-7.34l8.787-8.787a4.532,4.532,0,0,1,3.206-1.328h.111l17.539.428A142.877,142.877,0,0,1,77.694,33.415c10.64-8.209,19.679-12.372,26.867-12.373h0a14.887,14.887,0,0,1,15.274,15.416c-.052,7.176-4.229,16.186-12.413,26.782m43.52-1.447a4.9,4.9,0,0,1,.119-1.067l4.033-18.979c.593-2.768,2.1-4.349,5.259-4.349H180.36l-1.423,6.721H165.256a1.913,1.913,0,0,0-2.1,1.74l-.435,2.056h15.1L176.526,54h-15.1l-.554,2.61a4.018,4.018,0,0,0-.079.633c0,.751.474,1.107,1.423,1.107h13.839l-1.423,6.722H154.462c-2.333,0-3.519-1.424-3.519-3.282M166.957,98.06h-8.936l4.429-20.8h-9.886l1.463-6.879h28.706l-1.463,6.879h-9.885Zm31.632,0,2.333-10.993H190.877L188.545,98.06h-8.936L185.5,70.382h8.936l-2.1,9.805h10.044l2.1-9.805h8.936L207.524,98.06ZM241.094,77.1H227.412a1.914,1.914,0,0,0-2.1,1.74l-.435,2.056h15.1l-1.3,6.089h-15.1l-.553,2.61a3.875,3.875,0,0,0-.079.633c0,.751.474,1.107,1.423,1.107h13.84l-1.424,6.722H216.619c-2.333,0-3.519-1.424-3.519-3.282a4.942,4.942,0,0,1,.119-1.067l4.033-18.979c.592-2.768,2.1-4.349,5.259-4.349h20.007Zm.512-15.231a5.588,5.588,0,0,1,.119-1.147L246.667,37.4H255.6L251.57,56.455a3.941,3.941,0,0,0-.079.633c0,.751.475,1.108,1.424,1.108H266.6l-1.463,6.88H245.125c-2.333,0-3.519-1.344-3.519-3.2M280.157,98.06l3.915-16.845a2.341,2.341,0,0,0,.079-.514c0-.2-.079-.4-.237-.4s-.4.237-.791.989l-7.077,13.364c-1.068,2.017-2.215,3.717-6.129,3.717s-4.349-1.7-4.547-3.717l-1.463-13.364c-.04-.515-.079-.989-.276-.989-.356,0-.515.633-.554.909L259.755,98.06h-9.015l4.942-23.131c1.028-4.864,6.089-4.864,7.513-4.864,2.372,0,5.892.237,6.366,4.587L271.024,88.1c.039.474.118,1.265.553,1.265s.91-.87,1.108-1.265l7-13.444c2.293-4.389,6.01-4.587,8.343-4.587,5.18,0,6.208,1.977,6.208,3.677a6.34,6.34,0,0,1-.118,1.187L289.173,98.06Zm35.269,0-1.067-5.694h-9.806l-3.361,5.694h-10l15.025-24.634c1.463-2.372,2.768-3.361,7.038-3.361,3,0,5.378.237,6.01,3.361l5.021,24.634Zm42.505-17.082c-1.146,6.365-2.808,9.094-9.924,9.094H336.9l-1.7,7.988H326.26l4.983-23.329a5.07,5.07,0,0,1,5.259-4.349h14.906c4.982,0,6.88,2.727,6.88,6.919a22.1,22.1,0,0,1-.356,3.677m3.6-36.86H347.849a1.913,1.913,0,0,0-2.1,1.74l-.435,2.056h15.1L359.118,54h-15.1l-.553,2.61a3.952,3.952,0,0,0-.079.633c0,.751.474,1.107,1.423,1.107h13.84l-1.424,6.722H337.054c-2.333,0-3.52-1.424-3.52-3.282a4.941,4.941,0,0,1,.119-1.067l4.033-18.979c.593-2.768,2.1-4.349,5.259-4.349h20.007Z" transform="translate(0 0)" fill="#fff"/>
    </g>
  </g>
</svg>
