<?xml version="1.0" encoding="UTF-8"?><svg id="Capa_2" xmlns="http://www.w3.org/2000/svg" viewBox="0 0 91.69 89.57"><defs><style>.cls-1{fill:#5eeda4;}.cls-2{fill:#fcfcfc;}</style></defs><g id="Capa_1-2"><g><path class="cls-1" d="m34.51,0C9.99-.38-4.83,19.36,1.43,44.08s31.22,45.09,55.75,45.48c24.52.39,39.33-19.35,33.07-44.08C84,20.76,59.03.39,34.51,0Zm20.3,80.2c-19.37-.31-39.15-16.45-44.09-35.98C5.77,24.7,17.51,9.06,36.88,9.37c19.38.31,39.16,16.44,44.1,35.97,4.94,19.53-6.79,35.18-26.17,34.87Z"/><path class="cls-2" d="m42.71,32.39c-6.77-.11-10.88,5.37-9.15,12.2,1.73,6.84,8.65,12.48,15.43,12.59,6.78.11,10.88-5.36,9.15-12.2-1.73-6.83-8.65-12.48-15.43-12.59Zm5.83,23.03c-5.82-.09-11.76-4.94-13.24-10.8-1.48-5.86,2.04-10.56,7.86-10.47s11.76,4.94,13.24,10.8c1.48,5.86-2.04,10.56-7.86,10.47Z"/><path class="cls-2" d="m39.68,20.45c-13.31-.21-21.37,10.53-17.97,23.95,3.4,13.42,16.98,24.51,30.29,24.72,13.31.21,21.38-10.54,17.98-23.96-3.4-13.42-16.99-24.5-30.3-24.71Zm11.87,46.91c-12.34-.19-24.95-10.48-28.1-22.93-3.15-12.45,4.33-22.42,16.67-22.22,12.34.19,24.95,10.48,28.1,22.93,3.15,12.45-4.33,22.42-16.67,22.22Z"/><path class="cls-2" d="m36.88,9.37c-19.37-.31-31.1,15.33-26.16,34.86,4.94,19.53,24.73,35.67,44.09,35.98,19.38.31,31.11-15.34,26.17-34.87-4.94-19.53-24.72-35.67-44.1-35.97Zm17.49,69.08c-18.41-.29-37.21-15.62-41.91-34.19S18.91,10.83,37.32,11.12c18.41.29,37.21,15.62,41.91,34.19,4.7,18.56-6.45,33.42-24.86,33.13Z"/></g></g></svg>