<?xml version="1.0" encoding="UTF-8"?><svg id="Capa_2" xmlns="http://www.w3.org/2000/svg" viewBox="0 0 72.52 70.85"><defs><style>.cls-1{fill:#5eeda4;}.cls-2{fill:#fcfcfc;}</style></defs><g id="Capa_1-2"><g><path class="cls-1" d="m33.57,24.79c-5.82-.09-9.34,4.6-7.86,10.47,1.48,5.86,7.42,10.71,13.24,10.8,5.82.09,9.34-4.6,7.86-10.47-1.48-5.86-7.42-10.71-13.24-10.8Z"/><path class="cls-2" d="m33.12,23.03c-6.77-.11-10.88,5.37-9.15,12.2,1.73,6.84,8.65,12.48,15.43,12.59,6.78.11,10.88-5.36,9.15-12.2-1.73-6.83-8.65-12.48-15.43-12.59Zm5.83,23.03c-5.82-.09-11.76-4.94-13.24-10.8-1.48-5.86,2.04-10.56,7.86-10.47s11.76,4.94,13.24,10.8c1.48,5.86-2.04,10.56-7.86,10.47Z"/><path class="cls-2" d="m30.1,11.09c-13.31-.21-21.37,10.53-17.97,23.95,3.4,13.42,16.98,24.51,30.29,24.72,13.31.21,21.38-10.54,17.98-23.96-3.4-13.42-16.99-24.5-30.3-24.71Zm11.87,46.91c-12.34-.19-24.95-10.48-28.1-22.93-3.15-12.45,4.33-22.42,16.67-22.22,12.34.19,24.95,10.48,28.1,22.93,3.15,12.45-4.33,22.42-16.67,22.22Z"/><path class="cls-2" d="m27.29,0C7.92-.3-3.81,15.34,1.13,34.87c4.94,19.53,24.73,35.67,44.09,35.98,19.38.31,31.11-15.34,26.17-34.87C66.45,16.45,46.67.31,27.29,0Zm17.49,69.08c-18.41-.29-37.21-15.62-41.91-34.19S9.32,1.47,27.74,1.76c18.41.29,37.21,15.62,41.91,34.19,4.7,18.56-6.45,33.42-24.86,33.13Z"/></g></g></svg>